<?xml version="1.0" standalone="no"?>
<!DOCTYPE svg PUBLIC "-//W3C//DTD SVG 1.1//EN" "http://www.w3.org/Graphics/SVG/1.1/DTD/svg11.dtd" >
<svg xmlns="http://www.w3.org/2000/svg" xmlns:xlink="http://www.w3.org/1999/xlink" version="1.1">
<metadata>
Created by FontForge 20170731 at Mon Nov 23 10:33:09 2020
 By Aleksey,,,
(c) 2019, Copyright by Lineto. All rights reserved.
</metadata>
<defs>
<font id="CircularXX-Light" horiz-adv-x="1157" >
  <font-face 
    font-family="CircularXX Light"
    font-weight="300"
    font-stretch="normal"
    units-per-em="2048"
    panose-1="2 1 4 4 1 1 1 1 1 4"
    ascent="1536"
    descent="-512"
    x-height="977"
    cap-height="1452"
    bbox="-406 -489 3029 2091"
    underline-thickness="102"
    underline-position="-307"
    unicode-range="U+000D-FEFF"
  />
<missing-glyph horiz-adv-x="532" 
 />
    <glyph glyph-name="f_f" unicode="ff" horiz-adv-x="1277" 
d="M1241 977v-111h-272v-866h-123v866h-488v-866h-122v866h-201v111h201v203q0 150 81 232.5t209 82.5q65 0 111 -20v-111q-36 16 -92 16q-82 0 -134.5 -48.5t-52.5 -157.5v-197h488v203q0 150 81.5 232.5t209.5 82.5q64 0 110 -20v-111q-36 16 -92 16q-82 0 -134 -48.5
t-52 -157.5v-197h272z" />
    <glyph glyph-name="f_f_i" unicode="ffi" horiz-adv-x="1746" 
d="M1583 977v-977h-123v866h-491v-866h-123v866h-488v-866h-122v866h-201v111h201v203q0 150 81 232.5t209 82.5q65 0 111 -20v-111q-36 16 -92 16q-82 0 -134.5 -48.5t-52.5 -157.5v-197h488v203q0 150 81.5 232.5t209.5 82.5q64 0 110 -20v-111q-36 16 -92 16
q-82 0 -134 -48.5t-52 -157.5v-197h614zM1419 1382q0 44 30 73.5t73 29.5t72.5 -29.5t29.5 -73.5t-29.5 -73t-72.5 -29t-73 29t-30 73z" />
    <glyph glyph-name="f_f_l" unicode="ffl" horiz-adv-x="1746" 
d="M969 1174v-197h491v502h123v-1479h-123v866h-491v-866h-123v866h-488v-866h-122v866h-201v111h201v203q0 150 81 232.5t209 82.5q65 0 111 -20v-111q-36 16 -92 16q-82 0 -134.5 -48.5t-52.5 -157.5v-197h488v203q0 150 81.5 232.5t209.5 82.5q64 0 110 -20v-111
q-36 16 -92 16q-82 0 -134 -48.5t-52 -157.5z" />
    <glyph glyph-name="f_i" unicode="fi" horiz-adv-x="1136" 
d="M809 1382q0 44 29.5 73.5t72.5 29.5t73 -29.5t30 -73.5t-30 -73t-73 -29t-72.5 29t-29.5 73zM850 866h-492v-866h-122v866h-201v111h201v203q0 150 81 232.5t209 82.5q65 0 111 -20v-111q-36 16 -92 16q-82 0 -134.5 -48.5t-52.5 -157.5v-197h615v-977h-123v866z" />
    <glyph glyph-name="f_l" unicode="fl" horiz-adv-x="1136" 
d="M850 977v502h123v-1479h-123v866h-492v-866h-122v866h-201v111h201v203q0 150 81 232.5t209 82.5q65 0 111 -20v-111q-36 16 -92 16q-82 0 -134.5 -48.5t-52.5 -157.5v-197h492z" />
    <glyph glyph-name=".notdef" horiz-adv-x="532" 
 />
    <glyph glyph-name=".null" horiz-adv-x="0" 
 />
    <glyph glyph-name=".null" horiz-adv-x="0" 
 />
    <glyph glyph-name="uni000D" unicode="&#xd;" horiz-adv-x="530" 
 />
    <glyph glyph-name="space" unicode=" " horiz-adv-x="530" 
 />
    <glyph glyph-name="exclam" unicode="!" horiz-adv-x="462" 
d="M309 1452l-35 -1065h-84l-36 1065h155zM227 -8q-43 0 -72.5 29.5t-29.5 70.5q0 43 29.5 73t72.5 30t73 -30t30 -73q0 -41 -30 -70.5t-73 -29.5z" />
    <glyph glyph-name="quotedbl" unicode="&#x22;" horiz-adv-x="694" 
d="M233 877h-45l-57 311q-8 24 -8 65t25 67t63 26t63 -26t25 -67t-8 -65zM506 877h-45l-58 311q-8 24 -8 65t25 67t63 26t63 -26t25 -67t-8 -65z" />
    <glyph glyph-name="numbersign" unicode="#" horiz-adv-x="1470" 
d="M182 856v102h322l78 369h112l-80 -369h353l77 369h113l-80 -369h312v-102h-334l-80 -381h313v-102h-336l-80 -373h-112l80 373h-351l-79 -373h-113l80 373h-295v102h317l82 381h-299zM592 856l-80 -381h350l82 381h-352z" />
    <glyph glyph-name="dollar" unicode="$" horiz-adv-x="1101" 
d="M610 -233h-102v208q-95 8 -174.5 44.5t-132.5 92t-85.5 122t-41.5 139.5l121 39q13 -125 95 -216t218 -108v533l-76 18q-139 31 -222 118.5t-83 225.5q0 145 109.5 248t271.5 121v211h102v-213q164 -11 260 -103t127 -223l-114 -41q-20 99 -88.5 168.5t-184.5 85.5v-514
l66 -16q157 -39 245.5 -131.5t88.5 -229.5q0 -147 -110 -253t-290 -118v-208zM885 340q0 92 -60.5 156.5t-169.5 89.5l-45 10v-510q128 12 201.5 82t73.5 172zM254 991q0 -178 207 -231l47 -12v493q-109 -14 -181.5 -82t-72.5 -168z" />
    <glyph glyph-name="percent" unicode="%" horiz-adv-x="1583" 
d="M184 1026q0 -89 58.5 -150t144.5 -61t144.5 61t58.5 150t-58.5 150t-144.5 61t-144.5 -61t-58.5 -150zM74 1026q0 130 91 221.5t222 91.5q129 0 221 -91.5t92 -221.5t-92 -221.5t-221 -91.5q-131 0 -222 91.5t-91 221.5zM995 299q0 -89 58.5 -150t144.5 -61t144.5 61
t58.5 150t-58.5 150t-144.5 61t-144.5 -61t-58.5 -150zM885 299q0 131 91.5 222t221.5 91q129 0 221 -91.5t92 -221.5t-92 -221.5t-221 -91.5q-130 0 -221.5 91t-91.5 222zM362 0h-122l968 1327h121z" />
    <glyph glyph-name="ampersand" unicode="&#x26;" horiz-adv-x="1355" 
d="M1141 0l-215 225q-105 -124 -204 -186t-218 -62q-92 0 -168.5 30.5t-125 81t-75 115t-26.5 134.5q0 124 63.5 215.5t187.5 183.5l41 31l-63 63q-154 154 -154 306q0 148 103.5 245t247.5 97q154 0 253 -93t99 -239q0 -93 -54.5 -167t-144.5 -144l-108 -80l344 -355
l299 361v-176l-219 -267l309 -319h-172zM426 915l76 -81l121 94q69 53 103 106t34 117q0 92 -63 154.5t-160 62.5q-99 0 -163.5 -62.5t-64.5 -160.5q0 -113 117 -230zM508 96q91 0 171.5 55.5t164.5 157.5l-365 375l-67 -53q-83 -66 -127.5 -131.5t-44.5 -151.5
q0 -105 72.5 -178.5t195.5 -73.5z" />
    <glyph glyph-name="quotesingle" unicode="'" horiz-adv-x="421" 
d="M233 877h-45l-57 311q-8 24 -8 65t25 67t63 26t63 -26t25 -67t-8 -65z" />
    <glyph glyph-name="parenleft" unicode="(" horiz-adv-x="583" 
d="M100 649q0 159 28 301.5t80.5 261t118 216t150.5 188.5l76 -66q-167 -187 -255.5 -406t-88.5 -495t89 -493.5t255 -407.5l-76 -65q-377 398 -377 966z" />
    <glyph glyph-name="parenright" unicode=")" horiz-adv-x="583" 
d="M483 649q0 -568 -377 -966l-75 65q344 384 344 901q0 276 -89 495t-255 406l75 66q85 -91 150.5 -188.5t118 -216t80.5 -261t28 -301.5z" />
    <glyph glyph-name="asterisk" unicode="*" horiz-adv-x="940" 
d="M520 1452v-301l285 98l31 -94l-287 -98l186 -252l-80 -62l-188 258l-180 -256l-80 62l180 250l-285 96l33 96l281 -100v303h104z" />
    <glyph glyph-name="plus" unicode="+" horiz-adv-x="1073" 
d="M84 641h397v424h109v-424h399v-102h-399v-430h-109v430h-397v102z" />
    <glyph glyph-name="comma" unicode="," horiz-adv-x="489" 
d="M129 98q0 42 32 72.5t79 30.5q50 0 85 -38.5t35 -107.5q0 -143 -72 -238.5t-171 -117.5v76q67 23 109 88t44 139q-10 -10 -39 -10q-43 0 -72.5 29.5t-29.5 76.5z" />
    <glyph glyph-name="hyphen" unicode="-" horiz-adv-x="825" 
d="M682 532h-539v111h539v-111z" />
    <glyph glyph-name="period" unicode="." horiz-adv-x="468" 
d="M127 98q0 45 31 77t75 32q47 0 78 -32t31 -77t-31 -75.5t-78 -30.5q-44 0 -75 31t-31 75z" />
    <glyph glyph-name="slash" unicode="/" horiz-adv-x="952" 
d="M889 1452l-701 -1452h-122l702 1452h121z" />
    <glyph glyph-name="zero" unicode="0" horiz-adv-x="1241" 
d="M244 664q0 -327 133 -471q98 -105 244 -105q145 0 243 105q133 144 133 471t-133 471q-97 104 -243 104q-147 0 -244 -104q-133 -144 -133 -471zM117 664q0 319 129 499q136 191 375 191q238 0 374 -191q129 -180 129 -499q0 -320 -129 -500q-136 -191 -374 -191
q-239 0 -375 191q-129 180 -129 500z" />
    <glyph glyph-name="one" unicode="1" horiz-adv-x="675" 
d="M516 0h-125v1108q-45 -62 -141 -111t-189 -49v103q133 12 222.5 88.5t115.5 187.5h117v-1327z" />
    <glyph glyph-name="two" unicode="2" horiz-adv-x="1105" 
d="M250 856l-127 16q-6 18 -6 64q0 176 121 297t319 121q191 0 307.5 -113t116.5 -278q0 -251 -248 -406l-287 -182q-161 -101 -180 -258h731v-117h-886q3 298 276 475l258 166q207 133 207 320q0 116 -81 198t-218 82q-140 0 -224.5 -88t-84.5 -231q0 -31 6 -66z" />
    <glyph glyph-name="three" unicode="3" horiz-adv-x="1163" 
d="M477 664l-61 106l440 440h-717v117h883v-115l-430 -430q28 4 49 4q80 0 153 -26t131 -74t92 -123.5t34 -167.5q0 -177 -129 -299.5t-338 -122.5q-202 0 -337 118t-143 292l125 29q3 -99 54 -174.5t130 -113.5t171 -38q147 0 242.5 86.5t95.5 218.5q0 136 -92 214.5
t-228 78.5q-66 0 -125 -20z" />
    <glyph glyph-name="four" unicode="4" horiz-adv-x="1150" 
d="M61 326v145l609 856h180v-885h233v-116h-233v-326h-125v326h-664zM725 442v764l-543 -764h543z" />
    <glyph glyph-name="five" unicode="5" horiz-adv-x="1126" 
d="M80 369l123 37q8 -136 106 -228t240 -92q147 0 244.5 93t97.5 233q0 147 -97.5 238t-242.5 91q-174 0 -295 -133l-123 49l168 670h668v-117h-580l-119 -477q57 60 138 90.5t165 30.5q194 0 320.5 -122.5t126.5 -315.5q0 -187 -132 -315t-339 -128q-193 0 -325 116
t-144 280z" />
    <glyph glyph-name="six" unicode="6" horiz-adv-x="1189" 
d="M1051 1280l-39 -106q-108 65 -254 65q-126 0 -226.5 -51t-163.5 -137.5t-96.5 -196.5t-33.5 -233v-9q31 106 140.5 183t256.5 77q192 0 320 -124.5t128 -325.5q0 -132 -65 -236t-171.5 -158.5t-232.5 -54.5q-224 0 -362.5 162.5t-138.5 458.5q0 185 52 332t142 239.5
t206.5 140.5t250.5 48q179 0 287 -74zM274 424q0 -148 100 -243t240 -95q142 0 241 94.5t99 243.5q0 150 -99 243t-241 93t-241 -93t-99 -243z" />
    <glyph glyph-name="seven" unicode="7" horiz-adv-x="1058" 
d="M1020 1327v-125q-84 -76 -154 -153.5t-146.5 -189.5t-133 -233.5t-102 -284t-64.5 -341.5h-133q71 719 592 1210h-811v117h952z" />
    <glyph glyph-name="eight" unicode="8" horiz-adv-x="1155" 
d="M578 735q134 0 219.5 72.5t85.5 183.5q0 110 -83.5 182t-221.5 72t-222 -72t-84 -182q0 -111 86 -183.5t220 -72.5zM578 86q153 0 243 76t90 192q0 118 -88.5 195.5t-244.5 77.5q-155 0 -244.5 -77.5t-89.5 -195.5q0 -116 90.5 -192t243.5 -76zM578 -27
q-212 0 -336.5 106t-124.5 265q0 124 75.5 212.5t196.5 123.5q-103 30 -173.5 118t-70.5 199q0 153 122 255t311 102t310.5 -102t121.5 -255q0 -112 -70 -200.5t-174 -116.5q120 -34 197 -123.5t77 -212.5q0 -159 -125.5 -265t-336.5 -106z" />
    <glyph glyph-name="nine" unicode="9" horiz-adv-x="1181" 
d="M129 57l43 109q51 -35 124.5 -56.5t145.5 -21.5q241 0 367.5 153.5t128.5 432.5v39q-38 -109 -141.5 -177.5t-245.5 -68.5q-86 0 -166 30.5t-142 86t-99.5 139.5t-37.5 184q0 127 64.5 230.5t170 160t228.5 56.5q220 0 359 -164.5t139 -448.5q0 -135 -22 -249.5
t-70 -211.5t-120 -164.5t-177 -105t-236 -37.5q-80 0 -169 23.5t-144 60.5zM907 909q0 145 -100 237.5t-238 92.5q-137 0 -236.5 -92.5t-99.5 -237.5q0 -148 97.5 -239.5t238.5 -91.5q140 0 239 91.5t99 239.5z" />
    <glyph glyph-name="colon" unicode=":" horiz-adv-x="497" 
d="M141 877q0 44 31.5 76t75.5 32q47 0 77.5 -31.5t30.5 -76.5t-30.5 -76t-77.5 -31q-44 0 -75.5 31.5t-31.5 75.5zM141 98q0 44 31.5 76.5t75.5 32.5q46 0 77 -32t31 -77t-30.5 -75.5t-77.5 -30.5q-44 0 -75.5 31t-31.5 75z" />
    <glyph glyph-name="semicolon" unicode=";" horiz-adv-x="497" 
d="M129 96q0 42 31 71.5t78 29.5t82.5 -38.5t35.5 -103.5q0 -143 -70.5 -235.5t-168.5 -114.5v74q66 23 107.5 87.5t43.5 135.5q-10 -10 -39 -10q-43 0 -71.5 30t-28.5 74zM125 877q0 44 31 76t75 32q47 0 78 -31.5t31 -76.5t-31 -76t-78 -31q-44 0 -75 31.5t-31 75.5z" />
    <glyph glyph-name="less" unicode="&#x3c;" horiz-adv-x="1017" 
d="M72 535v110l823 424v-125l-700 -354l700 -354v-125z" />
    <glyph glyph-name="equal" unicode="=" horiz-adv-x="1206" 
d="M1061 735h-916v105h916v-105zM1061 338h-916v106h916v-106z" />
    <glyph glyph-name="greater" unicode="&#x3e;" horiz-adv-x="1017" 
d="M946 645v-110l-823 -424v125l700 354l-700 354v125z" />
    <glyph glyph-name="question" unicode="?" horiz-adv-x="1001" 
d="M535 387h-113q-6 23 -6 78q0 98 35 169.5t112 131.5l90 70q142 106 142 251q0 115 -77 196t-212 81q-99 0 -169.5 -44t-102 -110.5t-31.5 -146.5q0 -49 16 -111l-125 19q-16 50 -16 104q0 75 26.5 145t77 129t135 94.5t189.5 35.5q127 0 224.5 -56.5t145.5 -144
t48 -188.5q0 -203 -205 -353l-92 -67q-97 -70 -97 -217q0 -21 5 -66zM479 -8q-43 0 -72.5 29.5t-29.5 70.5q0 43 29.5 73t72.5 30t73 -30t30 -73q0 -41 -30 -70.5t-73 -29.5z" />
    <glyph glyph-name="at" unicode="@" horiz-adv-x="1687" 
d="M1231 297q-85 0 -136 43.5t-57 116.5q-41 -75 -109.5 -118.5t-146.5 -43.5q-130 0 -214.5 95t-84.5 247q0 122 51.5 228t142.5 169.5t200 63.5q81 0 145.5 -44.5t81.5 -121.5l24 141h105l-103 -512q-6 -30 -6 -57q0 -52 27 -83.5t86 -31.5q102 0 184 124.5t82 299.5
q0 111 -42.5 213.5t-119.5 181.5t-195 126.5t-259 47.5q-140 0 -263.5 -52.5t-213 -144.5t-141.5 -222.5t-52 -280.5q0 -192 81.5 -344.5t239 -242t365.5 -89.5q136 0 259.5 47.5t221.5 139.5l56 -70q-98 -98 -243 -155.5t-294 -57.5q-231 0 -412.5 98.5t-281.5 275
t-100 400.5q0 168 62 316.5t166.5 253t247.5 165t300 60.5q159 0 296 -54.5t229.5 -146t145 -212t52.5 -251.5q0 -146 -55 -267t-141 -186t-181 -65zM1067 784q0 99 -51 157t-146 58q-116 0 -197 -103.5t-81 -244.5q0 -110 52 -184t151 -74q86 0 148.5 58t91.5 144t32 189z
" />
    <glyph glyph-name="A" unicode="A" horiz-adv-x="1421" 
d="M1237 0l-180 449h-695l-178 -449h-139l588 1452h155l588 -1452h-139zM709 1323l-299 -756h600z" />
    <glyph glyph-name="B" unicode="B" horiz-adv-x="1234" 
d="M207 1452h418q206 0 323 -106t117 -281q0 -115 -60 -199.5t-161 -120.5q118 -29 193 -128.5t75 -225.5q0 -172 -123.5 -281.5t-322.5 -109.5h-459v1452zM336 791h321q120 0 198.5 74.5t78.5 191.5q0 130 -85 205t-237 75h-276v-546zM336 115h317q150 0 239 77t89 207
q0 124 -83.5 201.5t-217.5 77.5h-344v-563z" />
    <glyph glyph-name="C" unicode="C" horiz-adv-x="1527" 
d="M817 -27q-109 0 -212 31t-193.5 94.5t-158.5 152t-107.5 211t-39.5 263.5t39.5 264t108 211.5t159 152t193.5 95t211 31.5q241 0 408 -126.5t217 -336.5l-117 -41q-43 181 -177 283t-331 102q-89 0 -173.5 -25.5t-158 -78.5t-128.5 -127.5t-87 -178.5t-32 -225
q0 -150 48.5 -272.5t130.5 -200t185 -119t215 -41.5q199 0 336 107t182 284l113 -41q-56 -210 -223 -339.5t-408 -129.5z" />
    <glyph glyph-name="D" unicode="D" horiz-adv-x="1458" 
d="M336 115h315q115 0 216 38.5t179.5 112.5t124.5 191.5t46 265.5q0 149 -45 267.5t-122.5 193t-178.5 114t-216 39.5h-319v-1222zM655 0h-448v1452h452q140 0 264 -48t219.5 -137.5t151.5 -230t56 -313.5t-56.5 -312.5t-153 -228t-221 -135.5t-264.5 -47z" />
    <glyph glyph-name="E" unicode="E" horiz-adv-x="1177" 
d="M1063 0h-856v1452h856v-119h-725v-547h661v-118h-661v-549h725v-119z" />
    <glyph glyph-name="F" unicode="F" horiz-adv-x="1169" 
d="M338 0h-131v1452h860v-119h-729v-563h666v-119h-666v-651z" />
    <glyph glyph-name="G" unicode="G" horiz-adv-x="1568" 
d="M1432 0h-103l-12 281q-17 -41 -44.5 -80.5t-73.5 -81.5t-102 -73.5t-136 -52t-170 -20.5q-102 0 -201 31t-186.5 94t-154 151.5t-105 212t-38.5 265.5q0 141 39 263.5t106 211t156.5 152t191.5 94.5t210 31q229 0 399 -119.5t232 -317.5l-117 -49q-55 172 -189.5 269.5
t-324.5 97.5q-89 0 -172 -25.5t-155.5 -77.5t-127 -126t-85.5 -178t-31 -226t31.5 -226.5t85.5 -179t125.5 -127.5t151.5 -78.5t163 -25.5q110 0 199.5 32t145.5 81.5t95 114t55.5 125.5t18.5 120h-537v119h660v-682z" />
    <glyph glyph-name="H" unicode="H" horiz-adv-x="1507" 
d="M1300 0h-131v678h-831v-678h-131v1452h131v-655h831v655h131v-1452z" />
    <glyph glyph-name="I" unicode="I" horiz-adv-x="544" 
d="M338 0h-131v1452h131v-1452z" />
    <glyph glyph-name="J" unicode="J" horiz-adv-x="1099" 
d="M68 426v92l129 31v-117q0 -161 77.5 -250.5t217.5 -89.5q138 0 212 88.5t74 245.5v1026h131v-1024q0 -202 -112 -328.5t-305 -126.5q-197 0 -310.5 121.5t-113.5 331.5z" />
    <glyph glyph-name="K" unicode="K" horiz-adv-x="1306" 
d="M1122 0l-534 715l-250 -266v-449h-131v1452h131v-831l770 831h170l-604 -645l612 -807h-164z" />
    <glyph glyph-name="L" unicode="L" horiz-adv-x="1114" 
d="M1071 0h-864v1452h131v-1333h733v-119z" />
    <glyph glyph-name="M" unicode="M" horiz-adv-x="1935" 
d="M1729 0h-132v1257l-569 -1257h-123l-567 1257v-1257h-131v1452h184l578 -1282l577 1282h183v-1452z" />
    <glyph glyph-name="N" unicode="N" horiz-adv-x="1562" 
d="M1356 0h-139l-879 1290v-1290h-131v1452h180l838 -1239v1239h131v-1452z" />
    <glyph glyph-name="O" unicode="O" horiz-adv-x="1632" 
d="M238 725q0 -150 48 -272.5t129.5 -200t184 -119t215.5 -41.5q112 0 215 41.5t185 119t131 200t49 272.5q0 151 -49 274t-131 200.5t-185 119t-215 41.5q-113 0 -215.5 -41.5t-184 -119t-129.5 -200.5t-48 -274zM106 725q0 176 60.5 321.5t161 238.5t226.5 143.5t261 50.5
q107 0 210 -31.5t193.5 -95t159 -152t108.5 -211.5t40 -264t-40 -264t-108.5 -211t-159 -151.5t-193.5 -94.5t-210 -31q-108 0 -210.5 31t-193 94.5t-158.5 152t-107.5 211t-39.5 263.5z" />
    <glyph glyph-name="P" unicode="P" horiz-adv-x="1198" 
d="M338 731h328q154 0 243.5 82.5t89.5 218.5q0 137 -89.5 220t-243.5 83h-328v-604zM686 614h-348v-614h-131v1452h479q198 0 321 -119t123 -301t-122.5 -300t-321.5 -118z" />
    <glyph glyph-name="Q" unicode="Q" horiz-adv-x="1632" 
d="M1417 -109l-192 211q-177 -129 -410 -129q-108 0 -210.5 31t-193 94.5t-158.5 152t-107.5 211t-39.5 263.5q0 176 60.5 321.5t161 238.5t226.5 143.5t261 50.5q107 0 210 -31.5t193.5 -95t159 -152t108.5 -211.5t40 -264q0 -329 -211 -547l188 -209zM815 92
q182 0 328 101l-289 319l90 78l287 -320q164 177 164 455q0 151 -49 274t-131 200.5t-185 119t-215 41.5q-113 0 -215.5 -41.5t-184 -119t-129.5 -200.5t-48 -274q0 -150 48 -272.5t129.5 -200t184 -119t215.5 -41.5z" />
    <glyph glyph-name="R" unicode="R" horiz-adv-x="1255" 
d="M991 0l-350 629h-303v-629h-131v1452h506q193 0 312.5 -117.5t119.5 -296.5q0 -159 -99 -270t-264 -131l361 -637h-152zM338 745h354q146 0 234 80t88 213q0 135 -88 216t-234 81h-354v-590z" />
    <glyph glyph-name="S" unicode="S" horiz-adv-x="1191" 
d="M1071 1122l-115 -41q-13 58 -38.5 106.5t-67 89.5t-105 64t-143.5 23q-134 0 -233 -81t-99 -206q0 -98 59.5 -164t170.5 -92l221 -51q174 -42 269 -140t95 -249q0 -171 -133.5 -289.5t-347.5 -118.5q-115 0 -211 36t-160 97t-102 138t-47 162l121 38q13 -148 120.5 -251
t278.5 -103q163 0 257.5 79.5t94.5 201.5q0 102 -67.5 172.5t-192.5 99.5l-219 51q-153 34 -244.5 130.5t-91.5 244.5q0 109 64 204t169.5 150.5t223.5 55.5q108 0 193 -29t140 -80.5t89 -112.5t51 -135z" />
    <glyph glyph-name="T" unicode="T" horiz-adv-x="1234" 
d="M1196 1333h-514v-1333h-131v1333h-512v119h1157v-119z" />
    <glyph glyph-name="U" unicode="U" horiz-adv-x="1376" 
d="M688 -27q-227 0 -362.5 132.5t-135.5 377.5v969h132v-963q0 -193 93.5 -295t272.5 -102t273 102t94 295v963h131v-969q0 -242 -135.5 -376t-362.5 -134z" />
    <glyph glyph-name="V" unicode="V" horiz-adv-x="1341" 
d="M672 156l483 1296h137l-559 -1452h-129l-551 1452h140z" />
    <glyph glyph-name="W" unicode="W" horiz-adv-x="2027" 
d="M1487 182l356 1270h133l-417 -1452h-142l-405 1282l-406 -1282h-135l-424 1452h135l359 -1270l401 1270h141z" />
    <glyph glyph-name="X" unicode="X" horiz-adv-x="1210" 
d="M1169 1452l-489 -723l487 -729h-153l-408 625l-416 -625h-151l491 729l-487 723h156l407 -623l410 623h153z" />
    <glyph glyph-name="Y" unicode="Y" horiz-adv-x="1261" 
d="M567 621l-508 831h154l418 -711l420 711h151l-508 -831v-621h-127v621z" />
    <glyph glyph-name="Z" unicode="Z" horiz-adv-x="1277" 
d="M1194 0h-1112v133l954 1200h-942v119h1094v-129l-957 -1204h963v-119z" />
    <glyph glyph-name="bracketleft" unicode="[" horiz-adv-x="532" 
d="M471 -289h-315v1880h315v-100h-207v-1679h207v-101z" />
    <glyph glyph-name="backslash" unicode="\" horiz-adv-x="954" 
d="M764 0l-701 1452h125l699 -1452h-123z" />
    <glyph glyph-name="bracketright" unicode="]" horiz-adv-x="532" 
d="M377 -289h-316v101h207v1679h-207v100h316v-1880z" />
    <glyph glyph-name="asciicircum" unicode="^" horiz-adv-x="1110" 
d="M1006 727h-129l-320 600l-324 -600h-129l398 725h108z" />
    <glyph glyph-name="underscore" unicode="_" horiz-adv-x="1069" 
d="M1059 -102h-1049v102h1049v-102z" />
    <glyph glyph-name="grave" unicode="`" horiz-adv-x="507" 
d="M326 1100l-242 284h156l182 -284h-96z" />
    <glyph glyph-name="a" unicode="a" horiz-adv-x="1024" 
d="M412 -25q-147 0 -233.5 82.5t-86.5 194.5q0 122 77.5 195t215.5 94l260 39q59 10 81 32.5t22 61.5q0 101 -63.5 161t-182.5 60q-117 0 -190 -60.5t-85 -166.5l-114 24q17 139 123.5 224t263.5 85q182 0 276 -94.5t94 -244.5v-494q0 -91 15 -168h-121q-12 46 -12 168
q-36 -77 -126.5 -135t-213.5 -58zM426 80q143 0 232.5 86.5t89.5 232.5v111q-16 -16 -72 -25l-273 -41q-88 -12 -137 -60t-49 -126q0 -72 55.5 -125t153.5 -53z" />
    <glyph glyph-name="b" unicode="b" horiz-adv-x="1181" 
d="M285 0h-121v1479h123v-691q39 86 129.5 151t224.5 65q133 0 234.5 -68.5t154.5 -185t53 -261.5q0 -144 -54.5 -261t-157 -186t-234.5 -69q-130 0 -220 63.5t-132 153.5v-190zM623 84q150 0 244 113t94 292q0 178 -94 291t-244 113q-151 0 -244.5 -113t-93.5 -291
q0 -179 93.5 -292t244.5 -113z" />
    <glyph glyph-name="c" unicode="c" horiz-adv-x="1083" 
d="M575 893q-151 0 -253.5 -110.5t-102.5 -295.5q0 -181 102.5 -292t253.5 -111q66 0 122.5 22t94.5 58.5t63 76.5t38 83l108 -45q-19 -59 -54.5 -112t-87.5 -97.5t-125.5 -70.5t-158.5 -26q-208 0 -343.5 144.5t-135.5 369.5q0 226 136 371.5t343 145.5q166 0 274.5 -88
t143.5 -220l-108 -45q-13 47 -36.5 87t-60 76.5t-91.5 57.5t-122 21z" />
    <glyph glyph-name="d" unicode="d" horiz-adv-x="1175" 
d="M219 489q0 -175 93 -290t245 -115q150 0 241 115t91 290q0 176 -90.5 290t-239.5 114q-153 0 -246.5 -113t-93.5 -291zM889 154v39q-17 -40 -45.5 -76.5t-69.5 -70t-100 -53.5t-127 -20q-134 0 -237.5 69t-158.5 186t-55 261q0 219 126 367t325 148q73 0 134.5 -21
t101.5 -54.5t65 -67t39 -68.5v686h123v-1293q0 -136 10 -186h-121q-10 42 -10 154z" />
    <glyph glyph-name="e" unicode="e" horiz-adv-x="1095" 
d="M225 567h652q-5 141 -91.5 233.5t-234.5 92.5q-134 0 -226 -94.5t-100 -231.5zM891 315l108 -39q-44 -133 -155.5 -218t-272.5 -85q-97 0 -183 35.5t-151 100.5t-103 164t-38 219q0 148 62.5 266.5t165.5 182t225 63.5q210 0 333.5 -137.5t123.5 -356.5q0 -29 -2 -45
h-783v-8q0 -164 102 -268.5t248 -104.5q124 0 205.5 64t114.5 167z" />
    <glyph glyph-name="f" unicode="f" horiz-adv-x="667" 
d="M631 866h-273v-866h-122v866h-201v111h201v203q0 150 81 232.5t209 82.5q65 0 111 -20v-111q-36 16 -92 16q-82 0 -134.5 -48.5t-52.5 -157.5v-197h273v-111z" />
    <glyph glyph-name="g" unicode="g" horiz-adv-x="1150" 
d="M98 -55l117 28q12 -118 99.5 -199t213.5 -81q93 0 160 29.5t104.5 83.5t54.5 119t17 145v180q-36 -83 -120.5 -141t-208.5 -58q-191 0 -314 135t-123 340q0 202 122 337.5t315 135.5q127 0 208.5 -53t122.5 -137v168h121v-905q0 -72 -13 -138t-46 -131.5t-83.5 -112.5
t-132.5 -76.5t-186 -29.5q-174 0 -292 102.5t-136 258.5zM549 158q143 0 231 103.5t88 264.5q0 160 -88 263.5t-231 103.5q-147 0 -237.5 -103t-90.5 -264t91 -264.5t237 -103.5z" />
    <glyph glyph-name="h" unicode="h" horiz-adv-x="1099" 
d="M287 588v-588h-123v1479h123v-656q41 79 122.5 130t190.5 51q167 0 256.5 -102.5t89.5 -262.5v-639h-123v618q0 123 -66 199t-198 76q-120 0 -196 -90.5t-76 -214.5z" />
    <glyph glyph-name="i" unicode="i" horiz-adv-x="450" 
d="M287 0h-123v977h123v-977zM123 1382q0 44 29.5 73.5t72.5 29.5t73 -29.5t30 -73.5t-30 -73t-73 -29t-72.5 29t-29.5 73z" />
    <glyph glyph-name="j" unicode="j" horiz-adv-x="450" 
d="M164 -129v1106h123v-1110q0 -133 -70 -208t-188 -75q-65 0 -109 19v104q34 -12 84 -12q160 0 160 176zM123 1382q0 44 29.5 73.5t72.5 29.5t73 -29.5t30 -73.5t-30 -73t-73 -29t-72.5 29t-29.5 73z" />
    <glyph glyph-name="k" unicode="k" horiz-adv-x="1015" 
d="M969 977l-416 -416l424 -561h-154l-356 477l-180 -178v-299h-123v1479h123v-1018l512 516h170z" />
    <glyph glyph-name="l" unicode="l" horiz-adv-x="450" 
d="M287 0h-123v1479h123v-1479z" />
    <glyph glyph-name="m" unicode="m" horiz-adv-x="1730" 
d="M287 0h-123v977h121v-162q34 82 117 135.5t194 53.5q115 0 196.5 -59t110.5 -163q44 106 131.5 164t204.5 58q147 0 242.5 -96t95.5 -261v-647h-123v633q0 115 -65.5 188.5t-184.5 73.5q-120 0 -196 -86t-76 -209v-600h-123v633q0 115 -65 188.5t-185 73.5t-196 -85.5
t-76 -209.5v-600z" />
    <glyph glyph-name="n" unicode="n" horiz-adv-x="1099" 
d="M287 584v-584h-123v977h119v-156q43 81 125.5 130.5t191.5 49.5q166 0 256 -102.5t90 -261.5v-637h-123v616q0 124 -65 199.5t-199 75.5q-124 0 -198 -89t-74 -218z" />
    <glyph glyph-name="o" unicode="o" horiz-adv-x="1163" 
d="M582 -27q-205 0 -345.5 145t-140.5 369q0 227 139 370.5t347 143.5q100 0 189.5 -37.5t154.5 -104t103 -163t38 -209.5q0 -224 -140 -369t-345 -145zM221 487q0 -183 106 -293t255 -110t254.5 110t105.5 293q0 185 -105.5 294.5t-254.5 109.5q-72 0 -137 -27.5t-115 -78
t-79.5 -128t-29.5 -170.5z" />
    <glyph glyph-name="p" unicode="p" horiz-adv-x="1181" 
d="M287 -389h-123v1366h121v-195q20 41 49.5 77.5t72 70.5t103.5 54t131 20q135 0 236.5 -68.5t153.5 -185t52 -261.5q0 -222 -122.5 -369t-323.5 -147q-67 0 -126 18.5t-101.5 50.5t-72.5 67.5t-50 74.5v-573zM961 489q0 174 -94 289t-246 115q-151 0 -243.5 -114.5
t-92.5 -289.5q0 -176 92.5 -290.5t243.5 -114.5q152 0 246 115.5t94 289.5z" />
    <glyph glyph-name="q" unicode="q" horiz-adv-x="1173" 
d="M1010 -389h-123v575q-43 -89 -130 -151t-214 -62q-132 0 -235 68.5t-157.5 186t-54.5 261.5q0 143 54.5 260t157 186t233.5 69q73 0 134 -20t102 -54t67.5 -69.5t44.5 -76.5v193h121v-1366zM219 489q0 -175 92.5 -290t243.5 -115q150 0 242 115t92 290q0 176 -92 290
t-242 114q-151 0 -243.5 -114t-92.5 -290z" />
    <glyph glyph-name="r" unicode="r" horiz-adv-x="690" 
d="M662 979v-129q-42 10 -87 10q-130 0 -209 -84.5t-79 -245.5v-530h-123v977h121v-182q84 194 301 194q46 0 76 -10z" />
    <glyph glyph-name="s" unicode="s" horiz-adv-x="899" 
d="M82 256l113 39q14 -96 83 -155.5t185 -59.5q93 0 155 48.5t62 125.5q0 124 -166 164l-158 37q-112 26 -175.5 91.5t-63.5 168.5q0 118 97.5 202t231.5 84q82 0 146.5 -22t104.5 -60t64 -79.5t36 -89.5l-109 -41q-13 79 -73.5 132.5t-168.5 53.5q-85 0 -146.5 -48
t-61.5 -124q0 -121 153 -156l156 -35q254 -60 254 -270q0 -116 -92 -202.5t-248 -86.5q-85 0 -156.5 25.5t-117 67t-72.5 90.5t-33 100z" />
    <glyph glyph-name="t" unicode="t" horiz-adv-x="671" 
d="M362 1286v-309h254v-111h-254v-590q0 -176 166 -176q50 0 88 17v-109q-36 -18 -120 -18q-120 0 -188 70.5t-68 203.5v602h-207v111h73q72 0 105 34t33 109v166h118z" />
    <glyph glyph-name="u" unicode="u" horiz-adv-x="1103" 
d="M823 137v15q-38 -78 -117.5 -128.5t-189.5 -50.5q-89 0 -160 31.5t-114.5 86t-66.5 124t-23 147.5v615h122v-594q0 -61 15 -113t45.5 -94.5t83 -67t121.5 -24.5q127 0 201.5 85t74.5 212v596h123v-791q0 -100 12 -186h-116q-11 42 -11 137z" />
    <glyph glyph-name="v" unicode="v" horiz-adv-x="1021" 
d="M963 977l-388 -977h-129l-387 977h140l311 -838l315 838h138z" />
    <glyph glyph-name="w" unicode="w" horiz-adv-x="1628" 
d="M750 977h133l291 -825l256 825h133l-320 -977h-137l-291 827l-291 -827h-137l-324 977h136l260 -825z" />
    <glyph glyph-name="x" unicode="x" horiz-adv-x="978" 
d="M41 0l373 498l-357 479h146l286 -391l287 391h146l-361 -479l375 -498h-148l-301 410l-299 -410h-147z" />
    <glyph glyph-name="y" unicode="y" horiz-adv-x="1026" 
d="M356 -389h-133l244 516l-416 850h137l342 -721l324 721h135z" />
    <glyph glyph-name="z" unicode="z" horiz-adv-x="950" 
d="M864 0h-776v109l619 757h-613v111h760v-109l-614 -757h624v-111z" />
    <glyph glyph-name="braceleft" unicode="{" horiz-adv-x="636" 
d="M47 592v119q97 6 156 61.5t59 155.5v327q0 324 301 324h19v-100h-19q-107 0 -149.5 -51.5t-42.5 -165.5v-359q0 -100 -57.5 -167.5t-157.5 -84.5q102 -17 158.5 -84t56.5 -168v-358q0 -114 42.5 -165.5t149.5 -51.5h19v-98h-19q-301 0 -301 323v326q0 100 -59 155.5
t-156 61.5z" />
    <glyph glyph-name="bar" unicode="|" horiz-adv-x="419" 
d="M264 -289h-108v1880h108v-1880z" />
    <glyph glyph-name="braceright" unicode="}" horiz-adv-x="636" 
d="M590 711v-119q-97 -6 -156 -61.5t-59 -155.5v-326q0 -323 -301 -323h-19v98h19q107 0 149.5 51.5t42.5 165.5v358q0 101 56.5 168t158.5 84q-100 17 -157.5 84.5t-57.5 167.5v359q0 114 -42.5 165.5t-149.5 51.5h-19v100h19q301 0 301 -324v-327q0 -100 59 -155.5
t156 -61.5z" />
    <glyph glyph-name="asciitilde" unicode="~" horiz-adv-x="1269" 
d="M653 518l-96 51q-68 39 -131 39q-64 0 -112 -28.5t-91 -87.5l-76 61q108 164 277 164q91 0 186 -53l95 -52q77 -41 141 -41q123 0 198 113l76 -61q-110 -162 -274 -162q-82 0 -193 57z" />
    <glyph glyph-name="uni00A0" unicode="&#xa0;" horiz-adv-x="530" 
 />
    <glyph glyph-name="exclamdown" unicode="&#xa1;" horiz-adv-x="434" 
d="M139 -463l35 1065h84l37 -1065h-156zM221 997q43 0 73 -29.5t30 -70.5q0 -43 -30 -72.5t-73 -29.5t-72.5 29.5t-29.5 72.5q0 41 29.5 70.5t72.5 29.5z" />
    <glyph glyph-name="cent" unicode="&#xa2;" horiz-adv-x="1062" 
d="M604 0h-102v195q-176 20 -288 152.5t-112 324.5q0 193 112.5 324t287.5 151v180h102v-178q142 -7 236 -87.5t129 -199.5l-109 -43q-23 83 -88 147.5t-168 75.5v-743q105 11 170 74.5t94 148.5l107 -43q-37 -114 -132.5 -194.5t-238.5 -91.5v-193zM225 672
q0 -150 77 -247.5t200 -121.5v735q-123 -21 -200 -118t-77 -248z" />
    <glyph glyph-name="sterling" unicode="&#xa3;" horiz-adv-x="1185" 
d="M127 698h158q-3 7 -17.5 43t-19 48t-15 43.5t-14.5 50t-8 46t-4 52.5q0 161 111.5 267t277.5 106q101 0 179 -30.5t125 -83t72 -115.5t29 -134l-129 -24q-6 129 -78.5 201.5t-195.5 72.5q-113 0 -190.5 -72.5t-77.5 -187.5q0 -34 10 -74.5t18 -63.5t31 -77t29 -68h399
v-112h-364q14 -58 14 -101q0 -107 -59.5 -207t-151.5 -165h479q116 0 179 73.5t69 192.5l123 -19q-6 -164 -96 -262t-246 -98h-655v123q97 56 165 155t68 193q0 59 -18 115h-197v112z" />
    <glyph glyph-name="currency" unicode="&#xa4;" horiz-adv-x="1191" 
d="M164 477q0 155 94 273l-147 153l79 78l146 -156q117 90 266 90q140 0 254 -81l145 147l78 -78l-141 -145q102 -123 102 -281t-98 -276l139 -142l-77 -77l-142 143q-116 -86 -260 -86q-152 0 -270 94l-146 -151l-77 77l147 150q-92 119 -92 268zM274 477
q0 -136 95.5 -231.5t232.5 -95.5t232.5 95.5t95.5 231.5t-95.5 232t-232.5 96t-232.5 -96t-95.5 -232z" />
    <glyph glyph-name="yen" unicode="&#xa5;" horiz-adv-x="1189" 
d="M1034 334h-375v-334h-127v334h-376v102h376v168h-376v103h311l-383 620h152l360 -610l360 610h150l-383 -620h311v-103h-375v-168h375v-102z" />
    <glyph glyph-name="brokenbar" unicode="&#xa6;" horiz-adv-x="440" 
d="M166 1591h108v-817h-108v817zM166 530h108v-819h-108v819z" />
    <glyph glyph-name="section" unicode="&#xa7;" horiz-adv-x="1024" 
d="M137 575q0 87 53 157t127 102q-184 113 -184 301q0 151 112.5 247.5t268.5 96.5q174 0 276 -102t107 -265l-119 -27q-2 132 -72.5 210.5t-193.5 78.5q-106 0 -181 -64t-75 -165q0 -140 156 -223l217 -117q126 -65 192 -137t66 -181q0 -89 -52 -156t-133 -102
q193 -114 193 -301q0 -152 -113 -248t-274 -96q-175 0 -278.5 101.5t-108.5 267.5l117 24q5 -132 76.5 -210t197.5 -78q112 0 186 62.5t74 164.5q0 76 -40.5 129.5t-119.5 97.5l-217 117q-63 33 -104.5 60.5t-79.5 65t-56 84.5t-18 105zM418 385l203 -111q61 22 103 74.5
t42 120.5q0 69 -39 118.5t-121 92.5l-205 108q-60 -25 -100.5 -77t-40.5 -117q0 -67 39 -117t119 -92z" />
    <glyph glyph-name="dieresis" unicode="&#xa8;" horiz-adv-x="716" 
d="M453 1251q0 35 25.5 60.5t60.5 25.5t60.5 -25.5t25.5 -60.5t-25.5 -60.5t-60.5 -25.5t-60.5 25.5t-25.5 60.5zM92 1251q0 35 25.5 60.5t60.5 25.5t60.5 -25.5t25.5 -60.5t-25.5 -60.5t-60.5 -25.5t-60.5 25.5t-25.5 60.5z" />
    <glyph glyph-name="copyright" unicode="&#xa9;" horiz-adv-x="1708" 
d="M860 1051q-123 0 -204 -88.5t-81 -235.5q0 -148 80.5 -236t204.5 -88q105 0 172 56.5t90 134.5l92 -41q-31 -101 -123.5 -174.5t-226.5 -73.5q-172 0 -283.5 119t-111.5 303q0 185 111.5 303.5t279.5 118.5q139 0 227.5 -71.5t120.5 -180.5l-96 -37q-26 86 -88 138.5
t-164 52.5zM854 1380q-131 0 -249 -51t-203.5 -138t-136 -208.5t-50.5 -257.5t50.5 -257.5t136 -208t203.5 -137t249 -50.5t249 50.5t203.5 137t136 208t50.5 257.5t-50.5 257.5t-136 208.5t-203.5 138t-249 51zM854 -27q-122 0 -236 37.5t-205.5 107t-160 162t-106 207.5
t-37.5 238q0 155 58.5 294.5t158 240.5t237.5 160t291 59t291 -59t237.5 -160t158 -240.5t58.5 -294.5q0 -123 -37.5 -238t-106 -207.5t-160 -162t-205.5 -107t-236 -37.5z" />
    <glyph glyph-name="ordfeminine" unicode="&#xaa;" horiz-adv-x="837" 
d="M121 823q0 85 54.5 137t148.5 64l190 29q66 11 66 63q0 64 -44.5 105t-123.5 41q-77 0 -125.5 -42.5t-59.5 -115.5l-94 24q11 98 86.5 160t190.5 62q137 0 204.5 -69t67.5 -177v-346q0 -86 8 -117h-100q-8 31 -8 109q-28 -53 -88 -90t-142 -37q-108 0 -169.5 58
t-61.5 142zM367 709q104 0 158.5 63.5t54.5 179.5v47q-6 -7 -82 -24l-152 -25q-121 -23 -121 -123q0 -50 36.5 -84t105.5 -34z" />
    <glyph glyph-name="guillemotleft" unicode="&#xab;" horiz-adv-x="952" 
d="M494 195h-123l-273 391l273 391h123l-271 -391zM840 195h-123l-273 391l273 391h123l-271 -391z" />
    <glyph glyph-name="logicalnot" unicode="&#xac;" horiz-adv-x="1150" 
d="M999 322h-110v411h-791v111h901v-522z" />
    <glyph glyph-name="uni00AD" unicode="&#xad;" horiz-adv-x="825" 
d="M682 535h-539v106h539v-106z" />
    <glyph glyph-name="registered" unicode="&#xae;" horiz-adv-x="1708" 
d="M721 741h151q80 0 126 40t46 112q0 73 -46 114.5t-126 41.5h-151v-308zM721 651v-332h-103v820h269q114 0 187 -69.5t73 -174.5q0 -90 -53 -153.5t-140 -82.5l197 -340h-121l-188 332h-121zM854 1380q-131 0 -249 -51t-203.5 -138t-136 -208.5t-50.5 -257.5t50.5 -257.5
t136 -208t203.5 -137t249 -50.5t249 50.5t203.5 137t136 208t50.5 257.5t-50.5 257.5t-136 208.5t-203.5 138t-249 51zM854 -27q-122 0 -236 37.5t-205.5 107t-160 162t-106 207.5t-37.5 238q0 155 58.5 294.5t158 240.5t237.5 160t291 59t291 -59t237.5 -160t158 -240.5
t58.5 -294.5q0 -123 -37.5 -238t-106 -207.5t-160 -162t-205.5 -107t-236 -37.5z" />
    <glyph glyph-name="macron" unicode="&#xaf;" horiz-adv-x="704" 
d="M612 1194h-520v102h520v-102z" />
    <glyph glyph-name="degree" unicode="&#xb0;" horiz-adv-x="831" 
d="M213 1034q0 -89 58.5 -150t144.5 -61t144 61t58 150t-58 150t-144 61t-144.5 -61t-58.5 -150zM102 1034q0 130 92 222t222 92q129 0 221 -92t92 -222t-92 -221.5t-221 -91.5q-131 0 -222.5 91.5t-91.5 221.5z" />
    <glyph glyph-name="plusminus" unicode="&#xb1;" horiz-adv-x="1187" 
d="M154 764h385v299h108v-299h387v-102h-387v-300h-108v300h-385v102zM154 236h880v-103h-880v103z" />
    <glyph glyph-name="twosuperior" unicode="&#xb2;" horiz-adv-x="690" 
d="M190 1178l-102 6q-4 28 -4 49q0 98 72 165.5t190 67.5q115 0 185.5 -65t70.5 -160q0 -129 -147 -221l-152 -94q-84 -55 -94 -125h401v-90h-528v10q0 176 160 276l141 86q113 70 113 160q0 56 -41.5 95.5t-110.5 39.5q-70 0 -114 -41t-44 -112q0 -15 4 -47z" />
    <glyph glyph-name="threesuperior" unicode="&#xb3;" horiz-adv-x="724" 
d="M301 1071l-45 80l233 213h-399v90h537v-86l-238 -213q3 0 9.5 1t9.5 1q100 -5 167.5 -61.5t67.5 -157.5t-79 -171.5t-204 -70.5q-121 0 -199.5 61t-90.5 156l94 35q6 -73 62 -118.5t132 -45.5q78 0 128.5 44t50.5 110q0 69 -49 106t-121 37q-33 0 -66 -10z" />
    <glyph glyph-name="acute" unicode="&#xb4;" horiz-adv-x="509" 
d="M426 1384l-242 -284h-100l182 284h160z" />
    <glyph glyph-name="mu" unicode="&#xb5;" horiz-adv-x="1085" 
d="M514 -27q-168 0 -244 111v-473h-123v1366h123v-596q0 -61 15 -112.5t45.5 -94t83.5 -66.5t123 -24q127 0 201.5 85t74.5 212v596h123v-791q0 -100 12 -186h-117q-10 38 -10 137v15q-38 -78 -117.5 -128.5t-189.5 -50.5z" />
    <glyph glyph-name="paragraph" unicode="&#xb6;" horiz-adv-x="1257" 
d="M639 1350v-1739h-111v1059h-67q-160 0 -275.5 114t-115.5 275q0 172 126 282.5t318 110.5h651v-102h-188v-1739h-111v1739h-227z" />
    <glyph glyph-name="periodcentered" unicode="&#xb7;" horiz-adv-x="497" 
d="M141 582q0 44 31.5 76t75.5 32q47 0 77.5 -31.5t30.5 -76.5t-30.5 -76t-77.5 -31q-44 0 -75.5 31.5t-31.5 75.5z" />
    <glyph glyph-name="cedilla" unicode="&#xb8;" horiz-adv-x="626" 
d="M246 -195l-49 60l98 151h98l-88 -131q21 9 49 9q81 0 131 -43.5t50 -112.5q0 -75 -57.5 -121.5t-164.5 -46.5q-69 0 -128.5 27.5t-92.5 68.5l55 66q64 -80 164 -80q60 0 93.5 22.5t33.5 63.5q0 39 -30 61.5t-86 22.5q-46 0 -76 -17z" />
    <glyph glyph-name="onesuperior" unicode="&#xb9;" horiz-adv-x="444" 
d="M338 711h-105v585q-27 -30 -74.5 -50.5t-103.5 -24.5v79q75 10 123.5 53t59.5 101h100v-743z" />
    <glyph glyph-name="ordmasculine" unicode="&#xba;" horiz-adv-x="892" 
d="M446 1257q-101 0 -171 -73t-70 -197t70 -198t171 -74t171.5 74t70.5 198t-70.5 197t-171.5 73zM446 623q-148 0 -246 101.5t-98 262.5q0 160 98 261.5t246 101.5t246.5 -101.5t98.5 -261.5q0 -161 -98.5 -262.5t-246.5 -101.5z" />
    <glyph glyph-name="guillemotright" unicode="&#xbb;" horiz-adv-x="952" 
d="M582 195h-123l270 391l-270 391h123l272 -391zM236 195h-123l270 391l-270 391h123l272 -391z" />
    <glyph glyph-name="onequarter" unicode="&#xbc;" horiz-adv-x="1515" 
d="M375 584h-105v585q-27 -30 -74.5 -50.5t-103.5 -24.5v80q75 10 123 52.5t59 100.5h101v-743zM801 168v104l368 471h125v-483h146v-92h-146v-168h-104v168h-389zM1190 260v367l-287 -367h287zM274 0h-122l968 1327h121z" />
    <glyph glyph-name="onehalf" unicode="&#xbd;" horiz-adv-x="1558" 
d="M371 584h-105v585q-27 -30 -74.5 -50.5t-103.5 -24.5v80q75 10 123 52.5t59 100.5h101v-743zM270 0h-123l969 1327h121zM1042 467l-102 6q-4 28 -4 49q0 98 72 166t190 68q115 0 185.5 -65.5t70.5 -160.5q0 -129 -147 -221l-152 -94q-84 -55 -94 -125h401v-90h-528v10
q0 177 160 277l141 86q113 70 113 159q0 57 -41.5 96.5t-110.5 39.5q-70 0 -114 -41.5t-44 -112.5q0 -15 4 -47z" />
    <glyph glyph-name="threequarters" unicode="&#xbe;" horiz-adv-x="1693" 
d="M332 944l-45 80l233 213h-399v90h536v-86l-237 -213q3 0 9 1t9 1q100 -5 168 -61.5t68 -157.5t-79 -171.5t-204 -70.5q-122 0 -200.5 61t-90.5 156l95 35q6 -73 62 -118.5t132 -45.5q78 0 128 44t50 110q0 69 -49 106t-121 37q-32 0 -65 -10zM979 168v104l369 471h125
v-483h145v-92h-145v-168h-105v168h-389zM1368 260v367l-287 -367h287zM467 0h-123l969 1327h121z" />
    <glyph glyph-name="questiondown" unicode="&#xbf;" horiz-adv-x="980" 
d="M457 602h112q6 -23 6 -78q0 -98 -35 -169.5t-112 -131.5l-90 -69q-141 -106 -141 -252q0 -115 76.5 -196t211.5 -81q99 0 169.5 44t102 110.5t31.5 146.5q0 49 -16 111l125 -19q16 -50 16 -104q0 -75 -26.5 -145t-77 -128.5t-135 -94t-189.5 -35.5q-127 0 -224 56.5
t-145 144t-48 188.5q0 203 204 352l93 67q96 69 96 218q0 29 -4 65zM512 997q43 0 72.5 -29.5t29.5 -70.5q0 -43 -29.5 -72.5t-72.5 -29.5t-72.5 29.5t-29.5 72.5q0 41 29.5 70.5t72.5 29.5z" />
    <glyph glyph-name="Agrave" unicode="&#xc0;" horiz-adv-x="1421" 
d="M1237 0l-180 449h-695l-178 -449h-139l588 1452h155l588 -1452h-139zM709 1323l-299 -756h600zM645 1554l-274 244h172l219 -244h-117z" />
    <glyph glyph-name="Aacute" unicode="&#xc1;" horiz-adv-x="1421" 
d="M1237 0l-180 449h-695l-178 -449h-139l588 1452h155l588 -1452h-139zM709 1323l-299 -756h600zM1049 1798l-275 -244h-117l220 244h172z" />
    <glyph glyph-name="Acircumflex" unicode="&#xc2;" horiz-adv-x="1421" 
d="M1237 0l-180 449h-695l-178 -449h-139l588 1452h155l588 -1452h-139zM709 1323l-299 -756h600zM510 1554h-121l236 244h168l237 -244h-121l-200 172z" />
    <glyph glyph-name="Atilde" unicode="&#xc3;" horiz-adv-x="1421" 
d="M1237 0l-180 449h-695l-178 -449h-139l588 1452h155l588 -1452h-139zM709 1323l-299 -756h600zM1026 1784v-23q0 -94 -49.5 -146t-122.5 -52q-67 0 -135 47l-43 30q-59 41 -103 41q-79 0 -79 -112h-97v24q0 91 50 143t126 52q75 0 148 -55l37 -27q50 -37 92 -37
q80 0 80 115h96z" />
    <glyph glyph-name="Adieresis" unicode="&#xc4;" horiz-adv-x="1421" 
d="M866 1677q0 37 25.5 62.5t62.5 25.5t62.5 -25.5t25.5 -62.5t-25.5 -62.5t-62.5 -25.5t-62.5 25.5t-25.5 62.5zM379 1677q0 37 25.5 62.5t62.5 25.5t62.5 -25.5t25.5 -62.5t-25.5 -62.5t-62.5 -25.5t-62.5 25.5t-25.5 62.5zM1237 0l-180 449h-695l-178 -449h-139l588 1452
h155l588 -1452h-139zM709 1323l-299 -756h600z" />
    <glyph glyph-name="Aring" unicode="&#xc5;" horiz-adv-x="1421" 
d="M709 1323l-299 -756h600zM827 1573q0 54 -33.5 88.5t-84.5 34.5q-50 0 -83.5 -34.5t-33.5 -88.5q0 -53 33.5 -87t83.5 -34q51 0 84.5 33.5t33.5 87.5zM926 1573q0 -58 -32 -107.5t-81 -76.5l563 -1389h-139l-180 449h-695l-178 -449h-139l563 1386q-52 27 -83 76.5
t-31 110.5q0 90 64 152.5t153 62.5q88 0 151.5 -62.5t63.5 -152.5z" />
    <glyph glyph-name="AE" unicode="&#xc6;" horiz-adv-x="2004" 
d="M1890 0h-856v449h-579l-293 -449h-162l967 1452h923v-119h-725v-547h662v-118h-662v-549h725v-119zM1034 1335l-502 -768h502v768z" />
    <glyph glyph-name="Ccedilla" unicode="&#xc7;" horiz-adv-x="1527" 
d="M764 -195l-49 60l69 108q-105 5 -204 39t-185 98t-150.5 151.5t-101.5 207t-37 256.5q0 141 39.5 264t108 211.5t159 152t193.5 95t211 31.5q241 0 408 -126.5t217 -336.5l-117 -41q-43 181 -177 283t-331 102q-89 0 -173.5 -25.5t-158 -78.5t-128.5 -127.5t-87 -178.5
t-32 -225q0 -150 48.5 -272.5t130.5 -200t185 -119t215 -41.5q199 0 336 107t182 284l113 -41q-50 -194 -200 -321t-363 -144l-62 -92q21 9 49 9q81 0 131 -43.5t50 -112.5q0 -75 -57.5 -121.5t-164.5 -46.5q-69 0 -128.5 27.5t-92.5 68.5l56 66q64 -80 163 -80
q60 0 93.5 22.5t33.5 63.5q0 39 -30 61.5t-86 22.5q-46 0 -76 -17z" />
    <glyph glyph-name="Egrave" unicode="&#xc8;" horiz-adv-x="1177" 
d="M629 1554l-275 244h172l219 -244h-116zM1063 0h-856v1452h856v-119h-725v-547h661v-118h-661v-549h725v-119z" />
    <glyph glyph-name="Eacute" unicode="&#xc9;" horiz-adv-x="1177" 
d="M905 1798l-274 -244h-117l219 244h172zM1063 0h-856v1452h856v-119h-725v-547h661v-118h-661v-549h725v-119z" />
    <glyph glyph-name="Ecircumflex" unicode="&#xca;" horiz-adv-x="1177" 
d="M438 1554h-121l236 244h168l237 -244h-120l-201 172zM1063 0h-856v1452h856v-119h-725v-547h661v-118h-661v-549h725v-119z" />
    <glyph glyph-name="Edieresis" unicode="&#xcb;" horiz-adv-x="1177" 
d="M1063 0h-856v1452h856v-119h-725v-547h661v-118h-661v-549h725v-119zM342 1677q0 37 25.5 62.5t62.5 25.5t62.5 -25.5t25.5 -62.5t-25.5 -62.5t-62.5 -25.5t-62.5 25.5t-25.5 62.5zM760 1677q0 37 25.5 62.5t62.5 25.5t62.5 -25.5t25.5 -62.5t-25.5 -62.5t-62.5 -25.5
t-62.5 25.5t-25.5 62.5z" />
    <glyph glyph-name="Igrave" unicode="&#xcc;" horiz-adv-x="544" 
d="M338 0h-131v1452h131v-1452zM213 1554l-274 244h172l219 -244h-117z" />
    <glyph glyph-name="Iacute" unicode="&#xcd;" horiz-adv-x="544" 
d="M338 0h-131v1452h131v-1452zM606 1798l-274 -244h-117l219 244h172z" />
    <glyph glyph-name="Icircumflex" unicode="&#xce;" horiz-adv-x="544" 
d="M338 0h-131v1452h131v-1452zM74 1554h-121l235 244h168l238 -244h-121l-201 172z" />
    <glyph glyph-name="Idieresis" unicode="&#xcf;" horiz-adv-x="544" 
d="M338 0h-131v1452h131v-1452zM55 1677q0 35 23.5 58.5t58.5 23.5t58.5 -23.5t23.5 -58.5t-23.5 -58.5t-58.5 -23.5t-58.5 23.5t-23.5 58.5zM328 1677q0 35 23.5 58.5t58.5 23.5t58.5 -23.5t23.5 -58.5t-23.5 -58.5t-58.5 -23.5t-58.5 23.5t-23.5 58.5z" />
    <glyph glyph-name="Eth" unicode="&#xd0;" horiz-adv-x="1460" 
d="M657 0h-448v694h-160v111h160v647h453q111 0 213 -30t189 -90.5t151 -146.5t100.5 -204.5t36.5 -257.5q0 -173 -56.5 -312.5t-153 -228t-221 -135.5t-264.5 -47zM338 115h315q115 0 216 38.5t179.5 112.5t124.5 191.5t46 265.5q0 149 -45 267.5t-122.5 193t-178.5 114
t-216 39.5h-319v-532h293v-111h-293v-579z" />
    <glyph glyph-name="Ntilde" unicode="&#xd1;" horiz-adv-x="1562" 
d="M1110 1784v-23q0 -94 -49.5 -146t-122.5 -52q-67 0 -135 47l-43 30q-59 41 -103 41q-79 0 -79 -112h-97v24q0 91 50 143t126 52q75 0 148 -55l37 -27q50 -37 92 -37q80 0 80 115h96zM1356 0h-139l-879 1290v-1290h-131v1452h180l838 -1239v1239h131v-1452z" />
    <glyph glyph-name="Ograve" unicode="&#xd2;" horiz-adv-x="1632" 
d="M772 1554l-274 244h172l219 -244h-117zM238 725q0 -150 48 -272.5t129.5 -200t184 -119t215.5 -41.5q112 0 215 41.5t185 119t131 200t49 272.5q0 151 -49 274t-131 200.5t-185 119t-215 41.5q-113 0 -215.5 -41.5t-184 -119t-129.5 -200.5t-48 -274zM106 725
q0 176 60.5 321.5t161 238.5t226.5 143.5t261 50.5q107 0 210 -31.5t193.5 -95t159 -152t108.5 -211.5t40 -264t-40 -264t-108.5 -211t-159 -151.5t-193.5 -94.5t-210 -31q-108 0 -210.5 31t-193 94.5t-158.5 152t-107.5 211t-39.5 263.5z" />
    <glyph glyph-name="Oacute" unicode="&#xd3;" horiz-adv-x="1632" 
d="M1133 1798l-275 -244h-117l220 244h172zM238 725q0 -150 48 -272.5t129.5 -200t184 -119t215.5 -41.5q112 0 215 41.5t185 119t131 200t49 272.5q0 151 -49 274t-131 200.5t-185 119t-215 41.5q-113 0 -215.5 -41.5t-184 -119t-129.5 -200.5t-48 -274zM106 725
q0 176 60.5 321.5t161 238.5t226.5 143.5t261 50.5q107 0 210 -31.5t193.5 -95t159 -152t108.5 -211.5t40 -264t-40 -264t-108.5 -211t-159 -151.5t-193.5 -94.5t-210 -31q-108 0 -210.5 31t-193 94.5t-158.5 152t-107.5 211t-39.5 263.5z" />
    <glyph glyph-name="Ocircumflex" unicode="&#xd4;" horiz-adv-x="1632" 
d="M616 1554h-120l235 244h168l238 -244h-121l-201 172zM238 725q0 -150 48 -272.5t129.5 -200t184 -119t215.5 -41.5q112 0 215 41.5t185 119t131 200t49 272.5q0 151 -49 274t-131 200.5t-185 119t-215 41.5q-113 0 -215.5 -41.5t-184 -119t-129.5 -200.5t-48 -274z
M106 725q0 176 60.5 321.5t161 238.5t226.5 143.5t261 50.5q107 0 210 -31.5t193.5 -95t159 -152t108.5 -211.5t40 -264t-40 -264t-108.5 -211t-159 -151.5t-193.5 -94.5t-210 -31q-108 0 -210.5 31t-193 94.5t-158.5 152t-107.5 211t-39.5 263.5z" />
    <glyph glyph-name="Otilde" unicode="&#xd5;" horiz-adv-x="1632" 
d="M1133 1784v-23q0 -94 -49.5 -146t-122.5 -52q-68 0 -136 47l-43 30q-59 41 -102 41q-80 0 -80 -112h-96v24q0 91 50 143t126 52q74 0 147 -55l37 -27q50 -37 92 -37q80 0 80 115h97zM238 725q0 -150 48 -272.5t129.5 -200t184 -119t215.5 -41.5q112 0 215 41.5t185 119
t131 200t49 272.5q0 151 -49 274t-131 200.5t-185 119t-215 41.5q-113 0 -215.5 -41.5t-184 -119t-129.5 -200.5t-48 -274zM106 725q0 176 60.5 321.5t161 238.5t226.5 143.5t261 50.5q107 0 210 -31.5t193.5 -95t159 -152t108.5 -211.5t40 -264t-40 -264t-108.5 -211
t-159 -151.5t-193.5 -94.5t-210 -31q-108 0 -210.5 31t-193 94.5t-158.5 152t-107.5 211t-39.5 263.5z" />
    <glyph glyph-name="Odieresis" unicode="&#xd6;" horiz-adv-x="1632" 
d="M436 1677q0 37 25.5 62.5t62.5 25.5t62.5 -25.5t25.5 -62.5t-25.5 -62.5t-62.5 -25.5t-62.5 25.5t-25.5 62.5zM1018 1677q0 37 25.5 62.5t62.5 25.5t62.5 -25.5t25.5 -62.5t-25.5 -62.5t-62.5 -25.5t-62.5 25.5t-25.5 62.5zM238 725q0 -150 48 -272.5t129.5 -200
t184 -119t215.5 -41.5q112 0 215 41.5t185 119t131 200t49 272.5q0 151 -49 274t-131 200.5t-185 119t-215 41.5q-113 0 -215.5 -41.5t-184 -119t-129.5 -200.5t-48 -274zM106 725q0 176 60.5 321.5t161 238.5t226.5 143.5t261 50.5q107 0 210 -31.5t193.5 -95t159 -152
t108.5 -211.5t40 -264t-40 -264t-108.5 -211t-159 -151.5t-193.5 -94.5t-210 -31q-108 0 -210.5 31t-193 94.5t-158.5 152t-107.5 211t-39.5 263.5z" />
    <glyph glyph-name="multiply" unicode="&#xd7;" horiz-adv-x="1091" 
d="M985 969l-367 -381l367 -381l-74 -76l-366 381l-365 -377l-74 74l365 379l-362 379l73 75l363 -378l364 378z" />
    <glyph glyph-name="Oslash" unicode="&#xd8;" horiz-adv-x="1632" 
d="M106 725q0 176 60.5 321.5t161 238.5t226.5 143.5t261 50.5q234 0 424 -142l152 197l88 -66l-158 -202q205 -215 205 -541q0 -141 -40 -264t-108.5 -211t-159 -151.5t-193.5 -94.5t-210 -31q-215 0 -401 123l-144 -184l-88 65l146 189q-222 215 -222 559zM238 725
q0 -286 165 -461l762 979q-146 117 -350 117q-113 0 -215.5 -41.5t-184 -119t-129.5 -200.5t-48 -274zM1395 725q0 267 -152 442l-756 -974q143 -101 328 -101q112 0 215 41.5t185 119t131 200t49 272.5z" />
    <glyph glyph-name="Ugrave" unicode="&#xd9;" horiz-adv-x="1376" 
d="M680 1554l-274 244h172l219 -244h-117zM688 -27q-227 0 -362.5 132.5t-135.5 377.5v969h132v-963q0 -193 93.5 -295t272.5 -102t273 102t94 295v963h131v-969q0 -242 -135.5 -376t-362.5 -134z" />
    <glyph glyph-name="Uacute" unicode="&#xda;" horiz-adv-x="1376" 
d="M971 1798l-275 -244h-116l219 244h172zM688 -27q-227 0 -362.5 132.5t-135.5 377.5v969h132v-963q0 -193 93.5 -295t272.5 -102t273 102t94 295v963h131v-969q0 -242 -135.5 -376t-362.5 -134z" />
    <glyph glyph-name="Ucircumflex" unicode="&#xdb;" horiz-adv-x="1376" 
d="M489 1554h-120l235 244h168l238 -244h-121l-201 172zM688 -27q-227 0 -362.5 132.5t-135.5 377.5v969h132v-963q0 -193 93.5 -295t272.5 -102t273 102t94 295v963h131v-969q0 -242 -135.5 -376t-362.5 -134z" />
    <glyph glyph-name="Udieresis" unicode="&#xdc;" horiz-adv-x="1376" 
d="M399 1677q0 37 25.5 62.5t62.5 25.5t62.5 -25.5t25.5 -62.5t-25.5 -62.5t-62.5 -25.5t-62.5 25.5t-25.5 62.5zM807 1677q0 37 25.5 62.5t62.5 25.5t62.5 -25.5t25.5 -62.5t-25.5 -62.5t-62.5 -25.5t-62.5 25.5t-25.5 62.5zM688 -27q-227 0 -362.5 132.5t-135.5 377.5v969
h132v-963q0 -193 93.5 -295t272.5 -102t273 102t94 295v963h131v-969q0 -242 -135.5 -376t-362.5 -134z" />
    <glyph glyph-name="Yacute" unicode="&#xdd;" horiz-adv-x="1261" 
d="M567 621l-508 831h154l418 -711l420 711h151l-508 -831v-621h-127v621zM911 1798l-274 -244h-117l219 244h172z" />
    <glyph glyph-name="Thorn" unicode="&#xde;" horiz-adv-x="1200" 
d="M338 0h-131v1452h131v-299h348q198 0 321 -119t123 -301t-122.5 -300t-321.5 -118h-348v-315zM338 432h328q154 0 243.5 82.5t89.5 218.5q0 137 -89.5 220t-243.5 83h-328v-604z" />
    <glyph glyph-name="germandbls" unicode="&#xdf;" horiz-adv-x="1116" 
d="M678 702q0 -14 4 -25t20 -24.5t21.5 -17t33.5 -20.5q7 -5 11 -7l78 -41q90 -45 144 -121t54 -174q0 -54 -20 -106.5t-58 -96t-100 -70t-139 -26.5q-82 0 -145 27t-99 71t-54.5 91t-20.5 96l114 29q0 -33 12 -68t35 -67t64.5 -52t93.5 -20q92 0 143.5 55t51.5 127
q0 129 -144 205l-78 41q-145 70 -145 190q0 104 102 174l78 54q117 76 117 204q0 101 -72.5 169.5t-197.5 68.5q-127 0 -211 -97t-84 -270v-1001h-123v1008q0 109 33 199t89.5 149t132.5 91t163 32q177 0 285 -98.5t108 -247.5q0 -182 -160 -289l-76 -51
q-32 -20 -46.5 -40.5t-14.5 -50.5z" />
    <glyph glyph-name="agrave" unicode="&#xe0;" horiz-adv-x="1024" 
d="M412 -25q-147 0 -233.5 82.5t-86.5 194.5q0 122 77.5 195t215.5 94l260 39q59 10 81 32.5t22 61.5q0 101 -63.5 161t-182.5 60q-117 0 -190 -60.5t-85 -166.5l-114 24q17 139 123.5 224t263.5 85q182 0 276 -94.5t94 -244.5v-494q0 -91 15 -168h-121q-12 46 -12 168
q-36 -77 -126.5 -135t-213.5 -58zM426 80q143 0 232.5 86.5t89.5 232.5v111q-16 -16 -72 -25l-273 -41q-88 -12 -137 -60t-49 -126q0 -72 55.5 -125t153.5 -53zM471 1100l-242 284h156l182 -284h-96z" />
    <glyph glyph-name="aacute" unicode="&#xe1;" horiz-adv-x="1024" 
d="M412 -25q-147 0 -233.5 82.5t-86.5 194.5q0 122 77.5 195t215.5 94l260 39q59 10 81 32.5t22 61.5q0 101 -63.5 161t-182.5 60q-117 0 -190 -60.5t-85 -166.5l-114 24q17 139 123.5 224t263.5 85q182 0 276 -94.5t94 -244.5v-494q0 -91 15 -168h-121q-12 46 -12 168
q-36 -77 -126.5 -135t-213.5 -58zM426 80q143 0 232.5 86.5t89.5 232.5v111q-16 -16 -72 -25l-273 -41q-88 -12 -137 -60t-49 -126q0 -72 55.5 -125t153.5 -53zM782 1384l-241 -284h-101l183 284h159z" />
    <glyph glyph-name="acircumflex" unicode="&#xe2;" horiz-adv-x="1024" 
d="M322 1102h-111l225 280h148l225 -280h-111l-188 203zM412 -25q-147 0 -233.5 82.5t-86.5 194.5q0 122 77.5 195t215.5 94l260 39q59 10 81 32.5t22 61.5q0 101 -63.5 161t-182.5 60q-117 0 -190 -60.5t-85 -166.5l-114 24q17 139 123.5 224t263.5 85q182 0 276 -94.5
t94 -244.5v-494q0 -91 15 -168h-121q-12 46 -12 168q-36 -77 -126.5 -135t-213.5 -58zM426 80q143 0 232.5 86.5t89.5 232.5v111q-16 -16 -72 -25l-273 -41q-88 -12 -137 -60t-49 -126q0 -72 55.5 -125t153.5 -53z" />
    <glyph glyph-name="atilde" unicode="&#xe3;" horiz-adv-x="1024" 
d="M412 -25q-147 0 -233.5 82.5t-86.5 194.5q0 122 77.5 195t215.5 94l260 39q59 10 81 32.5t22 61.5q0 101 -63.5 161t-182.5 60q-117 0 -190 -60.5t-85 -166.5l-114 24q17 139 123.5 224t263.5 85q182 0 276 -94.5t94 -244.5v-494q0 -91 15 -168h-121q-12 46 -12 168
q-36 -77 -126.5 -135t-213.5 -58zM426 80q143 0 232.5 86.5t89.5 232.5v111q-16 -16 -72 -25l-273 -41q-88 -12 -137 -60t-49 -126q0 -72 55.5 -125t153.5 -53zM821 1350v-23q0 -94 -48.5 -146.5t-121.5 -52.5q-64 0 -133 48l-43 30q-59 41 -100 41q-78 0 -78 -112h-96v24
q0 91 49 143t125 52q71 0 145 -56l37 -26q50 -37 90 -37q78 0 78 115h96z" />
    <glyph glyph-name="adieresis" unicode="&#xe4;" horiz-adv-x="1024" 
d="M596 1251q0 35 25.5 60.5t60.5 25.5t60.5 -25.5t25.5 -60.5t-25.5 -60.5t-60.5 -25.5t-60.5 25.5t-25.5 60.5zM236 1251q0 35 25.5 60.5t60.5 25.5t60.5 -25.5t25.5 -60.5t-25.5 -60.5t-60.5 -25.5t-60.5 25.5t-25.5 60.5zM412 -25q-147 0 -233.5 82.5t-86.5 194.5
q0 122 77.5 195t215.5 94l260 39q59 10 81 32.5t22 61.5q0 101 -63.5 161t-182.5 60q-117 0 -190 -60.5t-85 -166.5l-114 24q17 139 123.5 224t263.5 85q182 0 276 -94.5t94 -244.5v-494q0 -91 15 -168h-121q-12 46 -12 168q-36 -77 -126.5 -135t-213.5 -58zM426 80
q143 0 232.5 86.5t89.5 232.5v111q-16 -16 -72 -25l-273 -41q-88 -12 -137 -60t-49 -126q0 -72 55.5 -125t153.5 -53z" />
    <glyph glyph-name="aring" unicode="&#xe5;" horiz-adv-x="1024" 
d="M412 -25q-147 0 -233.5 82.5t-86.5 194.5q0 122 77.5 195t215.5 94l260 39q59 10 81 32.5t22 61.5q0 101 -63.5 161t-182.5 60q-117 0 -190 -60.5t-85 -166.5l-114 24q17 139 123.5 224t263.5 85q182 0 276 -94.5t94 -244.5v-494q0 -91 15 -168h-121q-12 46 -12 168
q-36 -77 -126.5 -135t-213.5 -58zM426 80q143 0 232.5 86.5t89.5 232.5v111q-16 -16 -72 -25l-273 -41q-88 -12 -137 -60t-49 -126q0 -72 55.5 -125t153.5 -53zM719 1300q0 -90 -62.5 -152.5t-152.5 -62.5q-88 0 -151.5 62.5t-63.5 152.5q0 89 63.5 152.5t151.5 63.5
q89 0 152 -63.5t63 -152.5zM629 1300q0 55 -35.5 92.5t-89.5 37.5t-89.5 -37.5t-35.5 -92.5q0 -54 35.5 -91.5t89.5 -37.5t89.5 37.5t35.5 91.5z" />
    <glyph glyph-name="ae" unicode="&#xe6;" horiz-adv-x="1746" 
d="M428 78q143 0 232.5 87t89.5 234v119q-11 -11 -52 -23.5t-77 -17.5l-220 -33q-87 -12 -134.5 -59.5t-47.5 -126.5q0 -74 55.5 -127t153.5 -53zM877 567h651q-5 141 -91.5 233.5t-234.5 92.5q-134 0 -225.5 -94.5t-99.5 -231.5zM414 -27q-147 0 -234.5 83.5t-87.5 195.5
q0 121 77.5 193t217.5 96l260 39q57 10 80 34t23 62q0 100 -65 160.5t-181 60.5q-117 0 -189.5 -61.5t-83.5 -167.5l-118 26q17 140 125 225t264 85q131 0 217.5 -51t124.5 -140q61 92 154 141.5t202 49.5q210 0 333.5 -137.5t123.5 -356.5q0 -29 -2 -45h-783v-25
q4 -159 106 -257.5t245 -98.5q124 0 205 64t114 167l109 -39q-44 -133 -155.5 -218t-272.5 -85q-135 0 -244 65t-170 187q-46 -111 -144.5 -181.5t-250.5 -70.5z" />
    <glyph glyph-name="ccedilla" unicode="&#xe7;" horiz-adv-x="1083" 
d="M516 -195l-49 60l72 110q-194 12 -318.5 155.5t-124.5 356.5q0 226 136 371.5t343 145.5q166 0 274.5 -88t143.5 -220l-108 -45q-13 47 -36.5 87t-60 76.5t-91.5 57.5t-122 21q-151 0 -253.5 -110.5t-102.5 -295.5q0 -181 102.5 -292t253.5 -111q66 0 122.5 22t94.5 58.5
t63 76.5t38 83l108 -45q-35 -114 -129.5 -200t-234.5 -102l-62 -92q21 9 50 9q81 0 130.5 -43.5t49.5 -112.5q0 -75 -57 -121.5t-164 -46.5q-69 0 -129 27.5t-93 68.5l56 66q64 -80 164 -80q60 0 93.5 22.5t33.5 63.5q0 39 -30.5 61.5t-86.5 22.5q-46 0 -76 -17z" />
    <glyph glyph-name="egrave" unicode="&#xe8;" horiz-adv-x="1095" 
d="M225 567h652q-5 141 -91.5 233.5t-234.5 92.5q-134 0 -226 -94.5t-100 -231.5zM891 315l108 -39q-44 -133 -155.5 -218t-272.5 -85q-97 0 -183 35.5t-151 100.5t-103 164t-38 219q0 148 62.5 266.5t165.5 182t225 63.5q210 0 333.5 -137.5t123.5 -356.5q0 -29 -2 -45
h-783v-8q0 -164 102 -268.5t248 -104.5q124 0 205.5 64t114.5 167zM522 1100l-241 284h155l182 -284h-96z" />
    <glyph glyph-name="eacute" unicode="&#xe9;" horiz-adv-x="1095" 
d="M846 1384l-242 -284h-100l182 284h160zM225 567h652q-5 141 -91.5 233.5t-234.5 92.5q-134 0 -226 -94.5t-100 -231.5zM891 315l108 -39q-44 -133 -155.5 -218t-272.5 -85q-97 0 -183 35.5t-151 100.5t-103 164t-38 219q0 148 62.5 266.5t165.5 182t225 63.5
q210 0 333.5 -137.5t123.5 -356.5q0 -29 -2 -45h-783v-8q0 -164 102 -268.5t248 -104.5q124 0 205.5 64t114.5 167z" />
    <glyph glyph-name="ecircumflex" unicode="&#xea;" horiz-adv-x="1095" 
d="M362 1102h-110l225 280h148l225 -280h-111l-188 203zM225 567h652q-5 141 -91.5 233.5t-234.5 92.5q-134 0 -226 -94.5t-100 -231.5zM891 315l108 -39q-44 -133 -155.5 -218t-272.5 -85q-97 0 -183 35.5t-151 100.5t-103 164t-38 219q0 148 62.5 266.5t165.5 182
t225 63.5q210 0 333.5 -137.5t123.5 -356.5q0 -29 -2 -45h-783v-8q0 -164 102 -268.5t248 -104.5q124 0 205.5 64t114.5 167z" />
    <glyph glyph-name="edieresis" unicode="&#xeb;" horiz-adv-x="1095" 
d="M647 1251q0 35 25.5 60.5t60.5 25.5t60.5 -25.5t25.5 -60.5t-25.5 -60.5t-60.5 -25.5t-60.5 25.5t-25.5 60.5zM287 1251q0 35 25.5 60.5t60.5 25.5t60.5 -25.5t25.5 -60.5t-25.5 -60.5t-60.5 -25.5t-60.5 25.5t-25.5 60.5zM225 567h652q-5 141 -91.5 233.5t-234.5 92.5
q-134 0 -226 -94.5t-100 -231.5zM891 315l108 -39q-44 -133 -155.5 -218t-272.5 -85q-97 0 -183 35.5t-151 100.5t-103 164t-38 219q0 148 62.5 266.5t165.5 182t225 63.5q210 0 333.5 -137.5t123.5 -356.5q0 -29 -2 -45h-783v-8q0 -164 102 -268.5t248 -104.5
q124 0 205.5 64t114.5 167z" />
    <glyph glyph-name="igrave" unicode="&#xec;" horiz-adv-x="450" 
d="M287 0h-123v977h123v-977zM184 1100l-241 284h155l183 -284h-97z" />
    <glyph glyph-name="iacute" unicode="&#xed;" horiz-adv-x="450" 
d="M516 1384l-242 -284h-100l182 284h160zM287 0h-123v977h123v-977z" />
    <glyph glyph-name="icircumflex" unicode="&#xee;" horiz-adv-x="450" 
d="M37 1102h-111l226 280h147l225 -280h-110l-189 203zM287 0h-123v977h123v-977z" />
    <glyph glyph-name="idieresis" unicode="&#xef;" horiz-adv-x="450" 
d="M287 0h-123v977h123v-977zM14 1249q0 35 23.5 58.5t58.5 23.5t58.5 -23.5t23.5 -58.5t-23.5 -58.5t-58.5 -23.5t-58.5 23.5t-23.5 58.5zM272 1249q0 35 23.5 58.5t58.5 23.5t58.5 -23.5t23.5 -58.5t-23.5 -58.5t-58.5 -23.5t-58.5 23.5t-23.5 58.5z" />
    <glyph glyph-name="eth" unicode="&#xf0;" horiz-adv-x="1159" 
d="M961 1331l-195 -96q131 -130 208 -312t77 -401q0 -157 -55.5 -280.5t-165 -196t-257.5 -72.5q-209 0 -343 140.5t-134 351.5q0 109 38.5 201t103 153t147 95t172.5 34q107 0 193 -39.5t139 -117.5q-62 225 -234 389l-272 -138l-39 84l227 113q-126 97 -280 139l39 101
q189 -49 358 -181l232 117zM573 84q158 0 256.5 112t98.5 287q0 160 -104 257.5t-251 97.5q-95 0 -175 -43t-129.5 -129.5t-49.5 -200.5q0 -170 101.5 -275.5t252.5 -105.5z" />
    <glyph glyph-name="ntilde" unicode="&#xf1;" horiz-adv-x="1099" 
d="M881 1350v-23q0 -94 -48.5 -146.5t-121.5 -52.5q-64 0 -133 48l-43 30q-59 41 -101 41q-78 0 -78 -112h-96v24q0 91 49 143t125 52q72 0 146 -56l36 -26q50 -37 91 -37q77 0 77 115h97zM287 584v-584h-123v977h119v-156q43 81 125.5 130.5t191.5 49.5q166 0 256 -102.5
t90 -261.5v-637h-123v616q0 124 -65 199.5t-199 75.5q-124 0 -198 -89t-74 -218z" />
    <glyph glyph-name="ograve" unicode="&#xf2;" horiz-adv-x="1163" 
d="M537 1100l-242 284h156l182 -284h-96zM582 -27q-205 0 -345.5 145t-140.5 369q0 227 139 370.5t347 143.5q100 0 189.5 -37.5t154.5 -104t103 -163t38 -209.5q0 -224 -140 -369t-345 -145zM221 487q0 -183 106 -293t255 -110t254.5 110t105.5 293q0 185 -105.5 294.5
t-254.5 109.5q-72 0 -137 -27.5t-115 -78t-79.5 -128t-29.5 -170.5z" />
    <glyph glyph-name="oacute" unicode="&#xf3;" horiz-adv-x="1163" 
d="M850 1384l-242 -284h-100l182 284h160zM582 -27q-205 0 -345.5 145t-140.5 369q0 227 139 370.5t347 143.5q100 0 189.5 -37.5t154.5 -104t103 -163t38 -209.5q0 -224 -140 -369t-345 -145zM221 487q0 -183 106 -293t255 -110t254.5 110t105.5 293q0 185 -105.5 294.5
t-254.5 109.5q-72 0 -137 -27.5t-115 -78t-79.5 -128t-29.5 -170.5z" />
    <glyph glyph-name="ocircumflex" unicode="&#xf4;" horiz-adv-x="1163" 
d="M387 1102h-111l226 280h147l225 -280h-110l-189 203zM582 -27q-205 0 -345.5 145t-140.5 369q0 227 139 370.5t347 143.5q100 0 189.5 -37.5t154.5 -104t103 -163t38 -209.5q0 -224 -140 -369t-345 -145zM221 487q0 -183 106 -293t255 -110t254.5 110t105.5 293
q0 185 -105.5 294.5t-254.5 109.5q-72 0 -137 -27.5t-115 -78t-79.5 -128t-29.5 -170.5z" />
    <glyph glyph-name="otilde" unicode="&#xf5;" horiz-adv-x="1163" 
d="M582 -27q-205 0 -345.5 145t-140.5 369q0 227 139 370.5t347 143.5q100 0 189.5 -37.5t154.5 -104t103 -163t38 -209.5q0 -224 -140 -369t-345 -145zM221 487q0 -183 106 -293t255 -110t254.5 110t105.5 293q0 185 -105.5 294.5t-254.5 109.5q-72 0 -137 -27.5t-115 -78
t-79.5 -128t-29.5 -170.5zM889 1350v-23q0 -94 -48.5 -146.5t-121.5 -52.5q-64 0 -133 48l-43 30q-59 41 -101 41q-77 0 -77 -112h-97v24q0 91 49 143t125 52q72 0 146 -56l37 -26q50 -37 90 -37q78 0 78 115h96z" />
    <glyph glyph-name="odieresis" unicode="&#xf6;" horiz-adv-x="1163" 
d="M672 1251q0 35 25.5 60.5t60.5 25.5t60.5 -25.5t25.5 -60.5t-25.5 -60.5t-60.5 -25.5t-60.5 25.5t-25.5 60.5zM311 1251q0 35 25.5 60.5t60.5 25.5t60.5 -25.5t25.5 -60.5t-25.5 -60.5t-60.5 -25.5t-60.5 25.5t-25.5 60.5zM582 -27q-205 0 -345.5 145t-140.5 369
q0 227 139 370.5t347 143.5q100 0 189.5 -37.5t154.5 -104t103 -163t38 -209.5q0 -224 -140 -369t-345 -145zM221 487q0 -183 106 -293t255 -110t254.5 110t105.5 293q0 185 -105.5 294.5t-254.5 109.5q-72 0 -137 -27.5t-115 -78t-79.5 -128t-29.5 -170.5z" />
    <glyph glyph-name="divide" unicode="&#xf7;" horiz-adv-x="1187" 
d="M143 535v108h901v-108h-901zM496 952q0 41 28.5 70t69.5 29t69.5 -29t28.5 -70t-28.5 -69.5t-69.5 -28.5t-69.5 28.5t-28.5 69.5zM496 225q0 41 28.5 70t69.5 29t69.5 -29t28.5 -70t-28.5 -69.5t-69.5 -28.5t-69.5 28.5t-28.5 69.5z" />
    <glyph glyph-name="oslash" unicode="&#xf8;" horiz-adv-x="1155" 
d="M575 1004q156 0 277 -89l113 146l79 -64l-116 -149q129 -145 129 -361q0 -148 -64 -266.5t-174 -183t-244 -64.5q-149 0 -268 80l-106 -137l-78 64l108 139q-135 145 -135 368q0 226 137 371.5t342 145.5zM219 487q0 -168 86 -274l477 612q-89 68 -207 68
q-148 0 -252 -111t-104 -295zM575 84q151 0 255 109.5t104 293.5q0 156 -80 267l-475 -611q89 -59 196 -59z" />
    <glyph glyph-name="ugrave" unicode="&#xf9;" horiz-adv-x="1103" 
d="M823 137v15q-38 -78 -117.5 -128.5t-189.5 -50.5q-89 0 -160 31.5t-114.5 86t-66.5 124t-23 147.5v615h122v-594q0 -61 15 -113t45.5 -94.5t83 -67t121.5 -24.5q127 0 201.5 85t74.5 212v596h123v-791q0 -100 12 -186h-116q-11 42 -11 137zM537 1100l-242 284h156
l182 -284h-96z" />
    <glyph glyph-name="uacute" unicode="&#xfa;" horiz-adv-x="1103" 
d="M788 1384l-241 -284h-101l183 284h159zM823 137v15q-38 -78 -117.5 -128.5t-189.5 -50.5q-89 0 -160 31.5t-114.5 86t-66.5 124t-23 147.5v615h122v-594q0 -61 15 -113t45.5 -94.5t83 -67t121.5 -24.5q127 0 201.5 85t74.5 212v596h123v-791q0 -100 12 -186h-116
q-11 42 -11 137z" />
    <glyph glyph-name="ucircumflex" unicode="&#xfb;" horiz-adv-x="1103" 
d="M358 1102h-110l225 280h148l225 -280h-111l-188 203zM823 137v15q-38 -78 -117.5 -128.5t-189.5 -50.5q-89 0 -160 31.5t-114.5 86t-66.5 124t-23 147.5v615h122v-594q0 -61 15 -113t45.5 -94.5t83 -67t121.5 -24.5q127 0 201.5 85t74.5 212v596h123v-791q0 -100 12 -186
h-116q-11 42 -11 137z" />
    <glyph glyph-name="udieresis" unicode="&#xfc;" horiz-adv-x="1103" 
d="M637 1251q0 35 25.5 60.5t60.5 25.5t60.5 -25.5t25.5 -60.5t-25.5 -60.5t-60.5 -25.5t-60.5 25.5t-25.5 60.5zM276 1251q0 35 25.5 60.5t60.5 25.5t61 -25.5t26 -60.5t-26 -60.5t-61 -25.5t-60.5 25.5t-25.5 60.5zM823 137v15q-38 -78 -117.5 -128.5t-189.5 -50.5
q-89 0 -160 31.5t-114.5 86t-66.5 124t-23 147.5v615h122v-594q0 -61 15 -113t45.5 -94.5t83 -67t121.5 -24.5q127 0 201.5 85t74.5 212v596h123v-791q0 -100 12 -186h-116q-11 42 -11 137z" />
    <glyph glyph-name="yacute" unicode="&#xfd;" horiz-adv-x="1026" 
d="M356 -389h-133l244 516l-416 850h137l342 -721l324 721h135zM764 1384l-242 -284h-100l182 284h160z" />
    <glyph glyph-name="thorn" unicode="&#xfe;" horiz-adv-x="1181" 
d="M164 1479h123v-693q20 40 49.5 76t72 69.5t102.5 53t130 19.5q135 0 236.5 -68.5t153.5 -185t52 -261.5q0 -222 -122.5 -369t-323.5 -147q-67 0 -126 18.5t-101.5 50.5t-72.5 67.5t-50 74.5v-573h-123v1868zM961 489q0 174 -94 289t-246 115q-151 0 -243.5 -114.5
t-92.5 -289.5q0 -176 92.5 -290.5t243.5 -114.5q152 0 246 115.5t94 289.5z" />
    <glyph glyph-name="ydieresis" unicode="&#xff;" horiz-adv-x="1026" 
d="M614 1251q0 35 25.5 60.5t60.5 25.5t60.5 -25.5t25.5 -60.5t-25.5 -60.5t-60.5 -25.5t-60.5 25.5t-25.5 60.5zM254 1251q0 35 25.5 60.5t60.5 25.5t60.5 -25.5t25.5 -60.5t-25.5 -60.5t-60.5 -25.5t-60.5 25.5t-25.5 60.5zM356 -389h-133l244 516l-416 850h137l342 -721
l324 721h135z" />
    <glyph glyph-name="Amacron" unicode="&#x100;" horiz-adv-x="1421" 
d="M1237 0l-180 449h-695l-178 -449h-139l588 1452h155l588 -1452h-139zM709 1323l-299 -756h600zM987 1624h-557v107h557v-107z" />
    <glyph glyph-name="amacron" unicode="&#x101;" horiz-adv-x="1024" 
d="M412 -25q-147 0 -233.5 82.5t-86.5 194.5q0 122 77.5 195t215.5 94l260 39q59 10 81 32.5t22 61.5q0 101 -63.5 161t-182.5 60q-117 0 -190 -60.5t-85 -166.5l-114 24q17 139 123.5 224t263.5 85q182 0 276 -94.5t94 -244.5v-494q0 -91 15 -168h-121q-12 46 -12 168
q-36 -77 -126.5 -135t-213.5 -58zM426 80q143 0 232.5 86.5t89.5 232.5v111q-16 -16 -72 -25l-273 -41q-88 -12 -137 -60t-49 -126q0 -72 55.5 -125t153.5 -53zM768 1194h-520v102h520v-102z" />
    <glyph glyph-name="Abreve" unicode="&#x102;" horiz-adv-x="1421" 
d="M1237 0l-180 449h-695l-178 -449h-139l588 1452h155l588 -1452h-139zM709 1323l-299 -756h600zM711 1544q-132 0 -210.5 76t-86.5 182h106q5 -64 54.5 -112t136.5 -48q86 0 134.5 48t53.5 112h107q-8 -106 -85.5 -182t-209.5 -76z" />
    <glyph glyph-name="abreve" unicode="&#x103;" horiz-adv-x="1024" 
d="M412 -25q-147 0 -233.5 82.5t-86.5 194.5q0 122 77.5 195t215.5 94l260 39q59 10 81 32.5t22 61.5q0 101 -63.5 161t-182.5 60q-117 0 -190 -60.5t-85 -166.5l-114 24q17 139 123.5 224t263.5 85q182 0 276 -94.5t94 -244.5v-494q0 -91 15 -168h-121q-12 46 -12 168
q-36 -77 -126.5 -135t-213.5 -58zM426 80q143 0 232.5 86.5t89.5 232.5v111q-16 -16 -72 -25l-273 -41q-88 -12 -137 -60t-49 -126q0 -72 55.5 -125t153.5 -53zM506 1102q-131 0 -209 85t-78 197h96q5 -75 52.5 -128.5t138.5 -53.5t138 53.5t52 128.5h97q0 -112 -78 -197
t-209 -85z" />
    <glyph glyph-name="Aogonek" unicode="&#x104;" horiz-adv-x="1421" 
d="M1237 0l-180 449h-695l-178 -449h-139l588 1452h155l588 -1452q-67 -33 -118.5 -90.5t-51.5 -126.5q0 -57 36 -87t93 -30q37 0 70 10v-90q-40 -16 -92 -16q-91 0 -151 50.5t-60 139.5q0 144 149 240h-14zM709 1323l-299 -756h600z" />
    <glyph glyph-name="aogonek" unicode="&#x105;" horiz-adv-x="1024" 
d="M610 -240q0 144 152 242q-10 42 -10 166q-36 -77 -126.5 -135t-213.5 -58q-147 0 -233.5 82.5t-86.5 194.5q0 122 77.5 195t215.5 94l260 39q59 10 81 32.5t22 61.5q0 101 -63.5 161t-182.5 60q-117 0 -190 -60.5t-85 -166.5l-114 24q17 139 123.5 224t263.5 85
q182 0 276 -94.5t94 -244.5v-494q0 -91 15 -168q-67 -33 -118.5 -90.5t-51.5 -126.5q0 -57 36 -87t93 -30q36 0 69 10v-90q-40 -16 -92 -16q-91 0 -151 50.5t-60 139.5zM426 80q143 0 232.5 86.5t89.5 232.5v111q-16 -16 -72 -25l-273 -41q-88 -12 -137 -60t-49 -126
q0 -72 55.5 -125t153.5 -53z" />
    <glyph glyph-name="Cacute" unicode="&#x106;" horiz-adv-x="1527" 
d="M1116 1798l-274 -244h-117l219 244h172zM817 -27q-109 0 -212 31t-193.5 94.5t-158.5 152t-107.5 211t-39.5 263.5t39.5 264t108 211.5t159 152t193.5 95t211 31.5q241 0 408 -126.5t217 -336.5l-117 -41q-43 181 -177 283t-331 102q-89 0 -173.5 -25.5t-158 -78.5
t-128.5 -127.5t-87 -178.5t-32 -225q0 -150 48.5 -272.5t130.5 -200t185 -119t215 -41.5q199 0 336 107t182 284l113 -41q-56 -210 -223 -339.5t-408 -129.5z" />
    <glyph glyph-name="cacute" unicode="&#x107;" horiz-adv-x="1083" 
d="M852 1384l-242 -284h-100l182 284h160zM575 893q-151 0 -253.5 -110.5t-102.5 -295.5q0 -181 102.5 -292t253.5 -111q66 0 122.5 22t94.5 58.5t63 76.5t38 83l108 -45q-19 -59 -54.5 -112t-87.5 -97.5t-125.5 -70.5t-158.5 -26q-208 0 -343.5 144.5t-135.5 369.5
q0 226 136 371.5t343 145.5q166 0 274.5 -88t143.5 -220l-108 -45q-13 47 -36.5 87t-60 76.5t-91.5 57.5t-122 21z" />
    <glyph glyph-name="Ccircumflex" unicode="&#x108;" horiz-adv-x="1527" 
d="M618 1554h-120l235 244h168l238 -244h-121l-201 172zM817 -27q-109 0 -212 31t-193.5 94.5t-158.5 152t-107.5 211t-39.5 263.5t39.5 264t108 211.5t159 152t193.5 95t211 31.5q241 0 408 -126.5t217 -336.5l-117 -41q-43 181 -177 283t-331 102q-89 0 -173.5 -25.5
t-158 -78.5t-128.5 -127.5t-87 -178.5t-32 -225q0 -150 48.5 -272.5t130.5 -200t185 -119t215 -41.5q199 0 336 107t182 284l113 -41q-56 -210 -223 -339.5t-408 -129.5z" />
    <glyph glyph-name="ccircumflex" unicode="&#x109;" horiz-adv-x="1083" 
d="M391 1102h-110l225 280h147l226 -280h-111l-188 203zM575 893q-151 0 -253.5 -110.5t-102.5 -295.5q0 -181 102.5 -292t253.5 -111q66 0 122.5 22t94.5 58.5t63 76.5t38 83l108 -45q-19 -59 -54.5 -112t-87.5 -97.5t-125.5 -70.5t-158.5 -26q-208 0 -343.5 144.5
t-135.5 369.5q0 226 136 371.5t343 145.5q166 0 274.5 -88t143.5 -220l-108 -45q-13 47 -36.5 87t-60 76.5t-91.5 57.5t-122 21z" />
    <glyph glyph-name="Cdotaccent" unicode="&#x10a;" horiz-adv-x="1527" 
d="M817 -27q-109 0 -212 31t-193.5 94.5t-158.5 152t-107.5 211t-39.5 263.5t39.5 264t108 211.5t159 152t193.5 95t211 31.5q241 0 408 -126.5t217 -336.5l-117 -41q-43 181 -177 283t-331 102q-89 0 -173.5 -25.5t-158 -78.5t-128.5 -127.5t-87 -178.5t-32 -225
q0 -150 48.5 -272.5t130.5 -200t185 -119t215 -41.5q199 0 336 107t182 284l113 -41q-56 -210 -223 -339.5t-408 -129.5zM725 1675q0 41 27.5 69t68.5 28t69 -28t28 -69t-28 -68.5t-69 -27.5t-68.5 27.5t-27.5 68.5z" />
    <glyph glyph-name="cdotaccent" unicode="&#x10b;" horiz-adv-x="1083" 
d="M575 893q-151 0 -253.5 -110.5t-102.5 -295.5q0 -181 102.5 -292t253.5 -111q66 0 122.5 22t94.5 58.5t63 76.5t38 83l108 -45q-19 -59 -54.5 -112t-87.5 -97.5t-125.5 -70.5t-158.5 -26q-208 0 -343.5 144.5t-135.5 369.5q0 226 136 371.5t343 145.5q166 0 274.5 -88
t143.5 -220l-108 -45q-13 47 -36.5 87t-60 76.5t-91.5 57.5t-122 21zM485 1243q0 41 28 68.5t69 27.5t68.5 -27.5t27.5 -68.5t-27.5 -68.5t-68.5 -27.5t-69 27.5t-28 68.5z" />
    <glyph glyph-name="Ccaron" unicode="&#x10c;" horiz-adv-x="1527" 
d="M498 1798h120l199 -172l201 172h121l-238 -244h-168zM817 -27q-109 0 -212 31t-193.5 94.5t-158.5 152t-107.5 211t-39.5 263.5t39.5 264t108 211.5t159 152t193.5 95t211 31.5q241 0 408 -126.5t217 -336.5l-117 -41q-43 181 -177 283t-331 102q-89 0 -173.5 -25.5
t-158 -78.5t-128.5 -127.5t-87 -178.5t-32 -225q0 -150 48.5 -272.5t130.5 -200t185 -119t215 -41.5q199 0 336 107t182 284l113 -41q-56 -210 -223 -339.5t-408 -129.5z" />
    <glyph glyph-name="ccaron" unicode="&#x10d;" horiz-adv-x="1083" 
d="M268 1382h111l188 -202l189 202h110l-225 -280h-147zM575 893q-151 0 -253.5 -110.5t-102.5 -295.5q0 -181 102.5 -292t253.5 -111q66 0 122.5 22t94.5 58.5t63 76.5t38 83l108 -45q-19 -59 -54.5 -112t-87.5 -97.5t-125.5 -70.5t-158.5 -26q-208 0 -343.5 144.5
t-135.5 369.5q0 226 136 371.5t343 145.5q166 0 274.5 -88t143.5 -220l-108 -45q-13 47 -36.5 87t-60 76.5t-91.5 57.5t-122 21z" />
    <glyph glyph-name="Dcaron" unicode="&#x10e;" horiz-adv-x="1458" 
d="M397 1798h121l199 -172l201 172h120l-237 -244h-168zM336 115h315q115 0 216 38.5t179.5 112.5t124.5 191.5t46 265.5q0 149 -45 267.5t-122.5 193t-178.5 114t-216 39.5h-319v-1222zM655 0h-448v1452h452q140 0 264 -48t219.5 -137.5t151.5 -230t56 -313.5t-56.5 -312.5
t-153 -228t-221 -135.5t-264.5 -47z" />
    <glyph glyph-name="dcaron" unicode="&#x10f;" horiz-adv-x="1175" 
d="M1307 1479l-119 -361h-94l73 361h140zM219 489q0 -175 93 -290t245 -115q150 0 241 115t91 290q0 176 -90.5 290t-239.5 114q-153 0 -246.5 -113t-93.5 -291zM889 154v39q-17 -40 -45.5 -76.5t-69.5 -70t-100 -53.5t-127 -20q-134 0 -237.5 69t-158.5 186t-55 261
q0 219 126 367t325 148q73 0 134.5 -21t101.5 -54.5t65 -67t39 -68.5v686h123v-1293q0 -136 10 -186h-121q-10 42 -10 154z" />
    <glyph glyph-name="Dcroat" unicode="&#x110;" horiz-adv-x="1460" 
d="M657 0h-448v694h-160v111h160v647h453q111 0 213 -30t189 -90.5t151 -146.5t100.5 -204.5t36.5 -257.5q0 -173 -56.5 -312.5t-153 -228t-221 -135.5t-264.5 -47zM338 115h315q115 0 216 38.5t179.5 112.5t124.5 191.5t46 265.5q0 149 -45 267.5t-122.5 193t-178.5 114
t-216 39.5h-319v-532h293v-111h-293v-579z" />
    <glyph glyph-name="dcroat" unicode="&#x111;" horiz-adv-x="1175" 
d="M889 154v39q-17 -40 -45.5 -76.5t-69.5 -70t-100 -53.5t-127 -20q-134 0 -237.5 69t-158.5 186t-55 261q0 219 126 367t325 148q73 0 134.5 -21t101.5 -54.5t65 -67t39 -68.5v374h-271v103h271v209h123v-209h192v-103h-192v-981q0 -136 10 -186h-121q-10 42 -10 154z
M219 489q0 -175 93 -290t245 -115q150 0 241 115t91 290q0 176 -90.5 290t-239.5 114q-153 0 -246.5 -113t-93.5 -291z" />
    <glyph glyph-name="Emacron" unicode="&#x112;" horiz-adv-x="1177" 
d="M1063 0h-856v1452h856v-119h-725v-547h661v-118h-661v-549h725v-119zM911 1624h-557v107h557v-107z" />
    <glyph glyph-name="emacron" unicode="&#x113;" horiz-adv-x="1095" 
d="M811 1194h-520v102h520v-102zM225 567h652q-5 141 -91.5 233.5t-234.5 92.5q-134 0 -226 -94.5t-100 -231.5zM891 315l108 -39q-44 -133 -155.5 -218t-272.5 -85q-97 0 -183 35.5t-151 100.5t-103 164t-38 219q0 148 62.5 266.5t165.5 182t225 63.5q210 0 333.5 -137.5
t123.5 -356.5q0 -29 -2 -45h-783v-8q0 -164 102 -268.5t248 -104.5q124 0 205.5 64t114.5 167z" />
    <glyph glyph-name="Ebreve" unicode="&#x114;" horiz-adv-x="1177" 
d="M639 1544q-132 0 -210.5 76t-86.5 182h107q5 -64 54 -112t136 -48q86 0 134.5 48t53.5 112h107q-8 -106 -85.5 -182t-209.5 -76zM1063 0h-856v1452h856v-119h-725v-547h661v-118h-661v-549h725v-119z" />
    <glyph glyph-name="ebreve" unicode="&#x115;" horiz-adv-x="1095" 
d="M225 567h652q-5 141 -91.5 233.5t-234.5 92.5q-134 0 -226 -94.5t-100 -231.5zM891 315l108 -39q-44 -133 -155.5 -218t-272.5 -85q-97 0 -183 35.5t-151 100.5t-103 164t-38 219q0 148 62.5 266.5t165.5 182t225 63.5q210 0 333.5 -137.5t123.5 -356.5q0 -29 -2 -45
h-783v-8q0 -164 102 -268.5t248 -104.5q124 0 205.5 64t114.5 167zM551 1102q-131 0 -209 85t-78 197h96q5 -75 52.5 -128.5t138.5 -53.5t138 53.5t52 128.5h97q0 -112 -78 -197t-209 -85z" />
    <glyph glyph-name="Edotaccent" unicode="&#x116;" horiz-adv-x="1177" 
d="M545 1675q0 41 27.5 69t68.5 28t68.5 -28t27.5 -69t-27.5 -68.5t-68.5 -27.5t-68.5 27.5t-27.5 68.5zM1063 0h-856v1452h856v-119h-725v-547h661v-118h-661v-549h725v-119z" />
    <glyph glyph-name="edotaccent" unicode="&#x117;" horiz-adv-x="1095" 
d="M225 567h652q-5 141 -91.5 233.5t-234.5 92.5q-134 0 -226 -94.5t-100 -231.5zM891 315l108 -39q-44 -133 -155.5 -218t-272.5 -85q-97 0 -183 35.5t-151 100.5t-103 164t-38 219q0 148 62.5 266.5t165.5 182t225 63.5q210 0 333.5 -137.5t123.5 -356.5q0 -29 -2 -45
h-783v-8q0 -164 102 -268.5t248 -104.5q124 0 205.5 64t114.5 167zM455 1243q0 41 27.5 68.5t68.5 27.5t68.5 -27.5t27.5 -68.5t-27.5 -68.5t-68.5 -27.5t-68.5 27.5t-27.5 68.5z" />
    <glyph glyph-name="Eogonek" unicode="&#x118;" horiz-adv-x="1177" 
d="M788 -240q0 143 150 240h-731v1452h856v-119h-725v-547h661v-118h-661v-549h725v-119q-67 -33 -118.5 -90.5t-51.5 -126.5q0 -57 36 -87t93 -30q37 0 70 10v-90q-40 -16 -93 -16q-91 0 -151 50.5t-60 139.5z" />
    <glyph glyph-name="eogonek" unicode="&#x119;" horiz-adv-x="1095" 
d="M459 -240q0 126 112 213q-97 0 -183 35.5t-151 100.5t-103 164t-38 219q0 148 62.5 266.5t165.5 182t225 63.5q210 0 333.5 -137.5t123.5 -356.5q0 -29 -2 -45h-783v-8q0 -164 102 -268.5t248 -104.5q124 0 205.5 64t114.5 167l108 -39q-68 -194 -249 -270
q-76 -34 -131.5 -92.5t-55.5 -130.5q0 -57 36 -87t93 -30q37 0 70 10v-90q-40 -16 -92 -16q-91 0 -151 50.5t-60 139.5zM225 567h652q-5 141 -91.5 233.5t-234.5 92.5q-134 0 -226 -94.5t-100 -231.5z" />
    <glyph glyph-name="Ecaron" unicode="&#x11a;" horiz-adv-x="1177" 
d="M330 1798h121l198 -172l201 172h121l-238 -244h-168zM1063 0h-856v1452h856v-119h-725v-547h661v-118h-661v-549h725v-119z" />
    <glyph glyph-name="ecaron" unicode="&#x11b;" horiz-adv-x="1095" 
d="M252 1382h110l189 -202l188 202h111l-225 -280h-148zM225 567h652q-5 141 -91.5 233.5t-234.5 92.5q-134 0 -226 -94.5t-100 -231.5zM891 315l108 -39q-44 -133 -155.5 -218t-272.5 -85q-97 0 -183 35.5t-151 100.5t-103 164t-38 219q0 148 62.5 266.5t165.5 182
t225 63.5q210 0 333.5 -137.5t123.5 -356.5q0 -29 -2 -45h-783v-8q0 -164 102 -268.5t248 -104.5q124 0 205.5 64t114.5 167z" />
    <glyph glyph-name="Gcircumflex" unicode="&#x11c;" horiz-adv-x="1568" 
d="M610 1554h-121l236 244h168l237 -244h-120l-201 172zM1432 0h-103l-12 281q-17 -41 -44.5 -80.5t-73.5 -81.5t-102 -73.5t-136 -52t-170 -20.5q-102 0 -201 31t-186.5 94t-154 151.5t-105 212t-38.5 265.5q0 141 39 263.5t106 211t156.5 152t191.5 94.5t210 31
q229 0 399 -119.5t232 -317.5l-117 -49q-55 172 -189.5 269.5t-324.5 97.5q-89 0 -172 -25.5t-155.5 -77.5t-127 -126t-85.5 -178t-31 -226t31.5 -226.5t85.5 -179t125.5 -127.5t151.5 -78.5t163 -25.5q110 0 199.5 32t145.5 81.5t95 114t55.5 125.5t18.5 120h-537v119h660
v-682z" />
    <glyph glyph-name="gcircumflex" unicode="&#x11d;" horiz-adv-x="1150" 
d="M381 1102h-111l226 280h147l225 -280h-110l-189 203zM98 -55l117 28q12 -118 99.5 -199t213.5 -81q93 0 160 29.5t104.5 83.5t54.5 119t17 145v180q-36 -83 -120.5 -141t-208.5 -58q-191 0 -314 135t-123 340q0 202 122 337.5t315 135.5q127 0 208.5 -53t122.5 -137v168
h121v-905q0 -72 -13 -138t-46 -131.5t-83.5 -112.5t-132.5 -76.5t-186 -29.5q-174 0 -292 102.5t-136 258.5zM549 158q143 0 231 103.5t88 264.5q0 160 -88 263.5t-231 103.5q-147 0 -237.5 -103t-90.5 -264t91 -264.5t237 -103.5z" />
    <glyph glyph-name="Gbreve" unicode="&#x11e;" horiz-adv-x="1568" 
d="M811 1544q-132 0 -210.5 76t-86.5 182h107q5 -64 54 -112t136 -48q86 0 134.5 48t53.5 112h107q-8 -106 -85.5 -182t-209.5 -76zM1432 0h-103l-12 281q-17 -41 -44.5 -80.5t-73.5 -81.5t-102 -73.5t-136 -52t-170 -20.5q-102 0 -201 31t-186.5 94t-154 151.5t-105 212
t-38.5 265.5q0 141 39 263.5t106 211t156.5 152t191.5 94.5t210 31q229 0 399 -119.5t232 -317.5l-117 -49q-55 172 -189.5 269.5t-324.5 97.5q-89 0 -172 -25.5t-155.5 -77.5t-127 -126t-85.5 -178t-31 -226t31.5 -226.5t85.5 -179t125.5 -127.5t151.5 -78.5t163 -25.5
q110 0 199.5 32t145.5 81.5t95 114t55.5 125.5t18.5 120h-537v119h660v-682z" />
    <glyph glyph-name="gbreve" unicode="&#x11f;" horiz-adv-x="1150" 
d="M98 -55l117 28q12 -118 99.5 -199t213.5 -81q93 0 160 29.5t104.5 83.5t54.5 119t17 145v180q-36 -83 -120.5 -141t-208.5 -58q-191 0 -314 135t-123 340q0 202 122 337.5t315 135.5q127 0 208.5 -53t122.5 -137v168h121v-905q0 -72 -13 -138t-46 -131.5t-83.5 -112.5
t-132.5 -76.5t-186 -29.5q-174 0 -292 102.5t-136 258.5zM549 158q143 0 231 103.5t88 264.5q0 160 -88 263.5t-231 103.5q-147 0 -237.5 -103t-90.5 -264t91 -264.5t237 -103.5zM569 1102q-131 0 -208.5 85t-77.5 197h96q5 -75 52 -128.5t138 -53.5t138.5 53.5t52.5 128.5
h96q0 -112 -78 -197t-209 -85z" />
    <glyph glyph-name="Gdotaccent" unicode="&#x120;" horiz-adv-x="1568" 
d="M715 1675q0 41 27.5 69t68.5 28t68.5 -28t27.5 -69t-27.5 -68.5t-68.5 -27.5t-68.5 27.5t-27.5 68.5zM1432 0h-103l-12 281q-17 -41 -44.5 -80.5t-73.5 -81.5t-102 -73.5t-136 -52t-170 -20.5q-102 0 -201 31t-186.5 94t-154 151.5t-105 212t-38.5 265.5q0 141 39 263.5
t106 211t156.5 152t191.5 94.5t210 31q229 0 399 -119.5t232 -317.5l-117 -49q-55 172 -189.5 269.5t-324.5 97.5q-89 0 -172 -25.5t-155.5 -77.5t-127 -126t-85.5 -178t-31 -226t31.5 -226.5t85.5 -179t125.5 -127.5t151.5 -78.5t163 -25.5q110 0 199.5 32t145.5 81.5
t95 114t55.5 125.5t18.5 120h-537v119h660v-682z" />
    <glyph glyph-name="gdotaccent" unicode="&#x121;" horiz-adv-x="1150" 
d="M473 1243q0 41 27.5 68.5t68.5 27.5t69 -27.5t28 -68.5t-28 -68.5t-69 -27.5t-68.5 27.5t-27.5 68.5zM98 -55l117 28q12 -118 99.5 -199t213.5 -81q93 0 160 29.5t104.5 83.5t54.5 119t17 145v180q-36 -83 -120.5 -141t-208.5 -58q-191 0 -314 135t-123 340
q0 202 122 337.5t315 135.5q127 0 208.5 -53t122.5 -137v168h121v-905q0 -72 -13 -138t-46 -131.5t-83.5 -112.5t-132.5 -76.5t-186 -29.5q-174 0 -292 102.5t-136 258.5zM549 158q143 0 231 103.5t88 264.5q0 160 -88 263.5t-231 103.5q-147 0 -237.5 -103t-90.5 -264
t91 -264.5t237 -103.5z" />
    <glyph glyph-name="Gcommaaccent" unicode="&#x122;" horiz-adv-x="1568" 
d="M719 -172q0 38 27.5 62t66.5 24q42 0 73.5 -30t31.5 -91q0 -97 -60 -155.5t-143 -63.5v61q53 4 88.5 37.5t40.5 81.5q-12 -12 -39 -12q-38 0 -62 23t-24 63zM1432 0h-103l-12 281q-17 -41 -44.5 -80.5t-73.5 -81.5t-102 -73.5t-136 -52t-170 -20.5q-102 0 -201 31
t-186.5 94t-154 151.5t-105 212t-38.5 265.5q0 141 39 263.5t106 211t156.5 152t191.5 94.5t210 31q229 0 399 -119.5t232 -317.5l-117 -49q-55 172 -189.5 269.5t-324.5 97.5q-89 0 -172 -25.5t-155.5 -77.5t-127 -126t-85.5 -178t-31 -226t31.5 -226.5t85.5 -179
t125.5 -127.5t151.5 -78.5t163 -25.5q110 0 199.5 32t145.5 81.5t95 114t55.5 125.5t18.5 120h-537v119h660v-682z" />
    <glyph glyph-name="gcommaaccent" unicode="&#x123;" horiz-adv-x="1150" 
d="M668 1174q0 -38 -28 -62.5t-67 -24.5q-42 0 -73 30t-31 91q0 97 60 155.5t143 63.5v-61q-53 -4 -88.5 -37.5t-40.5 -81.5q13 13 39 13q38 0 62 -23t24 -63zM98 -55l117 28q12 -118 99.5 -199t213.5 -81q93 0 160 29.5t104.5 83.5t54.5 119t17 145v180
q-36 -83 -120.5 -141t-208.5 -58q-191 0 -314 135t-123 340q0 202 122 337.5t315 135.5q127 0 208.5 -53t122.5 -137v168h121v-905q0 -72 -13 -138t-46 -131.5t-83.5 -112.5t-132.5 -76.5t-186 -29.5q-174 0 -292 102.5t-136 258.5zM549 158q143 0 231 103.5t88 264.5
q0 160 -88 263.5t-231 103.5q-147 0 -237.5 -103t-90.5 -264t91 -264.5t237 -103.5z" />
    <glyph glyph-name="Hcircumflex" unicode="&#x124;" horiz-adv-x="1507" 
d="M553 1554h-121l236 244h168l237 -244h-121l-200 172zM1300 0h-131v678h-831v-678h-131v1452h131v-655h831v655h131v-1452z" />
    <glyph glyph-name="hcircumflex" unicode="&#x125;" horiz-adv-x="1099" 
d="M360 1563h-120l235 243h168l238 -243h-121l-201 172zM287 588v-588h-123v1479h123v-656q41 79 122.5 130t190.5 51q167 0 256.5 -102.5t89.5 -262.5v-639h-123v618q0 123 -66 199t-198 76q-120 0 -196 -90.5t-76 -214.5z" />
    <glyph glyph-name="Hbar" unicode="&#x126;" horiz-adv-x="1507" 
d="M63 1071v111h144v270h131v-270h831v270h131v-270h144v-111h-144v-1071h-131v678h-831v-678h-131v1071h-144zM338 797h831v274h-831v-274z" />
    <glyph glyph-name="hbar" unicode="&#x127;" horiz-adv-x="1099" 
d="M287 588v-588h-123v1167h-193v103h193v209h123v-209h270v-103h-270v-344q41 79 122.5 130t190.5 51q167 0 256.5 -102.5t89.5 -262.5v-639h-123v618q0 123 -66 199t-198 76q-120 0 -196 -90.5t-76 -214.5z" />
    <glyph glyph-name="Itilde" unicode="&#x128;" horiz-adv-x="544" 
d="M338 0h-131v1452h131v-1452zM590 1784v-23q0 -94 -49.5 -146t-122.5 -52q-67 0 -135 47l-43 30q-59 41 -103 41q-80 0 -80 -112h-96v24q0 91 50 143t126 52q75 0 148 -55l37 -27q50 -37 92 -37q80 0 80 115h96z" />
    <glyph glyph-name="itilde" unicode="&#x129;" horiz-adv-x="450" 
d="M287 0h-123v977h123v-977zM537 1350v-23q0 -94 -48.5 -146.5t-121.5 -52.5q-65 0 -134 48l-43 30q-59 41 -100 41q-78 0 -78 -112h-96v24q0 91 49 143t125 52q72 0 146 -56l36 -26q50 -37 90 -37q78 0 78 115h97z" />
    <glyph glyph-name="Imacron" unicode="&#x12a;" horiz-adv-x="544" 
d="M338 0h-131v1452h131v-1452zM551 1624h-557v107h557v-107z" />
    <glyph glyph-name="imacron" unicode="&#x12b;" horiz-adv-x="450" 
d="M287 0h-123v977h123v-977zM485 1194h-520v102h520v-102z" />
    <glyph glyph-name="Ibreve" unicode="&#x12c;" horiz-adv-x="544" 
d="M338 0h-131v1452h131v-1452zM274 1544q-132 0 -210.5 76t-86.5 182h107q5 -64 54 -112t136 -48q86 0 135 48t54 112h106q-8 -106 -85.5 -182t-209.5 -76z" />
    <glyph glyph-name="ibreve" unicode="&#x12d;" horiz-adv-x="450" 
d="M287 0h-123v977h123v-977zM225 1102q-131 0 -208.5 85t-77.5 197h96q5 -75 52 -128.5t138 -53.5t138.5 53.5t52.5 128.5h96q0 -112 -78 -197t-209 -85z" />
    <glyph glyph-name="Iogonek" unicode="&#x12e;" horiz-adv-x="544" 
d="M63 -240q0 143 150 240h-6v1452h131v-1452q-67 -33 -118.5 -90.5t-51.5 -126.5q0 -57 36 -87t93 -30q37 0 70 10v-90q-40 -16 -93 -16q-91 0 -151 50.5t-60 139.5z" />
    <glyph glyph-name="iogonek" unicode="&#x12f;" horiz-adv-x="450" 
d="M12 -240q0 147 152 240v977h123v-977q-67 -33 -118.5 -90.5t-51.5 -126.5q0 -57 36 -87t93 -30q36 0 69 10v-90q-40 -16 -92 -16q-91 0 -151 50.5t-60 139.5zM123 1382q0 44 29.5 73.5t72.5 29.5t73 -29.5t30 -73.5t-30 -73t-73 -29t-72.5 29t-29.5 73z" />
    <glyph glyph-name="Idotaccent" unicode="&#x130;" horiz-adv-x="544" 
d="M338 0h-131v1452h131v-1452zM178 1675q0 41 27.5 69t68.5 28t69 -28t28 -69t-28 -68.5t-69 -27.5t-68.5 27.5t-27.5 68.5z" />
    <glyph glyph-name="dotlessi" unicode="&#x131;" horiz-adv-x="450" 
d="M287 0h-123v977h123v-977z" />
    <glyph glyph-name="IJ" unicode="&#x132;" horiz-adv-x="1222" 
d="M322 614h-132v838h132v-838zM190 426v35l129 31v-60q0 -161 77.5 -250.5t217.5 -89.5q138 0 212.5 88.5t74.5 245.5v1026h131v-1024q0 -202 -112.5 -328.5t-305.5 -126.5q-197 0 -310.5 121.5t-113.5 331.5z" />
    <glyph glyph-name="ij" unicode="&#x133;" horiz-adv-x="901" 
d="M287 0h-123v977h123v-977zM123 1382q0 44 29.5 73.5t72.5 29.5t73 -29.5t30 -73.5t-30 -73t-73 -29t-72.5 29t-29.5 73zM614 -129v1106h123v-1110q0 -133 -70 -208t-188 -75q-64 0 -108 19v104q35 -12 84 -12q159 0 159 176zM573 1382q0 44 30 73.5t73 29.5t72.5 -29.5
t29.5 -73.5t-29.5 -73t-72.5 -29t-73 29t-30 73z" />
    <glyph glyph-name="Jcircumflex" unicode="&#x134;" horiz-adv-x="1099" 
d="M645 1554h-121l236 244h168l237 -244h-121l-200 172zM68 426v92l129 31v-117q0 -161 77.5 -250.5t217.5 -89.5q138 0 212 88.5t74 245.5v1026h131v-1024q0 -202 -112 -328.5t-305 -126.5q-197 0 -310.5 121.5t-113.5 331.5z" />
    <glyph glyph-name="jcircumflex" unicode="&#x135;" horiz-adv-x="450" 
d="M37 1102h-111l226 280h147l225 -280h-110l-189 203zM164 -129v1106h123v-1110q0 -133 -70 -208t-188 -75q-65 0 -109 19v104q34 -12 84 -12q160 0 160 176z" />
    <glyph glyph-name="Kcommaaccent" unicode="&#x136;" horiz-adv-x="1306" 
d="M1122 0l-534 715l-250 -266v-449h-131v1452h131v-831l770 831h170l-604 -645l612 -807h-164zM621 -172q0 38 27.5 62t66.5 24q42 0 73 -30t31 -91q0 -97 -60 -155.5t-143 -63.5v61q53 4 88.5 37.5t40.5 81.5q-12 -12 -38 -12q-38 0 -62 23t-24 63z" />
    <glyph glyph-name="kcommaaccent" unicode="&#x137;" horiz-adv-x="1015" 
d="M969 977l-416 -416l424 -561h-154l-356 477l-180 -178v-299h-123v1479h123v-1018l512 516h170zM463 -172q0 38 27.5 62t66.5 24q42 0 73.5 -30t31.5 -91q0 -97 -60 -155.5t-143 -63.5v61q53 4 88.5 37.5t40.5 81.5q-12 -12 -39 -12q-38 0 -62 23t-24 63z" />
    <glyph glyph-name="kgreenlandic" unicode="&#x138;" horiz-adv-x="1013" 
d="M967 977l-416 -416l424 -561h-154l-356 477l-180 -178v-299h-121v977h121v-516l512 516h170z" />
    <glyph glyph-name="Lacute" unicode="&#x139;" horiz-adv-x="1114" 
d="M606 1798l-274 -244h-117l219 244h172zM1071 0h-864v1452h131v-1333h733v-119z" />
    <glyph glyph-name="lacute" unicode="&#x13a;" horiz-adv-x="450" 
d="M559 1806l-274 -243h-117l219 243h172zM287 0h-123v1479h123v-1479z" />
    <glyph glyph-name="Lcommaaccent" unicode="&#x13b;" horiz-adv-x="1114" 
d="M553 -172q0 38 27.5 62t66.5 24q42 0 73.5 -30t31.5 -91q0 -97 -60 -155.5t-143 -63.5v61q53 4 88.5 37.5t40.5 81.5q-12 -12 -39 -12q-38 0 -62 23t-24 63zM1071 0h-864v1452h131v-1333h733v-119z" />
    <glyph glyph-name="lcommaaccent" unicode="&#x13c;" horiz-adv-x="450" 
d="M127 -172q0 38 27.5 62t66.5 24q42 0 73.5 -30t31.5 -91q0 -97 -60 -155.5t-143 -63.5v61q53 4 88.5 37.5t40.5 81.5q-12 -12 -39 -12q-38 0 -62 23t-24 63zM287 0h-123v1479h123v-1479z" />
    <glyph glyph-name="Lcaron" unicode="&#x13d;" horiz-adv-x="1114" 
d="M788 1554l-126 -380h-97l78 380h145zM1071 0h-864v1452h131v-1333h733v-119z" />
    <glyph glyph-name="lcaron" unicode="&#x13e;" horiz-adv-x="450" 
d="M584 1479l-119 -361h-94l73 361h140zM287 0h-123v1479h123v-1479z" />
    <glyph glyph-name="Ldot" unicode="&#x13f;" horiz-adv-x="1114" 
d="M1071 0h-864v1452h131v-1333h733v-119zM612 764q0 44 31.5 76t75.5 32q47 0 77.5 -31.5t30.5 -76.5t-30.5 -76t-77.5 -31q-44 0 -75.5 31.5t-31.5 75.5z" />
    <glyph glyph-name="ldot" unicode="&#x140;" horiz-adv-x="567" 
d="M287 0h-123v1479h123v-1479zM403 664q0 41 28 68.5t69 27.5t68.5 -27.5t27.5 -68.5t-27.5 -69t-68.5 -28t-69 28t-28 69z" />
    <glyph glyph-name="Lslash" unicode="&#x141;" horiz-adv-x="1136" 
d="M1094 0h-865v621l-202 -91v115l202 90v717h131v-659l332 147v-115l-332 -147v-559h734v-119z" />
    <glyph glyph-name="lslash" unicode="&#x142;" horiz-adv-x="630" 
d="M356 0h-123v602l-194 -84v115l194 84v762h123v-707l219 96v-114l-219 -97v-657z" />
    <glyph glyph-name="Nacute" unicode="&#x143;" horiz-adv-x="1562" 
d="M1356 0h-139l-879 1290v-1290h-131v1452h180l838 -1239v1239h131v-1452zM1073 1798l-274 -244h-117l219 244h172z" />
    <glyph glyph-name="nacute" unicode="&#x144;" horiz-adv-x="1099" 
d="M811 1384l-242 -284h-100l182 284h160zM287 584v-584h-123v977h119v-156q43 81 125.5 130.5t191.5 49.5q166 0 256 -102.5t90 -261.5v-637h-123v616q0 124 -65 199.5t-199 75.5q-124 0 -198 -89t-74 -218z" />
    <glyph glyph-name="Ncommaaccent" unicode="&#x145;" horiz-adv-x="1562" 
d="M709 -172q0 38 27.5 62t66.5 24q42 0 73 -30t31 -91q0 -97 -60 -155.5t-142 -63.5v61q53 4 88.5 37.5t40.5 81.5q-12 -12 -39 -12q-38 0 -62 23t-24 63zM1356 0h-139l-879 1290v-1290h-131v1452h180l838 -1239v1239h131v-1452z" />
    <glyph glyph-name="ncommaaccent" unicode="&#x146;" horiz-adv-x="1099" 
d="M471 -172q0 38 27.5 62t66.5 24q42 0 73.5 -30t31.5 -91q0 -97 -60 -155.5t-143 -63.5v61q53 4 88.5 37.5t40.5 81.5q-12 -12 -39 -12q-38 0 -62 23t-24 63zM287 584v-584h-123v977h119v-156q43 81 125.5 130.5t191.5 49.5q166 0 256 -102.5t90 -261.5v-637h-123v616
q0 124 -65 199.5t-199 75.5q-124 0 -198 -89t-74 -218z" />
    <glyph glyph-name="Ncaron" unicode="&#x147;" horiz-adv-x="1562" 
d="M465 1798h121l198 -172l201 172h121l-238 -244h-168zM1356 0h-139l-879 1290v-1290h-131v1452h180l838 -1239v1239h131v-1452z" />
    <glyph glyph-name="ncaron" unicode="&#x148;" horiz-adv-x="1099" 
d="M240 1382h110l189 -202l188 202h111l-226 -280h-147zM287 584v-584h-123v977h119v-156q43 81 125.5 130.5t191.5 49.5q166 0 256 -102.5t90 -261.5v-637h-123v616q0 124 -65 199.5t-199 75.5q-124 0 -198 -89t-74 -218z" />
    <glyph glyph-name="napostrophe" unicode="&#x149;" horiz-adv-x="1099" 
d="M168 1329q0 38 27.5 62t66.5 24q42 0 73.5 -30t31.5 -91q0 -97 -60 -155.5t-143 -63.5v62q54 4 89 37t40 81q-12 -12 -39 -12q-38 0 -62 23t-24 63zM287 584v-584h-123v977h119v-156q43 81 125.5 130.5t191.5 49.5q166 0 256 -102.5t90 -261.5v-637h-123v616
q0 124 -65 199.5t-199 75.5q-124 0 -198 -89t-74 -218z" />
    <glyph glyph-name="Eng" unicode="&#x14a;" horiz-adv-x="1562" 
d="M1356 1452v-1612q0 -117 -62 -186.5t-170 -69.5q-76 0 -114 17v106q34 -12 82 -12q135 0 135 147v144l-889 1304v-1290h-131v1452h180l838 -1239v1239h131z" />
    <glyph glyph-name="eng" unicode="&#x14b;" horiz-adv-x="1099" 
d="M287 586v-586h-123v977h121v-164q39 87 122 139t193 52q167 0 256.5 -102.5t89.5 -262.5v-801q0 -115 -60.5 -184.5t-168.5 -69.5q-66 0 -115 17v106q34 -12 84 -12q137 0 137 149v774q0 123 -66 199t-198 76q-123 0 -197.5 -90t-74.5 -217z" />
    <glyph glyph-name="Omacron" unicode="&#x14c;" horiz-adv-x="1632" 
d="M238 725q0 -150 48 -272.5t129.5 -200t184 -119t215.5 -41.5q112 0 215 41.5t185 119t131 200t49 272.5q0 151 -49 274t-131 200.5t-185 119t-215 41.5q-113 0 -215.5 -41.5t-184 -119t-129.5 -200.5t-48 -274zM106 725q0 176 60.5 321.5t161 238.5t226.5 143.5t261 50.5
q107 0 210 -31.5t193.5 -95t159 -152t108.5 -211.5t40 -264t-40 -264t-108.5 -211t-159 -151.5t-193.5 -94.5t-210 -31q-108 0 -210.5 31t-193 94.5t-158.5 152t-107.5 211t-39.5 263.5zM1094 1624h-557v107h557v-107z" />
    <glyph glyph-name="omacron" unicode="&#x14d;" horiz-adv-x="1163" 
d="M836 1194h-521v102h521v-102zM582 -27q-205 0 -345.5 145t-140.5 369q0 227 139 370.5t347 143.5q100 0 189.5 -37.5t154.5 -104t103 -163t38 -209.5q0 -224 -140 -369t-345 -145zM221 487q0 -183 106 -293t255 -110t254.5 110t105.5 293q0 185 -105.5 294.5
t-254.5 109.5q-72 0 -137 -27.5t-115 -78t-79.5 -128t-29.5 -170.5z" />
    <glyph glyph-name="Obreve" unicode="&#x14e;" horiz-adv-x="1632" 
d="M817 1544q-132 0 -210.5 76t-86.5 182h107q5 -64 54 -112t136 -48q86 0 135 48t54 112h106q-8 -106 -85.5 -182t-209.5 -76zM238 725q0 -150 48 -272.5t129.5 -200t184 -119t215.5 -41.5q112 0 215 41.5t185 119t131 200t49 272.5q0 151 -49 274t-131 200.5t-185 119
t-215 41.5q-113 0 -215.5 -41.5t-184 -119t-129.5 -200.5t-48 -274zM106 725q0 176 60.5 321.5t161 238.5t226.5 143.5t261 50.5q107 0 210 -31.5t193.5 -95t159 -152t108.5 -211.5t40 -264t-40 -264t-108.5 -211t-159 -151.5t-193.5 -94.5t-210 -31q-108 0 -210.5 31
t-193 94.5t-158.5 152t-107.5 211t-39.5 263.5z" />
    <glyph glyph-name="obreve" unicode="&#x14f;" horiz-adv-x="1163" 
d="M582 -27q-205 0 -345.5 145t-140.5 369q0 227 139 370.5t347 143.5q100 0 189.5 -37.5t154.5 -104t103 -163t38 -209.5q0 -224 -140 -369t-345 -145zM221 487q0 -183 106 -293t255 -110t254.5 110t105.5 293q0 185 -105.5 294.5t-254.5 109.5q-72 0 -137 -27.5t-115 -78
t-79.5 -128t-29.5 -170.5zM573 1102q-131 0 -208.5 85t-77.5 197h96q5 -75 52 -128.5t138 -53.5t138.5 53.5t52.5 128.5h96q0 -112 -78 -197t-209 -85z" />
    <glyph glyph-name="Ohungarumlaut" unicode="&#x150;" horiz-adv-x="1632" 
d="M1169 1798l-198 -244h-92l151 244h139zM934 1798l-199 -244h-92l152 244h139zM238 725q0 -150 48 -272.5t129.5 -200t184 -119t215.5 -41.5q112 0 215 41.5t185 119t131 200t49 272.5q0 151 -49 274t-131 200.5t-185 119t-215 41.5q-113 0 -215.5 -41.5t-184 -119
t-129.5 -200.5t-48 -274zM106 725q0 176 60.5 321.5t161 238.5t226.5 143.5t261 50.5q107 0 210 -31.5t193.5 -95t159 -152t108.5 -211.5t40 -264t-40 -264t-108.5 -211t-159 -151.5t-193.5 -94.5t-210 -31q-108 0 -210.5 31t-193 94.5t-158.5 152t-107.5 211t-39.5 263.5z
" />
    <glyph glyph-name="ohungarumlaut" unicode="&#x151;" horiz-adv-x="1163" 
d="M582 -27q-205 0 -345.5 145t-140.5 369q0 227 139 370.5t347 143.5q100 0 189.5 -37.5t154.5 -104t103 -163t38 -209.5q0 -224 -140 -369t-345 -145zM221 487q0 -183 106 -293t255 -110t254.5 110t105.5 293q0 185 -105.5 294.5t-254.5 109.5q-72 0 -137 -27.5t-115 -78
t-79.5 -128t-29.5 -170.5zM907 1384l-184 -284h-90l137 284h137zM690 1384l-184 -284h-90l137 284h137z" />
    <glyph glyph-name="OE" unicode="&#x152;" horiz-adv-x="2365" 
d="M2251 0h-856v289q-95 -154 -251.5 -235t-328.5 -81q-108 0 -210.5 31t-193 94.5t-158.5 152t-107.5 211t-39.5 263.5q0 176 60.5 321.5t161 238.5t226.5 143.5t261 50.5q171 0 327.5 -82t252.5 -238v293h856v-119h-725v-547h661v-118h-661v-549h725v-119zM238 725
q0 -150 48 -272.5t129.5 -200t184 -119t215.5 -41.5q112 0 215 41.5t185 119t131 200t49 272.5q0 151 -49 274t-131 200.5t-185 119t-215 41.5q-113 0 -215.5 -41.5t-184 -119t-129.5 -200.5t-48 -274z" />
    <glyph glyph-name="oe" unicode="&#x153;" horiz-adv-x="1933" 
d="M1729 315l108 -39q-44 -133 -155.5 -218t-272.5 -85q-137 0 -246.5 65.5t-169.5 190.5q-61 -122 -171.5 -189t-246.5 -67q-202 0 -340.5 145t-138.5 369q0 226 137 371.5t342 145.5q135 0 246 -69t172 -192q60 124 164 192.5t229 68.5q210 0 333.5 -137.5t123.5 -356.5
q0 -29 -2 -45h-782v-8q0 -164 102 -268.5t248 -104.5q124 0 205.5 64t114.5 167zM575 84q151 0 255 109.5t104 293.5t-104.5 295t-254.5 111q-148 0 -252 -111t-104 -295t103.5 -293.5t252.5 -109.5zM1063 567h651q-5 141 -91 233.5t-234 92.5q-134 0 -226 -94.5
t-100 -231.5z" />
    <glyph glyph-name="Racute" unicode="&#x154;" horiz-adv-x="1255" 
d="M915 1798l-274 -244h-117l219 244h172zM991 0l-350 629h-303v-629h-131v1452h506q193 0 312.5 -117.5t119.5 -296.5q0 -159 -99 -270t-264 -131l361 -637h-152zM338 745h354q146 0 234 80t88 213q0 135 -88 216t-234 81h-354v-590z" />
    <glyph glyph-name="racute" unicode="&#x155;" horiz-adv-x="690" 
d="M649 1384l-241 -284h-101l182 284h160zM662 979v-129q-42 10 -87 10q-130 0 -209 -84.5t-79 -245.5v-530h-123v977h121v-182q84 194 301 194q46 0 76 -10z" />
    <glyph glyph-name="Rcommaaccent" unicode="&#x156;" horiz-adv-x="1255" 
d="M991 0l-350 629h-303v-629h-131v1452h506q193 0 312.5 -117.5t119.5 -296.5q0 -159 -99 -270t-264 -131l361 -637h-152zM338 745h354q146 0 234 80t88 213q0 135 -88 216t-234 81h-354v-590zM582 -172q0 38 27.5 62t66.5 24q42 0 73 -30t31 -91q0 -97 -60 -155.5
t-142 -63.5v61q53 4 88.5 37.5t40.5 81.5q-12 -12 -39 -12q-38 0 -62 23t-24 63z" />
    <glyph glyph-name="rcommaaccent" unicode="&#x157;" horiz-adv-x="690" 
d="M662 979v-129q-42 10 -87 10q-130 0 -209 -84.5t-79 -245.5v-530h-123v977h121v-182q84 194 301 194q46 0 76 -10zM127 -172q0 38 27.5 62t66.5 24q42 0 73.5 -30t31.5 -91q0 -97 -60 -155.5t-143 -63.5v61q53 4 88.5 37.5t40.5 81.5q-12 -12 -39 -12q-38 0 -62 23
t-24 63z" />
    <glyph glyph-name="Rcaron" unicode="&#x158;" horiz-adv-x="1255" 
d="M297 1798h121l198 -172l201 172h121l-238 -244h-168zM991 0l-350 629h-303v-629h-131v1452h506q193 0 312.5 -117.5t119.5 -296.5q0 -159 -99 -270t-264 -131l361 -637h-152zM338 745h354q146 0 234 80t88 213q0 135 -88 216t-234 81h-354v-590z" />
    <glyph glyph-name="rcaron" unicode="&#x159;" horiz-adv-x="690" 
d="M106 1382h111l189 -202l188 202h111l-226 -280h-147zM662 979v-129q-42 10 -87 10q-130 0 -209 -84.5t-79 -245.5v-530h-123v977h121v-182q84 194 301 194q46 0 76 -10z" />
    <glyph glyph-name="Sacute" unicode="&#x15a;" horiz-adv-x="1191" 
d="M920 1798l-275 -244h-117l220 244h172zM1071 1122l-115 -41q-13 58 -38.5 106.5t-67 89.5t-105 64t-143.5 23q-134 0 -233 -81t-99 -206q0 -98 59.5 -164t170.5 -92l221 -51q174 -42 269 -140t95 -249q0 -171 -133.5 -289.5t-347.5 -118.5q-115 0 -211 36t-160 97
t-102 138t-47 162l121 38q13 -148 120.5 -251t278.5 -103q163 0 257.5 79.5t94.5 201.5q0 102 -67.5 172.5t-192.5 99.5l-219 51q-153 34 -244.5 130.5t-91.5 244.5q0 109 64 204t169.5 150.5t223.5 55.5q108 0 193 -29t140 -80.5t89 -112.5t51 -135z" />
    <glyph glyph-name="sacute" unicode="&#x15b;" horiz-adv-x="899" 
d="M727 1384l-242 -284h-100l182 284h160zM82 256l113 39q14 -96 83 -155.5t185 -59.5q93 0 155 48.5t62 125.5q0 124 -166 164l-158 37q-112 26 -175.5 91.5t-63.5 168.5q0 118 97.5 202t231.5 84q82 0 146.5 -22t104.5 -60t64 -79.5t36 -89.5l-109 -41q-13 79 -73.5 132.5
t-168.5 53.5q-85 0 -146.5 -48t-61.5 -124q0 -121 153 -156l156 -35q254 -60 254 -270q0 -116 -92 -202.5t-248 -86.5q-85 0 -156.5 25.5t-117 67t-72.5 90.5t-33 100z" />
    <glyph glyph-name="Scircumflex" unicode="&#x15c;" horiz-adv-x="1191" 
d="M426 1554h-121l236 244h168l237 -244h-121l-200 172zM1071 1122l-115 -41q-13 58 -38.5 106.5t-67 89.5t-105 64t-143.5 23q-134 0 -233 -81t-99 -206q0 -98 59.5 -164t170.5 -92l221 -51q174 -42 269 -140t95 -249q0 -171 -133.5 -289.5t-347.5 -118.5q-115 0 -211 36
t-160 97t-102 138t-47 162l121 38q13 -148 120.5 -251t278.5 -103q163 0 257.5 79.5t94.5 201.5q0 102 -67.5 172.5t-192.5 99.5l-219 51q-153 34 -244.5 130.5t-91.5 244.5q0 109 64 204t169.5 150.5t223.5 55.5q108 0 193 -29t140 -80.5t89 -112.5t51 -135z" />
    <glyph glyph-name="scircumflex" unicode="&#x15d;" horiz-adv-x="899" 
d="M279 1102h-111l225 280h148l225 -280h-111l-188 203zM82 256l113 39q14 -96 83 -155.5t185 -59.5q93 0 155 48.5t62 125.5q0 124 -166 164l-158 37q-112 26 -175.5 91.5t-63.5 168.5q0 118 97.5 202t231.5 84q82 0 146.5 -22t104.5 -60t64 -79.5t36 -89.5l-109 -41
q-13 79 -73.5 132.5t-168.5 53.5q-85 0 -146.5 -48t-61.5 -124q0 -121 153 -156l156 -35q254 -60 254 -270q0 -116 -92 -202.5t-248 -86.5q-85 0 -156.5 25.5t-117 67t-72.5 90.5t-33 100z" />
    <glyph glyph-name="Scedilla" unicode="&#x15e;" horiz-adv-x="1191" 
d="M557 -195l-49 60l70 108q-110 4 -201 42t-151.5 99t-96.5 135.5t-45 156.5l121 38q13 -148 120.5 -251t278.5 -103q163 0 257.5 79.5t94.5 201.5q0 102 -67.5 172.5t-192.5 99.5l-219 51q-153 34 -244.5 130.5t-91.5 244.5q0 109 64 204t169.5 150.5t223.5 55.5
q108 0 193 -29t140 -80.5t89 -112.5t51 -135l-115 -41q-13 58 -38.5 106.5t-67 89.5t-105 64t-143.5 23q-134 0 -233 -81t-99 -206q0 -98 59.5 -164t170.5 -92l221 -51q174 -42 269 -140t95 -249q0 -157 -111.5 -270.5t-295.5 -133.5l-62 -92q21 9 50 9q81 0 130.5 -43.5
t49.5 -112.5q0 -75 -57 -121.5t-164 -46.5q-69 0 -129 27.5t-93 68.5l56 66q64 -80 164 -80q60 0 93.5 22.5t33.5 63.5q0 39 -30.5 61.5t-86.5 22.5q-46 0 -76 -17z" />
    <glyph glyph-name="scedilla" unicode="&#x15f;" horiz-adv-x="899" 
d="M395 -195l-49 60l72 110q-100 8 -176 53.5t-113.5 104.5t-46.5 123l113 39q14 -96 83 -155.5t185 -59.5q93 0 155 48.5t62 125.5q0 124 -166 164l-158 37q-112 26 -175.5 91.5t-63.5 168.5q0 118 97.5 202t231.5 84q82 0 146.5 -22t104.5 -60t64 -79.5t36 -89.5l-109 -41
q-13 79 -73.5 132.5t-168.5 53.5q-85 0 -146.5 -48t-61.5 -124q0 -121 153 -156l156 -35q254 -60 254 -270q0 -105 -77 -186.5t-208 -98.5l-61 -92q21 9 49 9q81 0 130.5 -43.5t49.5 -112.5q0 -75 -57 -121.5t-164 -46.5q-69 0 -128.5 27.5t-92.5 68.5l55 66q64 -80 164 -80
q60 0 93.5 22.5t33.5 63.5q0 39 -30.5 61.5t-86.5 22.5q-46 0 -76 -17z" />
    <glyph glyph-name="Scaron" unicode="&#x160;" horiz-adv-x="1191" 
d="M287 1798h121l198 -172l201 172h121l-238 -244h-168zM1071 1122l-115 -41q-13 58 -38.5 106.5t-67 89.5t-105 64t-143.5 23q-134 0 -233 -81t-99 -206q0 -98 59.5 -164t170.5 -92l221 -51q174 -42 269 -140t95 -249q0 -171 -133.5 -289.5t-347.5 -118.5q-115 0 -211 36
t-160 97t-102 138t-47 162l121 38q13 -148 120.5 -251t278.5 -103q163 0 257.5 79.5t94.5 201.5q0 102 -67.5 172.5t-192.5 99.5l-219 51q-153 34 -244.5 130.5t-91.5 244.5q0 109 64 204t169.5 150.5t223.5 55.5q108 0 193 -29t140 -80.5t89 -112.5t51 -135z" />
    <glyph glyph-name="scaron" unicode="&#x161;" horiz-adv-x="899" 
d="M156 1382h110l189 -202l188 202h111l-226 -280h-147zM82 256l113 39q14 -96 83 -155.5t185 -59.5q93 0 155 48.5t62 125.5q0 124 -166 164l-158 37q-112 26 -175.5 91.5t-63.5 168.5q0 118 97.5 202t231.5 84q82 0 146.5 -22t104.5 -60t64 -79.5t36 -89.5l-109 -41
q-13 79 -73.5 132.5t-168.5 53.5q-85 0 -146.5 -48t-61.5 -124q0 -121 153 -156l156 -35q254 -60 254 -270q0 -116 -92 -202.5t-248 -86.5q-85 0 -156.5 25.5t-117 67t-72.5 90.5t-33 100z" />
    <glyph glyph-name="Tcommaaccent" unicode="&#x162;" horiz-adv-x="1234" 
d="M1196 1333h-514v-1333h-14l-76 -115q21 9 49 9q81 0 130.5 -43.5t49.5 -112.5q0 -75 -57 -121.5t-164 -46.5q-69 0 -128.5 27.5t-92.5 68.5l55 66q64 -80 164 -80q60 0 93.5 22.5t33.5 63.5q0 39 -30.5 61.5t-86.5 22.5q-46 0 -76 -17l-49 60l88 135h-20v1333h-512v119
h1157v-119z" />
    <glyph glyph-name="tcommaaccent" unicode="&#x163;" horiz-adv-x="671" 
d="M348 -172q0 38 27.5 62t66.5 24q42 0 73.5 -30t31.5 -91q0 -97 -60 -155.5t-143 -63.5v61q53 4 88.5 37.5t40.5 81.5q-12 -12 -39 -12q-38 0 -62 23t-24 63zM362 1286v-309h254v-111h-254v-590q0 -176 166 -176q50 0 88 17v-109q-36 -18 -120 -18q-120 0 -188 70.5
t-68 203.5v602h-207v111h73q72 0 105 34t33 109v166h118z" />
    <glyph glyph-name="Tcaron" unicode="&#x164;" horiz-adv-x="1234" 
d="M295 1798h121l198 -172l201 172h121l-238 -244h-168zM1196 1333h-514v-1333h-131v1333h-512v119h1157v-119z" />
    <glyph glyph-name="tcaron" unicode="&#x165;" horiz-adv-x="671" 
d="M659 1479l-118 -361h-95l74 361h139zM362 1286v-309h254v-111h-254v-590q0 -176 166 -176q50 0 88 17v-109q-36 -18 -120 -18q-120 0 -188 70.5t-68 203.5v602h-207v111h73q72 0 105 34t33 109v166h118z" />
    <glyph glyph-name="Tbar" unicode="&#x166;" horiz-adv-x="1234" 
d="M1196 1333h-514v-571h256v-111h-256v-651h-131v651h-256v111h256v571h-512v119h1157v-119z" />
    <glyph glyph-name="tbar" unicode="&#x167;" horiz-adv-x="671" 
d="M362 1286v-309h254v-111h-254v-297h254v-102h-254v-191q0 -176 166 -176q50 0 88 17v-109q-36 -18 -120 -18q-120 0 -188 70.5t-68 203.5v203h-207v102h207v297h-207v111h73q72 0 105 34t33 109v166h118z" />
    <glyph glyph-name="Utilde" unicode="&#x168;" horiz-adv-x="1376" 
d="M1008 1784v-23q0 -94 -49.5 -146t-122.5 -52q-68 0 -136 47l-43 30q-59 41 -102 41q-80 0 -80 -112h-96v24q0 91 50 143t126 52q74 0 147 -55l37 -27q50 -37 92 -37q80 0 80 115h97zM688 -27q-227 0 -362.5 132.5t-135.5 377.5v969h132v-963q0 -193 93.5 -295t272.5 -102
t273 102t94 295v963h131v-969q0 -242 -135.5 -376t-362.5 -134z" />
    <glyph glyph-name="utilde" unicode="&#x169;" horiz-adv-x="1103" 
d="M823 137v15q-38 -78 -117.5 -128.5t-189.5 -50.5q-89 0 -160 31.5t-114.5 86t-66.5 124t-23 147.5v615h122v-594q0 -61 15 -113t45.5 -94.5t83 -67t121.5 -24.5q127 0 201.5 85t74.5 212v596h123v-791q0 -100 12 -186h-116q-11 42 -11 137zM856 1350v-23
q0 -94 -48.5 -146.5t-121.5 -52.5q-64 0 -133 48l-43 30q-59 41 -100 41q-78 0 -78 -112h-96v24q0 91 49 143t125 52q71 0 145 -56l37 -26q50 -37 90 -37q78 0 78 115h96z" />
    <glyph glyph-name="Umacron" unicode="&#x16a;" horiz-adv-x="1376" 
d="M688 -27q-227 0 -362.5 132.5t-135.5 377.5v969h132v-963q0 -193 93.5 -295t272.5 -102t273 102t94 295v963h131v-969q0 -242 -135.5 -376t-362.5 -134zM969 1624h-557v107h557v-107z" />
    <glyph glyph-name="umacron" unicode="&#x16b;" horiz-adv-x="1103" 
d="M805 1194h-520v102h520v-102zM823 137v15q-38 -78 -117.5 -128.5t-189.5 -50.5q-89 0 -160 31.5t-114.5 86t-66.5 124t-23 147.5v615h122v-594q0 -61 15 -113t45.5 -94.5t83 -67t121.5 -24.5q127 0 201.5 85t74.5 212v596h123v-791q0 -100 12 -186h-116q-11 42 -11 137z
" />
    <glyph glyph-name="Ubreve" unicode="&#x16c;" horiz-adv-x="1376" 
d="M692 1544q-132 0 -210.5 76t-86.5 182h107q5 -64 54 -112t136 -48q86 0 135 48t54 112h106q-8 -106 -85.5 -182t-209.5 -76zM688 -27q-227 0 -362.5 132.5t-135.5 377.5v969h132v-963q0 -193 93.5 -295t272.5 -102t273 102t94 295v963h131v-969q0 -242 -135.5 -376
t-362.5 -134z" />
    <glyph glyph-name="ubreve" unicode="&#x16d;" horiz-adv-x="1103" 
d="M823 137v15q-38 -78 -117.5 -128.5t-189.5 -50.5q-89 0 -160 31.5t-114.5 86t-66.5 124t-23 147.5v615h122v-594q0 -61 15 -113t45.5 -94.5t83 -67t121.5 -24.5q127 0 201.5 85t74.5 212v596h123v-791q0 -100 12 -186h-116q-11 42 -11 137zM541 1102q-131 0 -209 85
t-78 197h96q5 -75 52.5 -128.5t138.5 -53.5t138 53.5t52 128.5h96q0 -112 -77.5 -197t-208.5 -85z" />
    <glyph glyph-name="Uring" unicode="&#x16e;" horiz-adv-x="1376" 
d="M688 -27q-227 0 -362.5 132.5t-135.5 377.5v969h132v-963q0 -193 93.5 -295t272.5 -102t273 102t94 295v963h131v-969q0 -242 -135.5 -376t-362.5 -134zM690 1614q49 0 82 33.5t33 83.5q0 51 -33 85.5t-82 34.5t-82 -34.5t-33 -85.5q0 -50 33 -83.5t82 -33.5zM690 1526
q-86 0 -146.5 59t-60.5 146t61 147.5t146 60.5t146 -60.5t61 -147.5t-60.5 -146t-146.5 -59z" />
    <glyph glyph-name="uring" unicode="&#x16f;" horiz-adv-x="1103" 
d="M754 1300q0 -90 -62.5 -152.5t-152.5 -62.5q-88 0 -151.5 62.5t-63.5 152.5q0 89 63.5 152.5t151.5 63.5q89 0 152 -63.5t63 -152.5zM664 1300q0 55 -35.5 92.5t-89.5 37.5t-89.5 -37.5t-35.5 -92.5q0 -54 35.5 -91.5t89.5 -37.5t89.5 37.5t35.5 91.5zM823 137v15
q-38 -78 -117.5 -128.5t-189.5 -50.5q-89 0 -160 31.5t-114.5 86t-66.5 124t-23 147.5v615h122v-594q0 -61 15 -113t45.5 -94.5t83 -67t121.5 -24.5q127 0 201.5 85t74.5 212v596h123v-791q0 -100 12 -186h-116q-11 42 -11 137z" />
    <glyph glyph-name="Uhungarumlaut" unicode="&#x170;" horiz-adv-x="1376" 
d="M1018 1798l-199 -244h-92l152 244h139zM782 1798l-198 -244h-92l151 244h139zM688 -27q-227 0 -362.5 132.5t-135.5 377.5v969h132v-963q0 -193 93.5 -295t272.5 -102t273 102t94 295v963h131v-969q0 -242 -135.5 -376t-362.5 -134z" />
    <glyph glyph-name="uhungarumlaut" unicode="&#x171;" horiz-adv-x="1103" 
d="M823 137v15q-38 -78 -117.5 -128.5t-189.5 -50.5q-89 0 -160 31.5t-114.5 86t-66.5 124t-23 147.5v615h122v-594q0 -61 15 -113t45.5 -94.5t83 -67t121.5 -24.5q127 0 201.5 85t74.5 212v596h123v-791q0 -100 12 -186h-116q-11 42 -11 137zM848 1384l-184 -284h-91
l138 284h137zM631 1384l-185 -284h-90l138 284h137z" />
    <glyph glyph-name="Uogonek" unicode="&#x172;" horiz-adv-x="1376" 
d="M571 -240q0 125 113 213q-224 0 -359 134.5t-135 375.5v969h132v-963q0 -193 93.5 -295t272.5 -102t273 102t94 295v963h131v-969q0 -201 -93 -327.5t-257 -163.5q-13 -2 -33 -17q-59 -42 -93 -87t-34 -105q0 -57 36 -87t93 -30q36 0 69 10v-90q-40 -16 -92 -16
q-91 0 -151 50.5t-60 139.5z" />
    <glyph glyph-name="uogonek" unicode="&#x173;" horiz-adv-x="1103" 
d="M676 -240q0 149 155 244q-8 31 -8 133v15q-38 -78 -117.5 -128.5t-189.5 -50.5q-89 0 -160 31.5t-114.5 86t-66.5 124t-23 147.5v615h122v-594q0 -61 15 -113t45.5 -94.5t83 -67t121.5 -24.5q127 0 201.5 85t74.5 212v596h123v-791q0 -100 12 -186q-67 -33 -118.5 -90.5
t-51.5 -126.5q0 -57 36 -87t93 -30q37 0 70 10v-90q-40 -16 -92 -16q-91 0 -151 50.5t-60 139.5z" />
    <glyph glyph-name="Wcircumflex" unicode="&#x174;" horiz-adv-x="2027" 
d="M813 1554h-121l236 244h168l237 -244h-121l-200 172zM1487 182l356 1270h133l-417 -1452h-142l-405 1282l-406 -1282h-135l-424 1452h135l359 -1270l401 1270h141z" />
    <glyph glyph-name="wcircumflex" unicode="&#x175;" horiz-adv-x="1628" 
d="M627 1102h-111l225 280h148l225 -280h-110l-189 203zM750 977h133l291 -825l256 825h133l-320 -977h-137l-291 827l-291 -827h-137l-324 977h136l260 -825z" />
    <glyph glyph-name="Ycircumflex" unicode="&#x176;" horiz-adv-x="1261" 
d="M567 621l-508 831h154l418 -711l420 711h151l-508 -831v-621h-127v621zM432 1554h-121l236 244h168l237 -244h-121l-200 172z" />
    <glyph glyph-name="ycircumflex" unicode="&#x177;" horiz-adv-x="1026" 
d="M328 1102h-111l225 280h148l225 -280h-110l-189 203zM356 -389h-133l244 516l-416 850h137l342 -721l324 721h135z" />
    <glyph glyph-name="Ydieresis" unicode="&#x178;" horiz-adv-x="1261" 
d="M567 621l-508 831h154l418 -711l420 711h151l-508 -831v-621h-127v621zM334 1677q0 37 25.5 62.5t62.5 25.5t62.5 -25.5t25.5 -62.5t-25.5 -62.5t-62.5 -25.5t-62.5 25.5t-25.5 62.5zM752 1677q0 37 25.5 62.5t62.5 25.5t62.5 -25.5t25.5 -62.5t-25.5 -62.5t-62.5 -25.5
t-62.5 25.5t-25.5 62.5z" />
    <glyph glyph-name="Zacute" unicode="&#x179;" horiz-adv-x="1277" 
d="M922 1798l-275 -244h-117l220 244h172zM1194 0h-1112v133l954 1200h-942v119h1094v-129l-957 -1204h963v-119z" />
    <glyph glyph-name="zacute" unicode="&#x17a;" horiz-adv-x="950" 
d="M721 1384l-242 -284h-100l182 284h160zM864 0h-776v109l619 757h-613v111h760v-109l-614 -757h624v-111z" />
    <glyph glyph-name="Zdotaccent" unicode="&#x17b;" horiz-adv-x="1277" 
d="M1194 0h-1112v133l954 1200h-942v119h1094v-129l-957 -1204h963v-119zM549 1675q0 41 27.5 69t68.5 28t68.5 -28t27.5 -69t-27.5 -68.5t-68.5 -27.5t-68.5 27.5t-27.5 68.5z" />
    <glyph glyph-name="zdotaccent" unicode="&#x17c;" horiz-adv-x="950" 
d="M864 0h-776v109l619 757h-613v111h760v-109l-614 -757h624v-111zM371 1243q0 41 27.5 68.5t68.5 27.5t68.5 -27.5t27.5 -68.5t-27.5 -68.5t-68.5 -27.5t-68.5 27.5t-27.5 68.5z" />
    <glyph glyph-name="Zcaron" unicode="&#x17d;" horiz-adv-x="1277" 
d="M330 1798h121l198 -172l201 172h121l-238 -244h-168zM1194 0h-1112v133l954 1200h-942v119h1094v-129l-957 -1204h963v-119z" />
    <glyph glyph-name="zcaron" unicode="&#x17e;" horiz-adv-x="950" 
d="M170 1382h111l188 -202l188 202h111l-225 -280h-148zM864 0h-776v109l619 757h-613v111h760v-109l-614 -757h624v-111z" />
    <glyph glyph-name="uni018F" unicode="&#x18f;" horiz-adv-x="1605" 
d="M786 1360q-191 0 -346 -108.5t-207 -282.5l-116 41q65 207 251 338t418 131q107 0 210 -31.5t194 -95t160 -152t109 -211.5t40 -264t-40 -264t-108.5 -211t-159 -151.5t-193.5 -94.5t-210 -31q-134 0 -259.5 50.5t-225 143t-159.5 237.5t-60 321v14h1284q-2 146 -52 266
t-131.5 196.5t-184.5 117.5t-214 41zM788 92q102 0 197.5 34.5t173.5 99.5t131.5 167t69.5 228h-1139q14 -126 66.5 -228t130.5 -167t173 -99.5t197 -34.5z" />
    <glyph glyph-name="florin" unicode="&#x192;" horiz-adv-x="935" 
d="M205 23l168 843h-240v111h262l47 231q28 141 114.5 213t201.5 72q75 0 131 -18v-111q-54 14 -107 14q-176 0 -221 -211l-39 -190h273v-111h-293l-176 -884q-28 -141 -114.5 -213t-201.5 -72q-77 0 -133 18v111q42 -14 109 -14q78 0 137 48.5t82 162.5z" />
    <glyph glyph-name="uni01B5" unicode="&#x1b5;" horiz-adv-x="1277" 
d="M1194 0h-1112v133l446 561h-335v111h423l420 528h-942v119h1094v-129l-412 -518h318v-111h-406l-457 -575h963v-119z" />
    <glyph glyph-name="uni01B6" unicode="&#x1b6;" horiz-adv-x="950" 
d="M864 0h-776v109l287 352h-273v102h357l248 303h-613v111h760v-109l-248 -305h217v-102h-301l-282 -350h624v-111z" />
    <glyph glyph-name="Aringacute" unicode="&#x1fa;" horiz-adv-x="1421" 
d="M709 1323l-299 -756h600zM823 1571q0 51 -32.5 85t-83.5 34q-48 0 -80.5 -34t-32.5 -85t32.5 -84t80.5 -33q51 0 83.5 33t32.5 84zM915 1571q0 -59 -28 -105t-76 -71l565 -1395h-139l-180 449h-695l-178 -449h-139l565 1393q-49 27 -77.5 73.5t-28.5 104.5q0 86 60 146.5
t145 60.5t145.5 -60.5t60.5 -146.5zM1047 2091l-275 -244h-117l219 244h173z" />
    <glyph glyph-name="aringacute" unicode="&#x1fb;" horiz-adv-x="1024" 
d="M412 -25q-147 0 -233.5 82.5t-86.5 194.5q0 122 77.5 195t215.5 94l260 39q59 10 81 32.5t22 61.5q0 101 -63.5 161t-182.5 60q-117 0 -190 -60.5t-85 -166.5l-114 24q17 139 123.5 224t263.5 85q182 0 276 -94.5t94 -244.5v-494q0 -91 15 -168h-121q-12 46 -12 168
q-36 -77 -126.5 -135t-213.5 -58zM426 80q143 0 232.5 86.5t89.5 232.5v111q-16 -16 -72 -25l-273 -41q-88 -12 -137 -60t-49 -126q0 -72 55.5 -125t153.5 -53zM795 1880l-242 -285h-100l182 285h160zM717 1296q0 -90 -62.5 -152.5t-152.5 -62.5q-88 0 -151.5 62.5
t-63.5 152.5q0 89 63.5 152t151.5 63q89 0 152 -63t63 -152zM627 1296q0 54 -35.5 91.5t-89.5 37.5t-89.5 -37.5t-35.5 -91.5t35.5 -91.5t89.5 -37.5t89.5 37.5t35.5 91.5z" />
    <glyph glyph-name="AEacute" unicode="&#x1fc;" horiz-adv-x="2004" 
d="M1423 1798l-274 -244h-117l219 244h172zM1890 0h-856v449h-579l-293 -449h-162l967 1452h923v-119h-725v-547h662v-118h-662v-549h725v-119zM1034 1335l-502 -768h502v768z" />
    <glyph glyph-name="aeacute" unicode="&#x1fd;" horiz-adv-x="1746" 
d="M1143 1384l-242 -284h-100l182 284h160zM428 78q143 0 232.5 87t89.5 234v119q-11 -11 -52 -23.5t-77 -17.5l-220 -33q-87 -12 -134.5 -59.5t-47.5 -126.5q0 -74 55.5 -127t153.5 -53zM877 567h651q-5 141 -91.5 233.5t-234.5 92.5q-134 0 -225.5 -94.5t-99.5 -231.5z
M414 -27q-147 0 -234.5 83.5t-87.5 195.5q0 121 77.5 193t217.5 96l260 39q57 10 80 34t23 62q0 100 -65 160.5t-181 60.5q-117 0 -189.5 -61.5t-83.5 -167.5l-118 26q17 140 125 225t264 85q131 0 217.5 -51t124.5 -140q61 92 154 141.5t202 49.5q210 0 333.5 -137.5
t123.5 -356.5q0 -29 -2 -45h-783v-25q4 -159 106 -257.5t245 -98.5q124 0 205 64t114 167l109 -39q-44 -133 -155.5 -218t-272.5 -85q-135 0 -244 65t-170 187q-46 -111 -144.5 -181.5t-250.5 -70.5z" />
    <glyph glyph-name="Oslashacute" unicode="&#x1fe;" horiz-adv-x="1632" 
d="M106 725q0 176 60.5 321.5t161 238.5t226.5 143.5t261 50.5q234 0 424 -142l152 197l88 -66l-158 -202q205 -215 205 -541q0 -141 -40 -264t-108.5 -211t-159 -151.5t-193.5 -94.5t-210 -31q-215 0 -401 123l-144 -184l-88 65l146 189q-222 215 -222 559zM238 725
q0 -286 165 -461l762 979q-146 117 -350 117q-113 0 -215.5 -41.5t-184 -119t-129.5 -200.5t-48 -274zM1395 725q0 267 -152 442l-756 -974q143 -101 328 -101q112 0 215 41.5t185 119t131 200t49 272.5zM1133 1798l-275 -244h-117l220 244h172z" />
    <glyph glyph-name="oslashacute" unicode="&#x1ff;" horiz-adv-x="1155" 
d="M575 1004q156 0 277 -89l113 146l79 -64l-116 -149q129 -145 129 -361q0 -148 -64 -266.5t-174 -183t-244 -64.5q-149 0 -268 80l-106 -137l-78 64l108 139q-135 145 -135 368q0 226 137 371.5t342 145.5zM219 487q0 -168 86 -274l477 612q-89 68 -207 68
q-148 0 -252 -111t-104 -295zM575 84q151 0 255 109.5t104 293.5q0 156 -80 267l-475 -611q89 -59 196 -59zM850 1384l-242 -284h-100l182 284h160z" />
    <glyph glyph-name="Scommaaccent" unicode="&#x218;" horiz-adv-x="1191" 
d="M1071 1122l-115 -41q-13 58 -38.5 106.5t-67 89.5t-105 64t-143.5 23q-134 0 -233 -81t-99 -206q0 -98 59.5 -164t170.5 -92l221 -51q174 -42 269 -140t95 -249q0 -171 -133.5 -289.5t-347.5 -118.5q-115 0 -211 36t-160 97t-102 138t-47 162l121 38q13 -148 120.5 -251
t278.5 -103q163 0 257.5 79.5t94.5 201.5q0 102 -67.5 172.5t-192.5 99.5l-219 51q-153 34 -244.5 130.5t-91.5 244.5q0 109 64 204t169.5 150.5t223.5 55.5q108 0 193 -29t140 -80.5t89 -112.5t51 -135zM518 -172q0 38 27.5 62t66.5 24q42 0 73.5 -30t31.5 -91
q0 -97 -60 -155.5t-143 -63.5v61q53 4 88.5 37.5t40.5 81.5q-12 -12 -39 -12q-38 0 -62 23t-24 63z" />
    <glyph glyph-name="scommaaccent" unicode="&#x219;" horiz-adv-x="899" 
d="M82 256l113 39q14 -96 83 -155.5t185 -59.5q93 0 155 48.5t62 125.5q0 124 -166 164l-158 37q-112 26 -175.5 91.5t-63.5 168.5q0 118 97.5 202t231.5 84q82 0 146.5 -22t104.5 -60t64 -79.5t36 -89.5l-109 -41q-13 79 -73.5 132.5t-168.5 53.5q-85 0 -146.5 -48
t-61.5 -124q0 -121 153 -156l156 -35q254 -60 254 -270q0 -116 -92 -202.5t-248 -86.5q-85 0 -156.5 25.5t-117 67t-72.5 90.5t-33 100zM362 -172q0 37 28 61.5t67 24.5q42 0 73 -30t31 -91q0 -97 -60 -155.5t-143 -63.5v61q53 4 88.5 37.5t40.5 81.5q-12 -12 -38 -12
q-38 0 -62.5 23t-24.5 63z" />
    <glyph glyph-name="uni021A" unicode="&#x21a;" horiz-adv-x="1234" 
d="M520 -172q0 38 27.5 62t66.5 24q42 0 73.5 -30t31.5 -91q0 -97 -60 -155.5t-143 -63.5v61q53 4 88.5 37.5t40.5 81.5q-12 -12 -39 -12q-38 0 -62 23t-24 63zM1196 1333h-514v-1333h-131v1333h-512v119h1157v-119z" />
    <glyph glyph-name="uni021B" unicode="&#x21b;" horiz-adv-x="671" 
d="M362 1286v-309h254v-111h-254v-590q0 -176 166 -176q50 0 88 17v-109q-30 -15 -108 -18l-70 -105q21 9 49 9q81 0 131 -43.5t50 -112.5q0 -75 -57.5 -121.5t-164.5 -46.5q-69 0 -128.5 27.5t-92.5 68.5l56 66q64 -80 163 -80q60 0 93.5 22.5t33.5 63.5q0 39 -30 61.5
t-86 22.5q-46 0 -76 -17l-49 60l86 135q-85 20 -130.5 87.5t-45.5 176.5v602h-207v111h73q72 0 105 34t33 109v166h118z" />
    <glyph glyph-name="dotlessj" unicode="&#x237;" horiz-adv-x="450" 
d="M164 -129v1106h123v-1110q0 -133 -70 -208t-188 -75q-65 0 -109 19v104q34 -12 84 -12q160 0 160 176z" />
    <glyph glyph-name="uni0259" unicode="&#x259;" horiz-adv-x="1095" 
d="M870 410h-651q5 -141 90.5 -233.5t235.5 -92.5q134 0 225.5 94.5t99.5 231.5zM205 662l-109 38q44 133 155.5 218.5t272.5 85.5q97 0 183 -35.5t151 -100.5t103 -164t38 -219q0 -112 -36.5 -208.5t-98 -162.5t-144 -103.5t-173.5 -37.5q-213 0 -335 137t-122 357
q0 29 2 45h782v8q0 164 -102 268.5t-248 104.5q-126 0 -206 -63.5t-113 -167.5z" />
    <glyph glyph-name="circumflex" unicode="&#x2c6;" horiz-adv-x="782" 
d="M203 1102h-111l225 280h148l225 -280h-110l-189 203z" />
    <glyph glyph-name="caron" unicode="&#x2c7;" horiz-adv-x="765" 
d="M84 1382h111l188 -202l188 202h111l-225 -280h-148z" />
    <glyph glyph-name="uni02C9" unicode="&#x2c9;" horiz-adv-x="704" 
d="M612 1194h-520v102h520v-102z" />
    <glyph glyph-name="breve" unicode="&#x2d8;" horiz-adv-x="757" 
d="M379 1102q-131 0 -209 85t-78 197h96q5 -75 52.5 -128.5t138.5 -53.5t138 53.5t52 128.5h97q0 -112 -78 -197t-209 -85z" />
    <glyph glyph-name="dotaccent" unicode="&#x2d9;" horiz-adv-x="344" 
d="M76 1243q0 41 27.5 68.5t68.5 27.5t68.5 -27.5t27.5 -68.5t-27.5 -68.5t-68.5 -27.5t-68.5 27.5t-27.5 68.5z" />
    <glyph glyph-name="ring" unicode="&#x2da;" horiz-adv-x="614" 
d="M522 1300q0 -90 -62.5 -152.5t-152.5 -62.5q-88 0 -151.5 62.5t-63.5 152.5q0 89 63.5 152.5t151.5 63.5q89 0 152 -63.5t63 -152.5zM432 1300q0 55 -35.5 92.5t-89.5 37.5t-89.5 -37.5t-35.5 -92.5q0 -54 35.5 -91.5t89.5 -37.5t89.5 37.5t35.5 91.5z" />
    <glyph glyph-name="ogonek" unicode="&#x2db;" horiz-adv-x="471" 
d="M84 -240q0 159 190 265l84 -25q-67 -33 -118.5 -90.5t-51.5 -126.5q0 -57 36 -87t93 -30q37 0 70 10v-90q-40 -16 -92 -16q-91 0 -151 50.5t-60 139.5z" />
    <glyph glyph-name="tilde" unicode="&#x2dc;" horiz-adv-x="804" 
d="M713 1350v-23q0 -94 -48.5 -146.5t-121.5 -52.5q-64 0 -133 48l-43 30q-59 41 -101 41q-78 0 -78 -112h-96v24q0 91 49 143t125 52q72 0 146 -56l37 -26q50 -37 90 -37q77 0 77 115h97z" />
    <glyph glyph-name="hungarumlaut" unicode="&#x2dd;" horiz-adv-x="675" 
d="M584 1384l-185 -284h-90l137 284h138zM367 1384l-185 -284h-90l137 284h138z" />
    <glyph glyph-name="uni0394" unicode="&#x394;" horiz-adv-x="1435" 
d="M63 0l580 1452h148l581 -1452h-1309zM717 1315l-469 -1196h938z" />
    <glyph glyph-name="uni03A9" unicode="&#x3a9;" horiz-adv-x="1687" 
d="M844 1362q-114 0 -220.5 -41.5t-189 -116t-132.5 -188t-50 -246.5q0 -120 41.5 -226t111.5 -181t158 -124.5t185 -68.5v-170h-607v113h455q-95 30 -179.5 89t-151 141.5t-105.5 193t-39 233.5q0 158 59 292.5t158.5 224.5t231 141t274.5 51t274 -51t230.5 -141
t159 -224.5t59.5 -292.5q0 -123 -39 -233.5t-105.5 -193t-151 -141.5t-179.5 -89h454v-113h-606v170q97 19 185 68.5t158 124.5t111.5 181t41.5 226q0 133 -50 246.5t-132.5 188t-189 116t-220.5 41.5z" />
    <glyph glyph-name="uni03BC" unicode="&#x3bc;" horiz-adv-x="1085" 
d="M514 -27q-168 0 -244 111v-473h-123v1366h123v-596q0 -61 15 -112.5t45.5 -94t83.5 -66.5t123 -24q127 0 201.5 85t74.5 212v596h123v-791q0 -100 12 -186h-117q-10 38 -10 137v15q-38 -78 -117.5 -128.5t-189.5 -50.5z" />
    <glyph glyph-name="pi" unicode="&#x3c0;" horiz-adv-x="1187" 
d="M1104 113v-103q-62 -20 -117 -20q-103 0 -157 61.5t-54 157.5v657h-418v-866h-122v866h-195v111h1055v-111h-197v-645q0 -60 33.5 -90.5t91.5 -30.5q36 0 80 13z" />
    <glyph glyph-name="Wgrave" unicode="&#x1e80;" horiz-adv-x="2027" 
d="M954 1554l-274 244h172l219 -244h-117zM1487 182l356 1270h133l-417 -1452h-142l-405 1282l-406 -1282h-135l-424 1452h135l359 -1270l401 1270h141z" />
    <glyph glyph-name="wgrave" unicode="&#x1e81;" horiz-adv-x="1628" 
d="M766 1100l-242 284h156l182 -284h-96zM750 977h133l291 -825l256 825h133l-320 -977h-137l-291 827l-291 -827h-137l-324 977h136l260 -825z" />
    <glyph glyph-name="Wacute" unicode="&#x1e82;" horiz-adv-x="2027" 
d="M1348 1798l-275 -244h-117l220 244h172zM1487 182l356 1270h133l-417 -1452h-142l-405 1282l-406 -1282h-135l-424 1452h135l359 -1270l401 1270h141z" />
    <glyph glyph-name="wacute" unicode="&#x1e83;" horiz-adv-x="1628" 
d="M1110 1384l-242 -284h-100l182 284h160zM750 977h133l291 -825l256 825h133l-320 -977h-137l-291 827l-291 -827h-137l-324 977h136l260 -825z" />
    <glyph glyph-name="Wdieresis" unicode="&#x1e84;" horiz-adv-x="2027" 
d="M653 1677q0 37 25.5 62.5t62.5 25.5t62.5 -25.5t25.5 -62.5t-25.5 -62.5t-62.5 -25.5t-62.5 25.5t-25.5 62.5zM1194 1677q0 37 25.5 62.5t62.5 25.5t62.5 -25.5t25.5 -62.5t-25.5 -62.5t-62.5 -25.5t-62.5 25.5t-25.5 62.5zM1487 182l356 1270h133l-417 -1452h-142
l-405 1282l-406 -1282h-135l-424 1452h135l359 -1270l401 1270h141z" />
    <glyph glyph-name="wdieresis" unicode="&#x1e85;" horiz-adv-x="1628" 
d="M512 1249q0 35 25.5 61.5t60.5 26.5q36 0 62 -26t26 -62q0 -37 -25.5 -61.5t-62.5 -24.5q-36 0 -61 25t-25 61zM948 1249q0 36 25 62t61 26q35 0 60.5 -26.5t25.5 -61.5q0 -36 -25 -61t-61 -25q-37 0 -61.5 24.5t-24.5 61.5zM750 977h133l291 -825l256 825h133l-320 -977
h-137l-291 827l-291 -827h-137l-324 977h136l260 -825z" />
    <glyph glyph-name="uni1E8A" unicode="&#x1e8a;" horiz-adv-x="1210" 
d="M1169 1452l-489 -723l487 -729h-153l-408 625l-416 -625h-151l491 729l-487 723h156l407 -623l410 623h153zM512 1675q0 41 27.5 69t68.5 28t69 -28t28 -69t-28 -68.5t-69 -27.5t-68.5 27.5t-27.5 68.5z" />
    <glyph glyph-name="uni1E8B" unicode="&#x1e8b;" horiz-adv-x="978" 
d="M41 0l373 498l-357 479h146l286 -391l287 391h146l-361 -479l375 -498h-148l-301 410l-299 -410h-147zM391 1243q0 41 27.5 68.5t68.5 27.5t69 -27.5t28 -68.5t-28 -68.5t-69 -27.5t-68.5 27.5t-27.5 68.5z" />
    <glyph glyph-name="Ygrave" unicode="&#x1ef2;" horiz-adv-x="1261" 
d="M567 621l-508 831h154l418 -711l420 711h151l-508 -831v-621h-127v621zM600 1554l-274 244h172l219 -244h-117z" />
    <glyph glyph-name="ygrave" unicode="&#x1ef3;" horiz-adv-x="1026" 
d="M356 -389h-133l244 516l-416 850h137l342 -721l324 721h135zM506 1100l-242 284h156l182 -284h-96z" />
    <glyph glyph-name="uni2007" unicode="&#x2007;" horiz-adv-x="1241" 
 />
    <glyph glyph-name="uni2008" unicode="&#x2008;" horiz-adv-x="468" 
 />
    <glyph glyph-name="uni200B" unicode="&#x200b;" horiz-adv-x="0" 
 />
    <glyph glyph-name="endash" unicode="&#x2013;" horiz-adv-x="1306" 
d="M1165 532h-1024v111h1024v-111z" />
    <glyph glyph-name="emdash" unicode="&#x2014;" horiz-adv-x="2164" 
d="M2023 532h-1882v111h1882v-111z" />
    <glyph glyph-name="quoteleft" unicode="&#x2018;" horiz-adv-x="456" 
d="M328 1100q0 -39 -29.5 -67.5t-73.5 -28.5q-47 0 -80.5 36.5t-33.5 100.5q0 136 68.5 225t162.5 111v-74q-64 -18 -103.5 -80t-41.5 -133q10 10 36 10q41 0 68 -28t27 -72z" />
    <glyph glyph-name="quoteright" unicode="&#x2019;" horiz-adv-x="464" 
d="M150 1370q0 39 29.5 67.5t72.5 28.5q47 0 81 -36.5t34 -100.5q0 -136 -68.5 -225t-163.5 -111v74q64 18 104 80t42 133q-10 -10 -37 -10q-41 0 -67.5 28t-26.5 72z" />
    <glyph glyph-name="quotesinglbase" unicode="&#x201a;" horiz-adv-x="483" 
d="M133 94q0 39 29.5 67.5t73.5 28.5q47 0 80.5 -36.5t33.5 -100.5q0 -136 -68.5 -225t-162.5 -111v74q64 18 103.5 80t41.5 133q-10 -10 -37 -10q-41 0 -67.5 28t-26.5 72z" />
    <glyph glyph-name="quotedblleft" unicode="&#x201c;" horiz-adv-x="747" 
d="M328 1100q0 -39 -29.5 -67.5t-73.5 -28.5q-47 0 -80.5 36.5t-33.5 100.5q0 136 68.5 225t162.5 111v-74q-64 -18 -103.5 -80t-41.5 -133q10 10 36 10q41 0 68 -28t27 -72zM618 1100q0 -39 -29.5 -67.5t-72.5 -28.5q-47 0 -81 36.5t-34 100.5q0 136 68.5 225t163.5 111
v-74q-64 -18 -104 -80t-42 -133q10 10 37 10q41 0 67.5 -28t26.5 -72z" />
    <glyph glyph-name="quotedblright" unicode="&#x201d;" horiz-adv-x="755" 
d="M150 1370q0 39 29.5 67.5t72.5 28.5q47 0 81 -36.5t34 -100.5q0 -136 -68.5 -225t-163.5 -111v74q64 18 104 80t42 133q-10 -10 -37 -10q-41 0 -67.5 28t-26.5 72zM440 1370q0 39 29.5 67.5t73.5 28.5q47 0 80.5 -36.5t33.5 -100.5q0 -136 -68.5 -225t-162.5 -111v74
q64 18 103.5 80t41.5 133q-10 -10 -36 -10q-41 0 -68 28t-27 72z" />
    <glyph glyph-name="quotedblbase" unicode="&#x201e;" horiz-adv-x="788" 
d="M133 94q0 39 29.5 67.5t73.5 28.5q47 0 80.5 -36.5t33.5 -100.5q0 -136 -68.5 -225t-162.5 -111v74q64 18 103.5 80t41.5 133q-10 -10 -37 -10q-41 0 -67.5 28t-26.5 72zM438 94q0 39 29.5 67.5t73.5 28.5q47 0 80.5 -36.5t33.5 -100.5q0 -136 -68.5 -225t-162.5 -111v74
q64 18 103.5 80t41.5 133q-10 -10 -37 -10q-41 0 -67.5 28t-26.5 72z" />
    <glyph glyph-name="dagger" unicode="&#x2020;" horiz-adv-x="837" 
d="M473 332h-108v686h-279v104h279v330h108v-330h279v-104h-279v-686z" />
    <glyph glyph-name="daggerdbl" unicode="&#x2021;" horiz-adv-x="913" 
d="M125 434h278v584h-278v104h278v330h109v-330h276v-104h-276v-584h276v-104h-276v-330h-109v330h-278v104z" />
    <glyph glyph-name="bullet" unicode="&#x2022;" horiz-adv-x="1159" 
d="M154 578q0 179 124 302.5t302 123.5t302 -123.5t124 -302.5t-124 -302.5t-302 -123.5t-302 123.5t-124 302.5z" />
    <glyph glyph-name="ellipsis" unicode="&#x2026;" horiz-adv-x="1478" 
d="M131 92q0 42 29.5 71.5t70.5 29.5q42 0 71.5 -29.5t29.5 -71.5t-29.5 -71t-71.5 -29t-71 29t-29 71zM639 92q0 42 29.5 71.5t70.5 29.5q42 0 71.5 -29.5t29.5 -71.5t-29.5 -71t-71.5 -29t-71 29t-29 71zM1147 92q0 42 29.5 71.5t70.5 29.5q42 0 71.5 -29.5t29.5 -71.5
t-29.5 -71t-71.5 -29t-71 29t-29 71z" />
    <glyph glyph-name="perthousand" unicode="&#x2030;" horiz-adv-x="2099" 
d="M995 299q0 -89 58.5 -150t144.5 -61q88 0 145.5 60t57.5 151t-57.5 151t-145.5 60q-86 0 -144.5 -61t-58.5 -150zM362 0h-122l968 1327h121zM1516 299q0 -89 58 -150t144 -61q88 0 146.5 60t58.5 151t-58.5 151t-146.5 60q-86 0 -144 -61t-58 -150zM1198 -14
q-130 0 -221.5 91t-91.5 222t91.5 222t221.5 91q85 0 153 -40t107 -109q39 69 107 109t153 40q131 0 222.5 -91.5t91.5 -221.5t-91.5 -221.5t-222.5 -91.5q-85 0 -153 40t-107 109q-39 -69 -107 -109t-153 -40zM184 1026q0 -89 58.5 -150t144.5 -61t144.5 61t58.5 150
t-58.5 150t-144.5 61t-144.5 -61t-58.5 -150zM74 1026q0 130 91 221.5t222 91.5q129 0 221 -91.5t92 -221.5t-92 -221.5t-221 -91.5q-131 0 -222 91.5t-91 221.5z" />
    <glyph glyph-name="guilsinglleft" unicode="&#x2039;" horiz-adv-x="606" 
d="M494 195h-123l-273 391l273 391h123l-271 -391z" />
    <glyph glyph-name="guilsinglright" unicode="&#x203a;" horiz-adv-x="606" 
d="M236 195h-123l270 391l-270 391h123l272 -391z" />
    <glyph glyph-name="uni2042" unicode="&#x2042;" horiz-adv-x="1685" 
d="M889 1452v-270l256 88l26 -84l-258 -90l168 -226l-71 -55l-170 232l-162 -230l-72 55l162 224l-256 88l29 86l254 -90v272h94zM446 639v-270l256 88l27 -84l-258 -90l168 -226l-72 -55l-170 231l-161 -229l-72 55l162 224l-256 88l28 86l254 -90v272h94zM1331 639v-270
l256 88l27 -84l-258 -90l168 -226l-72 -55l-170 231l-162 -229l-71 55l161 224l-256 88l29 86l254 -90v272h94z" />
    <glyph glyph-name="fraction" unicode="&#x2044;" horiz-adv-x="342" 
d="M-266 0h-123l969 1327h120z" />
    <glyph glyph-name="uni2051" unicode="&#x2051;" horiz-adv-x="909" 
d="M502 1452v-270l256 88l26 -84l-258 -90l168 -226l-71 -55l-170 232l-162 -230l-72 55l162 224l-256 88l29 86l254 -90v272h94zM502 639v-270l256 88l26 -84l-258 -90l168 -226l-71 -55l-170 231l-162 -229l-72 55l162 224l-256 88l29 86l254 -90v272h94z" />
    <glyph glyph-name="uni2070" unicode="&#x2070;" horiz-adv-x="774" 
d="M190 1081q0 -57 9 -105.5t30 -93.5t61 -70.5t97 -25.5t97 25.5t61 70.5t30 93.5t9 105.5q0 56 -9 104.5t-30 93t-61 70t-97 25.5t-97 -25.5t-61 -70t-30 -93t-9 -104.5zM84 1081q0 167 74 275q82 110 229 110t229 -110q74 -104 74 -275q0 -175 -74 -274
q-83 -111 -229 -111t-229 111q-74 102 -74 274z" />
    <glyph glyph-name="uni2074" unicode="&#x2074;" horiz-adv-x="749" 
d="M55 879v104l369 471h125v-483h145v-92h-145v-168h-105v168h-389zM444 971v366l-286 -366h286z" />
    <glyph glyph-name="uni2075" unicode="&#x2075;" horiz-adv-x="696" 
d="M61 899l93 41q11 -67 62 -110.5t122 -43.5q78 0 127 46t49 118q0 73 -49 117.5t-125 44.5q-96 0 -160 -70l-92 33l100 379h402v-90h-332l-61 -231q63 63 170 63q115 0 184.5 -67t69.5 -177q0 -108 -78 -182t-205 -74q-106 0 -185.5 60.5t-91.5 142.5z" />
    <glyph glyph-name="uni2076" unicode="&#x2076;" horiz-adv-x="741" 
d="M641 1427l-27 -81q-54 32 -141 32q-127 0 -203 -82.5t-84 -212.5q24 52 84.5 87.5t132.5 35.5q117 0 191 -69t74 -185q0 -113 -83 -184.5t-204 -71.5q-129 0 -214 91.5t-85 252.5q0 199 110 312.5t275 113.5q112 0 174 -39zM205 952q0 -73 53 -119.5t125 -46.5
q74 0 126 46.5t52 119.5q0 76 -51.5 121t-126.5 45q-73 0 -125.5 -45.5t-52.5 -120.5z" />
    <glyph glyph-name="uni2077" unicode="&#x2077;" horiz-adv-x="671" 
d="M633 1454v-96q-297 -235 -340 -647h-111q11 105 41.5 204t65 166t79.5 130t73 93.5t59 59.5h-451v90h584z" />
    <glyph glyph-name="uni2078" unicode="&#x2078;" horiz-adv-x="727" 
d="M365 1135q69 0 112 33.5t43 88.5t-42 90t-113 35q-72 0 -114 -35t-42 -90q0 -56 42 -89t114 -33zM365 786q83 0 128.5 36.5t45.5 95.5t-45 96t-129 37t-130.5 -37t-46.5 -96t47 -95.5t130 -36.5zM365 696q-132 0 -207.5 60t-75.5 153q0 63 41.5 113t109.5 70
q-58 21 -93.5 66t-35.5 104q0 91 72 147.5t189 56.5t188.5 -56.5t71.5 -147.5q0 -59 -35 -104.5t-96 -65.5q69 -20 110 -70t41 -113q0 -94 -74.5 -153.5t-205.5 -59.5z" />
    <glyph glyph-name="uni2079" unicode="&#x2079;" horiz-adv-x="737" 
d="M98 739l27 82q66 -37 149 -37q124 0 198.5 77.5t78.5 223.5q-23 -55 -82 -89.5t-131 -34.5q-113 0 -188.5 68.5t-75.5 182.5q0 108 82.5 181t201.5 73q128 0 212.5 -90.5t84.5 -249.5q0 -198 -97.5 -315t-278.5 -117q-109 0 -181 45zM530 1212q0 73 -51 118.5t-125 45.5
t-124 -45.5t-50 -118.5t50 -118t124 -45t125 45t51 118z" />
    <glyph glyph-name="uni2080" unicode="&#x2080;" horiz-adv-x="778" 
d="M193 205q0 -57 9 -105.5t29.5 -93.5t60.5 -70.5t97 -25.5t97 25.5t61 70.5t30 93.5t9 105.5q0 56 -9 104.5t-30 93t-61 70t-97 25.5t-97 -25.5t-60.5 -70.5t-29.5 -93t-9 -104zM86 205q0 166 74 274q83 111 229 111t229 -111q74 -104 74 -274q0 -176 -74 -275
q-82 -110 -229 -110t-229 110q-74 102 -74 275z" />
    <glyph glyph-name="uni2081" unicode="&#x2081;" horiz-adv-x="448" 
d="M338 -166h-105v586q-27 -30 -74.5 -51t-103.5 -25v80q75 10 123.5 53t59.5 101h100v-744z" />
    <glyph glyph-name="uni2082" unicode="&#x2082;" horiz-adv-x="704" 
d="M197 301l-103 6q-4 28 -4 49q0 98 72 166t190 68q115 0 185.5 -65t70.5 -160q0 -130 -147 -222l-152 -94q-84 -55 -94 -125h401v-90h-528v10q0 177 160 277l141 86q113 70 113 160q0 56 -41.5 95.5t-110.5 39.5q-70 0 -113.5 -41.5t-43.5 -112.5q0 -15 4 -47z" />
    <glyph glyph-name="uni2083" unicode="&#x2083;" horiz-adv-x="729" 
d="M303 195l-45 79l234 213h-400v91h537v-86l-238 -213q3 0 9.5 1t9.5 1q100 -5 167.5 -61.5t67.5 -158.5q0 -101 -79 -171t-204 -70q-121 0 -199.5 61t-90.5 156l94 35q6 -73 62 -118.5t132 -45.5q78 0 128.5 43.5t50.5 109.5q0 69 -49 106.5t-121 37.5q-33 0 -66 -10z" />
    <glyph glyph-name="uni2084" unicode="&#x2084;" horiz-adv-x="753" 
d="M57 2v104l369 472h125v-484h145v-92h-145v-168h-105v168h-389zM446 94v367l-286 -367h286z" />
    <glyph glyph-name="uni2085" unicode="&#x2085;" horiz-adv-x="700" 
d="M63 23l93 40q11 -67 62 -110t122 -43q78 0 127 46t49 118q0 73 -49 117.5t-125 44.5q-96 0 -160 -70l-92 33l100 379h402v-91h-332l-61 -231q63 63 170 63q115 0 184.5 -66.5t69.5 -176.5q0 -108 -78 -182t-205 -74q-106 0 -185.5 60.5t-91.5 142.5z" />
    <glyph glyph-name="uni2086" unicode="&#x2086;" horiz-adv-x="745" 
d="M643 551l-27 -82q-56 33 -141 33q-127 0 -203 -82.5t-84 -212.5q24 52 85 87.5t133 35.5q117 0 190.5 -69t73.5 -185q0 -113 -83 -184.5t-204 -71.5q-129 0 -214 91.5t-85 252.5q0 199 110 312.5t275 113.5q112 0 174 -39zM207 76q0 -73 53 -119.5t125 -46.5
q74 0 126 46.5t52 119.5q0 76 -51.5 121t-126.5 45q-73 0 -125.5 -45.5t-52.5 -120.5z" />
    <glyph glyph-name="uni2087" unicode="&#x2087;" horiz-adv-x="675" 
d="M635 578v-97q-297 -235 -340 -647h-111q11 105 41.5 204t65 166t79.5 130t73 93.5t59 59.5h-451v91h584z" />
    <glyph glyph-name="uni2088" unicode="&#x2088;" horiz-adv-x="731" 
d="M367 258q69 0 112 34t43 89t-42 90t-113 35q-72 0 -114 -35t-42 -90q0 -56 42 -89.5t114 -33.5zM367 -90q83 0 128.5 36t45.5 95t-45 96t-129 37t-130.5 -37t-46.5 -96q0 -58 47 -94.5t130 -36.5zM367 -180q-132 0 -207.5 60t-75.5 153q0 62 42 112t110 70q-58 21 -94 66
t-36 104q0 91 72 148t189 57t188.5 -57t71.5 -148q0 -59 -35 -104.5t-96 -65.5q69 -20 110 -69.5t41 -112.5q0 -94 -74.5 -153.5t-205.5 -59.5z" />
    <glyph glyph-name="uni2089" unicode="&#x2089;" horiz-adv-x="743" 
d="M102 -137l27 82q66 -37 150 -37q124 0 198 77.5t78 223.5q-23 -56 -82 -90.5t-131 -34.5q-113 0 -188.5 69t-75.5 183q0 108 82.5 181t201.5 73q128 0 212.5 -90.5t84.5 -249.5q0 -198 -97.5 -315t-278.5 -117q-109 0 -181 45zM535 336q0 73 -51.5 118.5t-125.5 45.5
t-124 -45.5t-50 -118.5t50 -118.5t124 -45.5t125.5 45.5t51.5 118.5z" />
    <glyph glyph-name="Euro" unicode="&#x20ac;" horiz-adv-x="1406" 
d="M254 662q0 69 6 96h-170v102h191q29 122 99.5 219t161 155.5t189 89t193.5 30.5q214 0 348 -92l-51 -101q-116 78 -297 78q-72 0 -149 -23t-149.5 -67.5t-130 -119.5t-83.5 -169h657l-51 -102h-633q-6 -38 -6 -96q0 -60 6 -97h537l-50 -102h-456q34 -123 116 -210.5
t181 -127t205 -39.5q217 0 344 121l65 -90q-164 -144 -409 -144q-100 0 -198 30.5t-185.5 88.5t-154.5 154t-97 217h-193v102h170q-6 27 -6 97z" />
    <glyph glyph-name="uni2113" unicode="&#x2113;" horiz-adv-x="774" 
d="M84 418v117q104 37 141 57v455q0 145 66 226t172 81q118 0 176.5 -73.5t58.5 -201.5q0 -173 -94.5 -314.5t-255.5 -238.5v-247q0 -85 40 -131t108 -46q95 0 172 50v-113q-83 -49 -174 -49q-129 0 -199 76t-70 208v193q-76 -31 -141 -49zM575 1079q0 164 -106 164
q-121 0 -121 -196v-379q227 158 227 411z" />
    <glyph glyph-name="trademark" unicode="&#x2122;" horiz-adv-x="1710" 
d="M659 1360h-237v-633h-103v633h-237v92h577v-92zM1542 727h-102v549l-246 -549h-84l-246 549v-549h-102v725h131l260 -584l260 584h129v-725z" />
    <glyph glyph-name="Omega" unicode="&#x2126;" horiz-adv-x="1687" 
d="M844 1362q-114 0 -220.5 -41.5t-189 -116t-132.5 -188t-50 -246.5q0 -120 41.5 -226t111.5 -181t158 -124.5t185 -68.5v-170h-607v113h455q-95 30 -179.5 89t-151 141.5t-105.5 193t-39 233.5q0 158 59 292.5t158.5 224.5t231 141t274.5 51t274 -51t230.5 -141
t159 -224.5t59.5 -292.5q0 -123 -39 -233.5t-105.5 -193t-151 -141.5t-179.5 -89h454v-113h-606v170q97 19 185 68.5t158 124.5t111.5 181t41.5 226q0 133 -50 246.5t-132.5 188t-189 116t-220.5 41.5z" />
    <glyph glyph-name="uni2160" unicode="&#x2160;" horiz-adv-x="983" 
d="M889 1327v-115h-334v-1095h334v-117h-795v117h334v1095h-334v115h795z" />
    <glyph glyph-name="uni2161" unicode="&#x2161;" horiz-adv-x="1525" 
d="M1432 117v-117h-1338v117h334v1095h-334v115h1338v-115h-314v-1095h314zM993 117v1095h-438v-1095h438z" />
    <glyph glyph-name="uni2162" unicode="&#x2162;" horiz-adv-x="2101" 
d="M2007 117v-117h-1913v117h334v1095h-334v115h1913v-115h-334v-1095h334zM1546 117v1095h-432v-1095h432zM555 1212v-1095h432v1095h-432z" />
    <glyph glyph-name="uni2163" unicode="&#x2163;" horiz-adv-x="1996" 
d="M1901 117v-117h-1807v117h312v1095h-312v115h1807v-115h-224l-377 -1095h601zM532 1212v-1095h566l-375 1095h-191zM1202 178l344 1034h-688z" />
    <glyph glyph-name="uni2164" unicode="&#x2164;" horiz-adv-x="1593" 
d="M1497 1327v-115h-223l-377 -1095h600v-117h-1401v117h598l-375 1095h-223v115h1401zM799 178l344 1034h-688z" />
    <glyph glyph-name="uni2165" unicode="&#x2165;" horiz-adv-x="2007" 
d="M1913 0h-1817v117h598l-375 1095h-223v115h1817v-115h-291v-1095h291v-117zM1497 1212h-223l-377 -1095h600v1095zM799 178l344 1034h-688z" />
    <glyph glyph-name="uni2166" unicode="&#x2166;" horiz-adv-x="2596" 
d="M96 0v117h598l-375 1095h-223v115h2407v-115h-324v-1095h324v-117h-2407zM2054 117v1095h-432v-1095h432zM1495 117v1095h-221l-377 -1095h598zM799 178l344 1034h-688z" />
    <glyph glyph-name="uni2167" unicode="&#x2167;" horiz-adv-x="3123" 
d="M3029 0h-2933v117h598l-375 1095h-223v115h2933v-115h-322v-1095h322v-117zM1622 1212v-1095h418v1095h-418zM2167 1212v-1095h413v1095h-413zM1497 1212h-223l-377 -1095h600v1095zM799 178l344 1034h-688z" />
    <glyph glyph-name="uni2168" unicode="&#x2168;" horiz-adv-x="1945" 
d="M1851 117v-117h-1757v117h312v1095h-312v115h1755v-115h-209l-391 -557l383 -538h219zM1108 655l-389 557h-189v-1095h193zM862 1212l316 -456l319 456h-635zM1178 557l-312 -440h621z" />
    <glyph glyph-name="uni2169" unicode="&#x2169;" horiz-adv-x="1519" 
d="M1423 1327v-115h-200l-394 -561l377 -534h217v-117h-1327v117h209l383 534l-395 561h-197v115h1327zM438 1212l320 -462l321 462h-641zM758 551l-309 -434h612z" />
    <glyph glyph-name="uni216C" unicode="&#x216c;" horiz-adv-x="1277" 
d="M1192 567v-567h-1098v117h295v1095h-295v115h733v-115h-313v-1095h551v450h127z" />
    <glyph glyph-name="uni216D" unicode="&#x216d;" horiz-adv-x="1437" 
d="M1294 451v-451h-125v195q-138 -220 -424 -220q-127 0 -241.5 46t-204 131t-142.5 218t-53 294q0 162 53 295t143 218t204 131t239 46q279 0 420 -213v186h125v-440h-125q-26 164 -132.5 259t-287.5 95q-104 0 -195.5 -37t-163 -107t-112.5 -182t-41 -251
q0 -140 40.5 -251t111 -180.5t162.5 -106t198 -36.5q98 0 176.5 29.5t129 81t80 114.5t40.5 136h125z" />
    <glyph glyph-name="uni216E" unicode="&#x216e;" horiz-adv-x="1445" 
d="M94 1327h619q125 0 237 -43t199.5 -124.5t138.5 -210t51 -287.5q0 -158 -51.5 -285.5t-139 -209t-201.5 -124.5t-242 -43h-611v117h305v1095h-305v115zM522 117h185q100 0 189 34t160 99t112.5 171.5t41.5 240.5q0 132 -40 238t-109.5 173.5t-160 103t-193.5 35.5h-185
v-1095z" />
    <glyph glyph-name="uni216F" unicode="&#x216f;" horiz-adv-x="2131" 
d="M551 1327l510 -1155l512 1155h463v-115h-281v-1095h287v-117h-649v117h237v1038l-518 -1155h-104l-516 1155v-1038h251v-117h-649v117h275v1095h-275v115h457z" />
    <glyph glyph-name="arrowleft" unicode="&#x2190;" horiz-adv-x="2086" 
d="M506 238l-422 356l422 354v-301h1433v-108h-1433v-301z" />
    <glyph glyph-name="arrowup" unicode="&#x2191;" horiz-adv-x="851" 
d="M426 1630l346 -418h-291v-1513h-110v1513h-291z" />
    <glyph glyph-name="arrowright" unicode="&#x2192;" horiz-adv-x="2086" 
d="M2003 594l-422 -356v301h-1434v108h1434v301z" />
    <glyph glyph-name="arrowdown" unicode="&#x2193;" horiz-adv-x="866" 
d="M788 98l-356 -422l-354 422h299v1510h110v-1510h301z" />
    <glyph glyph-name="uni2196" unicode="&#x2196;" horiz-adv-x="1636" 
d="M111 1452h512l-217 -217l1175 -1174l-78 -77l-1173 1173l-219 -221v516z" />
    <glyph glyph-name="uni2197" unicode="&#x2197;" horiz-adv-x="1638" 
d="M1014 1452h514v-516l-219 221l-1174 -1173l-80 77l1176 1174z" />
    <glyph glyph-name="uni2198" unicode="&#x2198;" horiz-adv-x="1640" 
d="M1528 0h-512l217 217l-1176 1174l78 77l1174 -1173l219 221v-516z" />
    <glyph glyph-name="uni2199" unicode="&#x2199;" horiz-adv-x="1642" 
d="M627 0h-514v516l219 -221l1173 1173l80 -77l-1175 -1174z" />
    <glyph glyph-name="uni21A9" unicode="&#x21a9;" horiz-adv-x="1742" 
d="M885 1231v108h344q173 0 294.5 -116t121.5 -287q0 -176 -125.5 -290t-296.5 -114h-756v-280l-399 336l399 336v-281h752q129 0 223 81.5t94 211.5q0 127 -91.5 211t-223.5 84h-336z" />
    <glyph glyph-name="uni21B0" unicode="&#x21b0;" horiz-adv-x="1480" 
d="M459 809l-400 336l400 336v-281h856v-1200h-109v1090h-747v-281z" />
    <glyph glyph-name="uni21B1" unicode="&#x21b1;" horiz-adv-x="1517" 
d="M274 0h-108v1200h895v281l397 -336l-397 -336v281h-787v-1090z" />
    <glyph glyph-name="uni21B2" unicode="&#x21b2;" horiz-adv-x="1519" 
d="M1243 1468h109v-1198h-895v-282l-398 336l398 335v-280h786v1089z" />
    <glyph glyph-name="uni21B3" unicode="&#x21b3;" horiz-adv-x="1521" 
d="M1063 659l399 -335l-399 -336v282h-895v1198h111v-1089h784v280z" />
    <glyph glyph-name="uni21B4" unicode="&#x21b4;" horiz-adv-x="1574" 
d="M70 1343v109h1157v-1081h280l-336 -398l-335 398h280v972h-1046z" />
    <glyph glyph-name="uni21B5" unicode="&#x21b5;" horiz-adv-x="2166" 
d="M387 336l-326 391h267q0 153 59.5 292.5t160 240t239.5 160t292 59.5q200 0 371 -99l-47 -96q-150 86 -324 86t-321.5 -86.5t-233.5 -234.5t-86 -322h275zM2101 727h-270q0 -153 -59.5 -292.5t-160.5 -240t-240 -160t-292 -59.5q-202 0 -370 97l47 98q150 -86 323 -86
q174 0 321.5 86t233.5 234t86 323h-270l326 391z" />
    <glyph glyph-name="uni21C6" unicode="&#x21c6;" horiz-adv-x="2140" 
d="M506 770l-400 336l400 336v-281h1476v-110h-1476v-281zM2038 348l-398 -336v281h-1478v110h1478v281z" />
    <glyph glyph-name="partialdiff" unicode="&#x2202;" horiz-adv-x="1236" 
d="M479 1366q-152 0 -284 -66l-41 101q149 78 344 78q137 0 252 -50.5t199 -146.5t130.5 -243t46.5 -332q0 -158 -34 -290.5t-100.5 -232t-172 -155.5t-241.5 -56q-97 0 -184 32.5t-153.5 92.5t-105.5 151.5t-39 201.5q0 139 66 247.5t176.5 166t245.5 57.5q134 0 243 -50.5
t172 -138.5q-4 137 -34 248t-90 199.5t-160.5 137t-235.5 48.5zM602 813q-175 0 -278 -104.5t-103 -264.5t105.5 -259t257.5 -99q84 0 153 30t114.5 79t78 115.5t47.5 136t18 143.5q-65 109 -167.5 166t-225.5 57z" />
    <glyph glyph-name="Delta" unicode="&#x2206;" horiz-adv-x="1435" 
d="M63 0l580 1452h148l581 -1452h-1309zM717 1315l-469 -1196h938z" />
    <glyph glyph-name="product" unicode="&#x220f;" horiz-adv-x="1361" 
d="M1200 0h-123v1333h-788v-1333h-127v1452h1038v-1452z" />
    <glyph glyph-name="summation" unicode="&#x2211;" horiz-adv-x="1202" 
d="M96 0v119l578 612l-578 600v121h994v-119h-834l573 -602l-585 -612h846v-119h-994z" />
    <glyph glyph-name="minus" unicode="&#x2212;" horiz-adv-x="1153" 
d="M1008 539h-863v102h863v-102z" />
    <glyph glyph-name="uni2215" unicode="&#x2215;" horiz-adv-x="751" 
d="M748 1327l-644 -1327h-120l643 1327h121z" />
    <glyph glyph-name="uni2219" unicode="&#x2219;" horiz-adv-x="493" 
d="M141 582q0 44 30.5 75t74.5 31q47 0 76.5 -30.5t29.5 -75.5t-29.5 -75t-76.5 -30q-44 0 -74.5 30.5t-30.5 74.5z" />
    <glyph glyph-name="radical" unicode="&#x221a;" horiz-adv-x="1351" 
d="M1337 1630h-258l-549 -1630h-116l-373 1061h141l293 -854l506 1538h356v-115z" />
    <glyph glyph-name="infinity" unicode="&#x221e;" horiz-adv-x="1673" 
d="M836 510q-187 -252 -383 -252q-141 0 -238.5 96.5t-97.5 237.5q0 140 97.5 238t238.5 98q207 0 385 -252q187 252 383 252q141 0 239.5 -98t98.5 -238q0 -141 -98.5 -237.5t-239.5 -96.5q-203 0 -385 252zM457 823q-98 0 -164 -68t-66 -165q0 -93 66.5 -160.5
t163.5 -67.5q88 0 164 60.5t151 169.5q-78 111 -153 171t-162 60zM1219 362q97 0 163 67t66 161q0 98 -65.5 165.5t-163.5 67.5q-87 0 -163 -60t-153 -169q79 -111 153.5 -171.5t162.5 -60.5z" />
    <glyph glyph-name="integral" unicode="&#x222b;" horiz-adv-x="659" 
d="M268 -66v1207q0 146 79.5 228.5t215.5 82.5h58v-111h-50q-84 0 -132 -53.5t-48 -154.5v-1209q0 -148 -76 -230.5t-211 -82.5h-65v110h49q82 0 131 55.5t49 157.5z" />
    <glyph glyph-name="approxequal" unicode="&#x2248;" horiz-adv-x="1261" 
d="M1047 856l69 -59q-112 -150 -270 -150q-86 0 -197 60l-96 53q-80 41 -143 41q-113 0 -195 -101l-72 62q56 77 120 115t147 38t196 -61l94 -51q82 -45 158 -45q59 0 103 23t86 75zM1047 461l69 -60q-109 -149 -270 -149q-88 0 -197 59l-96 51q-80 44 -143 44
q-112 0 -195 -103l-72 64q56 76 119.5 113.5t147.5 37.5q83 0 196 -61l94 -49q73 -46 158 -46q59 0 103 23.5t86 75.5z" />
    <glyph glyph-name="notequal" unicode="&#x2260;" horiz-adv-x="1173" 
d="M1044 338h-575l-166 -223h-127l166 223h-213v106h291l215 291h-506v105h584l161 219h127l-161 -219h204v-105h-282l-215 -291h497v-106z" />
    <glyph glyph-name="lessequal" unicode="&#x2264;" horiz-adv-x="1130" 
d="M147 236h830v-103h-830v103zM147 655v111l830 301v-113l-688 -243l688 -242v-115z" />
    <glyph glyph-name="greaterequal" unicode="&#x2265;" horiz-adv-x="1130" 
d="M154 236h829v-103h-829v103zM983 766v-111l-829 -301v115l688 242l-688 243v113z" />
    <glyph glyph-name="dotmath" unicode="&#x22c5;" horiz-adv-x="493" 
d="M141 582q0 44 30.5 75t74.5 31q47 0 76.5 -30.5t29.5 -75.5t-29.5 -75t-76.5 -30q-44 0 -74.5 30.5t-30.5 74.5z" />
    <glyph glyph-name="uni24C5" unicode="&#x24c5;" horiz-adv-x="1687" 
d="M844 1380q-131 0 -249 -51t-203.5 -138t-136 -208.5t-50.5 -257.5t50.5 -257.5t136 -208t203.5 -137t249 -50.5t249 50.5t203.5 137t136 208t50.5 257.5t-50.5 257.5t-136 208.5t-203.5 138t-249 51zM844 -27q-153 0 -291 59t-237.5 159.5t-158.5 240t-59 293.5
q0 155 59 294.5t158.5 240.5t237.5 160t291 59t291 -59t237.5 -160t158 -240.5t58.5 -294.5q0 -123 -37.5 -238t-106 -207.5t-160 -162t-205.5 -107t-236 -37.5zM719 731h172q80 0 128 43t48 115q0 73 -48 117.5t-128 44.5h-172v-320zM907 643h-188v-324h-101v820h289
q114 0 188 -71.5t74 -176.5t-74 -176.5t-188 -71.5z" />
    <glyph glyph-name="filledbox" unicode="&#x25a0;" horiz-adv-x="1751" 
d="M158 0v1452h1435v-1452h-1435z" />
    <glyph glyph-name="H22073" unicode="&#x25a1;" horiz-adv-x="1751" 
d="M1593 0h-1435v1452h1435v-1452zM264 1352v-1252h1221v1252h-1221z" />
    <glyph glyph-name="uni25AF" unicode="&#x25af;" horiz-adv-x="1175" 
d="M1018 0h-860v1452h860v-1452zM266 1348v-1244h645v1244h-645z" />
    <glyph glyph-name="triagup" unicode="&#x25b2;" horiz-adv-x="1826" 
d="M918 1487l856 -1487h-1721z" />
    <glyph glyph-name="uni25B3" unicode="&#x25b3;" horiz-adv-x="1826" 
d="M918 1487l856 -1487h-1721zM1589 100l-674 1172l-677 -1172h1351z" />
    <glyph glyph-name="lozenge" unicode="&#x25ca;" horiz-adv-x="1101" 
d="M205 725l346 -578l344 578l-344 580zM72 725l428 727h102l426 -727l-426 -725h-102z" />
    <glyph glyph-name="circle" unicode="&#x25cb;" horiz-adv-x="1716" 
d="M102 725q0 154 60 294t161 241t240.5 161t292.5 60q154 0 294.5 -60t242 -161t161.5 -241t60 -294t-60 -293.5t-161.5 -240.5t-242 -160.5t-294.5 -59.5q-153 0 -292.5 59.5t-240.5 160.5t-161 240.5t-60 293.5zM213 725q0 -177 86 -326.5t234 -236t323 -86.5
q133 0 252.5 51t205.5 138t136.5 207t50.5 253t-50.5 253t-136.5 207t-205.5 138t-252.5 51q-175 0 -323 -86.5t-234 -236t-86 -326.5z" />
    <glyph glyph-name="H18533" unicode="&#x25cf;" horiz-adv-x="1716" 
d="M102 725q0 154 60 294t161 241t240.5 161t292.5 60q154 0 294.5 -60t242 -161t161.5 -241t60 -294t-60 -293.5t-161.5 -240.5t-242 -160.5t-294.5 -59.5q-153 0 -292.5 59.5t-240.5 160.5t-161 240.5t-60 293.5z" />
    <glyph glyph-name="uni262E" unicode="&#x262e;" horiz-adv-x="1695" 
d="M1593 725q0 -152 -59 -291t-158.5 -240t-238.5 -161t-293 -60q-151 0 -288.5 60t-236.5 161t-158 240t-59 291q0 153 58.5 292.5t158 240.5t237 161t288.5 60q205 0 377.5 -101t272 -274.5t99.5 -378.5zM1485 725q0 172 -77.5 317.5t-211.5 234t-297 101.5v-559l469 -469
q117 168 117 375zM207 725q0 -208 115 -373l466 467v559q-163 -13 -296 -102t-209 -234t-76 -317zM899 666v-592q231 15 401 188zM788 666l-401 -400q163 -177 401 -192v592z" />
    <glyph glyph-name="uni2713" unicode="&#x2713;" horiz-adv-x="2002" 
d="M1950 1374l-1305 -1407l-575 643l77 74l504 -553l1221 1319z" />
    <glyph glyph-name="uni2715" unicode="&#x2715;" horiz-adv-x="1554" 
d="M1401 -8l-625 637l-622 -637l-78 78l622 637l-620 636l78 78l620 -635l621 635l80 -78l-625 -636l625 -637z" />
    <glyph glyph-name="uni2780" unicode="&#x2780;" horiz-adv-x="1699" 
d="M850 1479q153 0 291.5 -59.5t238.5 -161t158.5 -241t58.5 -292.5q0 -152 -58.5 -291t-158.5 -240t-238.5 -161t-291.5 -60q-204 0 -376.5 101.5t-272 274.5t-99.5 376q0 153 59 292.5t158.5 241t238.5 161t292 59.5zM850 1382q-131 0 -249.5 -51t-204.5 -138.5
t-136.5 -209.5t-50.5 -258q0 -179 86 -330t233.5 -238t321.5 -87t321.5 87t233.5 238t86 330q0 136 -50.5 258t-136.5 209.5t-204.5 138.5t-249.5 51zM922 356h-105v586q-27 -30 -74.5 -51t-103.5 -25v80q75 10 123 53t59 101h101v-744z" />
    <glyph glyph-name="uni2781" unicode="&#x2781;" horiz-adv-x="1699" 
d="M850 1479q153 0 291.5 -59.5t238.5 -161t158.5 -241t58.5 -292.5q0 -152 -58.5 -291t-158.5 -240t-238.5 -161t-291.5 -60q-204 0 -376.5 101.5t-272 274.5t-99.5 376q0 153 59 292.5t158.5 241t238.5 161t292 59.5zM850 1382q-131 0 -249.5 -51t-204.5 -138.5
t-136.5 -209.5t-50.5 -258q0 -179 86 -330t233.5 -238t321.5 -87t321.5 87t233.5 238t86 330q0 136 -50.5 258t-136.5 209.5t-204.5 138.5t-249.5 51zM690 827l-102 7q-4 28 -4 49q0 98 72 165.5t190 67.5q115 0 185.5 -65t70.5 -160q0 -129 -148 -221l-151 -95
q-84 -55 -94 -124h401v-91h-528v11q0 176 159 276l142 86q112 70 112 160q0 57 -41 96t-110 39q-70 0 -114 -41.5t-44 -112.5q0 -15 4 -47z" />
    <glyph glyph-name="uni2782" unicode="&#x2782;" horiz-adv-x="1699" 
d="M850 1479q153 0 291.5 -59.5t238.5 -161t158.5 -241t58.5 -292.5q0 -152 -58.5 -291t-158.5 -240t-238.5 -161t-291.5 -60q-204 0 -376.5 101.5t-272 274.5t-99.5 376q0 153 59 292.5t158.5 241t238.5 161t292 59.5zM850 1382q-131 0 -249.5 -51t-204.5 -138.5
t-136.5 -209.5t-50.5 -258q0 -179 86 -330t233.5 -238t321.5 -87t321.5 87t233.5 238t86 330q0 136 -50.5 258t-136.5 209.5t-204.5 138.5t-249.5 51zM784 721l-45 80l234 213h-400v90h537v-86l-238 -213q3 0 9.5 1t9.5 1q100 -5 167.5 -61.5t67.5 -157.5t-78.5 -171.5
t-203.5 -70.5q-122 0 -200.5 61t-90.5 156l94 35q6 -73 62.5 -118.5t132.5 -45.5q78 0 128 44t50 110q0 69 -49 106t-121 37q-33 0 -66 -10z" />
    <glyph glyph-name="uni2783" unicode="&#x2783;" horiz-adv-x="1699" 
d="M850 1479q153 0 291.5 -59.5t238.5 -161t158.5 -241t58.5 -292.5q0 -152 -58.5 -291t-158.5 -240t-238.5 -161t-291.5 -60q-204 0 -376.5 101.5t-272 274.5t-99.5 376q0 153 59 292.5t158.5 241t238.5 161t292 59.5zM850 1382q-131 0 -249.5 -51t-204.5 -138.5
t-136.5 -209.5t-50.5 -258q0 -179 86 -330t233.5 -238t321.5 -87t321.5 87t233.5 238t86 330q0 136 -50.5 258t-136.5 209.5t-204.5 138.5t-249.5 51zM489 528v105l369 471h125v-483h145v-93h-145v-168h-104v168h-390zM879 621v366l-287 -366h287z" />
    <glyph glyph-name="uni2784" unicode="&#x2784;" horiz-adv-x="1699" 
d="M850 1479q153 0 291.5 -59.5t238.5 -161t158.5 -241t58.5 -292.5q0 -152 -58.5 -291t-158.5 -240t-238.5 -161t-291.5 -60q-204 0 -376.5 101.5t-272 274.5t-99.5 376q0 153 59 292.5t158.5 241t238.5 161t292 59.5zM850 1382q-131 0 -249.5 -51t-204.5 -138.5
t-136.5 -209.5t-50.5 -258q0 -179 86 -330t233.5 -238t321.5 -87t321.5 87t233.5 238t86 330q0 136 -50.5 258t-136.5 209.5t-204.5 138.5t-249.5 51zM555 543l92 41q11 -67 62 -110.5t122 -43.5q78 0 127.5 46t49.5 118q0 73 -49 117.5t-125 44.5q-96 0 -160 -70l-92 33
l100 379h401v-90h-331l-62 -232q64 64 170 64q115 0 184.5 -67t69.5 -177q0 -108 -78 -182t-205 -74q-106 0 -185 60.5t-91 142.5z" />
    <glyph glyph-name="uni2785" unicode="&#x2785;" horiz-adv-x="1699" 
d="M850 1479q153 0 291.5 -59.5t238.5 -161t158.5 -241t58.5 -292.5q0 -152 -58.5 -291t-158.5 -240t-238.5 -161t-291.5 -60q-204 0 -376.5 101.5t-272 274.5t-99.5 376q0 153 59 292.5t158.5 241t238.5 161t292 59.5zM850 1382q-131 0 -249.5 -51t-204.5 -138.5
t-136.5 -209.5t-50.5 -258q0 -179 86 -330t233.5 -238t321.5 -87t321.5 87t233.5 238t86 330q0 136 -50.5 258t-136.5 209.5t-204.5 138.5t-249.5 51zM1077 1073l-26 -82q-56 33 -142 33q-127 0 -202.5 -82.5t-83.5 -212.5q24 52 84.5 87.5t132.5 35.5q117 0 190.5 -69
t73.5 -185q0 -113 -83 -184.5t-204 -71.5q-129 0 -214 91.5t-85 252.5q0 199 110 312.5t275 113.5q112 0 174 -39zM641 598q0 -73 53 -119.5t125 -46.5q74 0 126 46.5t52 119.5q0 76 -51.5 121t-126.5 45q-73 0 -125.5 -45.5t-52.5 -120.5z" />
    <glyph glyph-name="uni2786" unicode="&#x2786;" horiz-adv-x="1699" 
d="M850 1479q153 0 291.5 -59.5t238.5 -161t158.5 -241t58.5 -292.5q0 -152 -58.5 -291t-158.5 -240t-238.5 -161t-291.5 -60q-204 0 -376.5 101.5t-272 274.5t-99.5 376q0 153 59 292.5t158.5 241t238.5 161t292 59.5zM850 1382q-131 0 -249.5 -51t-204.5 -138.5
t-136.5 -209.5t-50.5 -258q0 -179 86 -330t233.5 -238t321.5 -87t321.5 87t233.5 238t86 330q0 136 -50.5 258t-136.5 209.5t-204.5 138.5t-249.5 51zM1133 1098v-97q-297 -235 -340 -647h-111q11 105 41.5 204t65 166.5t79 130.5t73 93.5t58.5 59.5h-450v90h584z" />
    <glyph glyph-name="uni2787" unicode="&#x2787;" horiz-adv-x="1699" 
d="M850 1479q153 0 291.5 -59.5t238.5 -161t158.5 -241t58.5 -292.5q0 -152 -58.5 -291t-158.5 -240t-238.5 -161t-291.5 -60q-204 0 -376.5 101.5t-272 274.5t-99.5 376q0 153 59 292.5t158.5 241t238.5 161t292 59.5zM850 1382q-131 0 -249.5 -51t-204.5 -138.5
t-136.5 -209.5t-50.5 -258q0 -179 86 -330t233.5 -238t321.5 -87t321.5 87t233.5 238t86 330q0 136 -50.5 258t-136.5 209.5t-204.5 138.5t-249.5 51zM850 780q69 0 112.5 34t43.5 89t-42.5 90t-113.5 35q-72 0 -114 -35t-42 -90q0 -56 42 -89.5t114 -33.5zM850 432
q83 0 128.5 36t45.5 95t-45 96t-129 37t-130 -37t-46 -96q0 -58 46.5 -94.5t129.5 -36.5zM850 342q-132 0 -207.5 60t-75.5 153q0 62 42 112t110 70q-58 21 -93.5 66t-35.5 104q0 91 71.5 148t188.5 57t188.5 -57t71.5 -148q0 -59 -35 -104.5t-96 -65.5q69 -20 110 -69.5
t41 -112.5q0 -94 -74.5 -153.5t-205.5 -59.5z" />
    <glyph glyph-name="uni2788" unicode="&#x2788;" horiz-adv-x="1699" 
d="M850 1479q153 0 291.5 -59.5t238.5 -161t158.5 -241t58.5 -292.5q0 -152 -58.5 -291t-158.5 -240t-238.5 -161t-291.5 -60q-204 0 -376.5 101.5t-272 274.5t-99.5 376q0 153 59 292.5t158.5 241t238.5 161t292 59.5zM850 1382q-131 0 -249.5 -51t-204.5 -138.5
t-136.5 -209.5t-50.5 -258q0 -179 86 -330t233.5 -238t321.5 -87t321.5 87t233.5 238t86 330q0 136 -50.5 258t-136.5 209.5t-204.5 138.5t-249.5 51zM600 385l27 82q66 -37 149 -37q124 0 198.5 77.5t78.5 223.5q-23 -56 -82 -90.5t-131 -34.5q-113 0 -189 69t-76 183
q0 108 83 181t202 73q128 0 212.5 -90.5t84.5 -249.5q0 -198 -98 -315t-279 -117q-108 0 -180 45zM1032 858q0 73 -51 118.5t-125 45.5t-124 -45.5t-50 -118.5t50 -118.5t124 -45.5t125 45.5t51 118.5z" />
    <glyph glyph-name="uniE000" unicode="&#xe000;" horiz-adv-x="1574" 
d="M403 -27l-335 398h280v1081h1157v-109h-1046v-972h280z" />
    <glyph glyph-name="uniE002" unicode="&#xe002;" horiz-adv-x="1955" 
d="M1241 727l326 391l325 -391h-264q0 -153 -60 -292.5t-161 -240t-240.5 -160t-292.5 -59.5t-292.5 59.5t-239.5 160t-159.5 240t-59.5 292.5t59.5 292.5t159.5 240t239.5 160t292.5 59.5q200 0 371 -99l-47 -96q-150 86 -324 86t-321.5 -86.5t-233.5 -234.5t-86 -322
q0 -175 86 -323.5t233.5 -235t321.5 -86.5q175 0 323.5 86.5t234.5 235t86 323.5h-277z" />
    <glyph glyph-name="commaaccent" unicode="&#xf6c3;" horiz-adv-x="387" 
d="M96 1329q0 38 27.5 62t66.5 24q42 0 73.5 -30t31.5 -91q0 -97 -60 -155.5t-143 -63.5v62q54 4 89 37t40 81q-12 -12 -39 -12q-38 0 -62 23t-24 63z" />
    <glyph glyph-name="uniFB00" unicode="&#xfb00;" horiz-adv-x="1277" 
d="M1241 977v-111h-272v-866h-123v866h-488v-866h-122v866h-201v111h201v203q0 150 81 232.5t209 82.5q65 0 111 -20v-111q-36 16 -92 16q-82 0 -134.5 -48.5t-52.5 -157.5v-197h488v203q0 150 81.5 232.5t209.5 82.5q64 0 110 -20v-111q-36 16 -92 16q-82 0 -134 -48.5
t-52 -157.5v-197h272z" />
    <glyph glyph-name="fi" unicode="&#xfb01;" horiz-adv-x="1136" 
d="M809 1382q0 44 29.5 73.5t72.5 29.5t73 -29.5t30 -73.5t-30 -73t-73 -29t-72.5 29t-29.5 73zM850 866h-492v-866h-122v866h-201v111h201v203q0 150 81 232.5t209 82.5q65 0 111 -20v-111q-36 16 -92 16q-82 0 -134.5 -48.5t-52.5 -157.5v-197h615v-977h-123v866z" />
    <glyph glyph-name="fl" unicode="&#xfb02;" horiz-adv-x="1136" 
d="M850 977v502h123v-1479h-123v866h-492v-866h-122v866h-201v111h201v203q0 150 81 232.5t209 82.5q65 0 111 -20v-111q-36 16 -92 16q-82 0 -134.5 -48.5t-52.5 -157.5v-197h492z" />
    <glyph glyph-name="uniFB03" unicode="&#xfb03;" horiz-adv-x="1746" 
d="M1583 977v-977h-123v866h-491v-866h-123v866h-488v-866h-122v866h-201v111h201v203q0 150 81 232.5t209 82.5q65 0 111 -20v-111q-36 16 -92 16q-82 0 -134.5 -48.5t-52.5 -157.5v-197h488v203q0 150 81.5 232.5t209.5 82.5q64 0 110 -20v-111q-36 16 -92 16
q-82 0 -134 -48.5t-52 -157.5v-197h614zM1419 1382q0 44 30 73.5t73 29.5t72.5 -29.5t29.5 -73.5t-29.5 -73t-72.5 -29t-73 29t-30 73z" />
    <glyph glyph-name="uniFB04" unicode="&#xfb04;" horiz-adv-x="1746" 
d="M969 1174v-197h491v502h123v-1479h-123v866h-491v-866h-123v866h-488v-866h-122v866h-201v111h201v203q0 150 81 232.5t209 82.5q65 0 111 -20v-111q-36 16 -92 16q-82 0 -134.5 -48.5t-52.5 -157.5v-197h488v203q0 150 81.5 232.5t209.5 82.5q64 0 110 -20v-111
q-36 16 -92 16q-82 0 -134 -48.5t-52 -157.5z" />
    <glyph glyph-name="uniFEFF" unicode="&#xfeff;" horiz-adv-x="0" 
 />
    <glyph glyph-name="i.latn_TRK" horiz-adv-x="450" 
d="M287 0h-123v977h123v-977zM123 1382q0 44 29.5 73.5t72.5 29.5t73 -29.5t30 -73.5t-30 -73t-73 -29t-72.5 29t-29.5 73z" />
    <glyph glyph-name="Ldot.latn_CAT" horiz-adv-x="1124" 
d="M612 764q0 44 31.5 76t75.5 32q47 0 77.5 -31.5t30.5 -76.5t-30.5 -76t-77.5 -31q-44 0 -75.5 31.5t-31.5 75.5zM1071 0h-864v1452h131v-1333h733v-119z" />
    <glyph glyph-name="ldot.latn_CAT" horiz-adv-x="567" 
d="M287 0h-123v1479h123v-1479zM403 664q0 41 28 68.5t69 27.5t68.5 -27.5t27.5 -68.5t-27.5 -69t-68.5 -28t-69 28t-28 69z" />
    <glyph glyph-name="zero.numr" horiz-adv-x="774" 
d="M190 954q0 -57 9 -105.5t30 -93.5t61 -70.5t97 -25.5t97 25.5t61 70.5t30 93.5t9 105.5q0 56 -9 104.5t-30 93t-61 70t-97 25.5t-97 -25.5t-61 -70t-30 -93t-9 -104.5zM84 954q0 167 74 275q82 110 229 110t229 -110q74 -104 74 -275q0 -175 -74 -274q-83 -111 -229 -111
t-229 111q-74 102 -74 274z" />
    <glyph glyph-name="one.numr" horiz-adv-x="442" 
d="M336 584h-105v585q-27 -30 -74.5 -50.5t-103.5 -24.5v80q75 10 123.5 52.5t59.5 100.5h100v-743z" />
    <glyph glyph-name="two.numr" horiz-adv-x="690" 
d="M190 1051l-102 6q-4 28 -4 49q0 98 72 165.5t190 67.5q115 0 185.5 -65t70.5 -160q0 -129 -147 -221l-152 -94q-84 -55 -94 -125h401v-90h-528v10q0 176 160 276l141 86q113 70 113 160q0 56 -41.5 95.5t-110.5 39.5q-70 0 -114 -41t-44 -112q0 -15 4 -47z" />
    <glyph glyph-name="three.numr" horiz-adv-x="727" 
d="M303 944l-45 80l234 213h-400v90h537v-86l-238 -213q3 0 9.5 1t9.5 1q100 -5 167.5 -61.5t67.5 -157.5t-79 -171.5t-204 -70.5q-121 0 -199.5 61t-90.5 156l94 35q6 -73 62 -118.5t132 -45.5q78 0 128.5 44t50.5 110q0 69 -49 106t-121 37q-33 0 -66 -10z" />
    <glyph glyph-name="four.numr" horiz-adv-x="753" 
d="M57 752v104l369 471h125v-483h145v-92h-145v-168h-105v168h-389zM446 844v366l-286 -366h286z" />
    <glyph glyph-name="five.numr" horiz-adv-x="696" 
d="M61 772l93 41q11 -67 62 -110.5t122 -43.5q78 0 127 46t49 118q0 73 -49 117.5t-125 44.5q-96 0 -160 -70l-92 33l100 379h402v-90h-332l-61 -231q63 63 170 63q115 0 184.5 -67t69.5 -177q0 -108 -78 -182t-205 -74q-106 0 -185.5 60.5t-91.5 142.5z" />
    <glyph glyph-name="six.numr" horiz-adv-x="741" 
d="M641 1300l-27 -81q-54 32 -141 32q-127 0 -203 -82.5t-84 -212.5q24 52 84.5 87.5t132.5 35.5q117 0 191 -69t74 -185q0 -113 -83 -184.5t-204 -71.5q-129 0 -214 91.5t-85 252.5q0 199 110 312.5t275 113.5q112 0 174 -39zM205 825q0 -73 53 -119.5t125 -46.5
q74 0 126 46.5t52 119.5q0 76 -51.5 121t-126.5 45q-73 0 -125.5 -45.5t-52.5 -120.5z" />
    <glyph glyph-name="seven.numr" horiz-adv-x="671" 
d="M633 1327v-96q-297 -235 -340 -647h-111q11 105 41.5 204t65 166t79.5 130t73 93.5t59 59.5h-451v90h584z" />
    <glyph glyph-name="eight.numr" horiz-adv-x="727" 
d="M365 1008q69 0 112 33.5t43 88.5t-42 90t-113 35q-72 0 -114 -35t-42 -90q0 -56 42 -89t114 -33zM365 659q83 0 128.5 36.5t45.5 95.5t-45 96t-129 37t-130.5 -37t-46.5 -96t47 -95.5t130 -36.5zM365 569q-132 0 -207.5 60t-75.5 153q0 63 41.5 113t109.5 70
q-58 21 -93.5 66t-35.5 104q0 91 72 147.5t189 56.5t188.5 -56.5t71.5 -147.5q0 -59 -35 -104.5t-96 -65.5q69 -20 110 -70t41 -113q0 -94 -74.5 -153.5t-205.5 -59.5z" />
    <glyph glyph-name="nine.numr" horiz-adv-x="737" 
d="M98 612l27 82q66 -37 149 -37q124 0 198.5 77.5t78.5 223.5q-23 -55 -82 -89.5t-131 -34.5q-113 0 -188.5 68.5t-75.5 182.5q0 108 82.5 181t201.5 73q128 0 212.5 -90.5t84.5 -249.5q0 -198 -97.5 -315t-278.5 -117q-109 0 -181 45zM530 1085q0 73 -51 118.5t-125 45.5
t-124 -45.5t-50 -118.5t50 -118t124 -45t125 45t51 118z" />
    <glyph glyph-name="zero.dnom" horiz-adv-x="778" 
d="M193 371q0 -57 9 -105.5t29.5 -93.5t60.5 -70.5t97 -25.5t97 25.5t61 70.5t30 93.5t9 105.5q0 56 -9 104.5t-30 93t-61 70t-97 25.5t-97 -25.5t-60.5 -70.5t-29.5 -93t-9 -104zM86 371q0 166 74 274q83 111 229 111t229 -111q74 -104 74 -274q0 -176 -74 -275
q-82 -110 -229 -110t-229 110q-74 102 -74 275z" />
    <glyph glyph-name="one.dnom" horiz-adv-x="448" 
d="M340 0h-104v586q-27 -30 -75 -51t-104 -25v80q75 10 123.5 52.5t59.5 100.5h100v-743z" />
    <glyph glyph-name="two.dnom" horiz-adv-x="696" 
d="M193 467l-103 6q-4 28 -4 49q0 98 72 166t190 68q115 0 185.5 -65.5t70.5 -160.5q0 -129 -147 -221l-152 -94q-84 -55 -94 -125h401v-90h-528v10q0 177 160 277l141 86q113 70 113 159q0 57 -41.5 96.5t-110.5 39.5q-70 0 -114 -41.5t-44 -112.5q0 -7 5 -47z" />
    <glyph glyph-name="three.dnom" horiz-adv-x="731" 
d="M305 360l-45 80l234 213h-400v90h537v-86l-238 -213q3 0 9.5 1t9.5 1q100 -5 167.5 -61.5t67.5 -157.5t-78.5 -171t-203.5 -70q-122 0 -200.5 61t-90.5 156l94 35q6 -73 62 -118.5t132 -45.5q78 0 128.5 43.5t50.5 109.5q0 69 -49 106.5t-121 37.5q-29 0 -66 -11z" />
    <glyph glyph-name="four.dnom" horiz-adv-x="755" 
d="M57 168v104l369 471h125v-483h145v-92h-145v-168h-105v168h-389zM446 260v367l-286 -367h286z" />
    <glyph glyph-name="five.dnom" horiz-adv-x="700" 
d="M63 188l93 41q11 -67 62 -110t122 -43q78 0 127 46t49 118q0 73 -49 117t-125 44q-97 0 -160 -69l-92 33l100 378h402v-90h-332l-61 -231q63 63 170 63q115 0 184.5 -66.5t69.5 -176.5q0 -108 -78 -182t-205 -74q-106 0 -185.5 60t-91.5 142z" />
    <glyph glyph-name="six.dnom" horiz-adv-x="745" 
d="M643 717l-27 -82q-56 33 -141 33q-127 0 -203 -82.5t-84 -212.5q24 52 85 87.5t133 35.5q117 0 190.5 -69t73.5 -185q0 -113 -83 -184.5t-204 -71.5q-129 0 -214 91.5t-85 252.5q0 199 110 312.5t275 113.5q112 0 174 -39zM207 242q0 -73 53 -119.5t125 -46.5
q74 0 126 46.5t52 119.5q0 76 -51.5 121t-126.5 45q-73 0 -125.5 -45.5t-52.5 -120.5z" />
    <glyph glyph-name="seven.dnom" horiz-adv-x="675" 
d="M635 743v-96q-297 -235 -340 -647h-111q11 105 41.5 204t65 166t79.5 130t73 93.5t59 59.5h-451v90h584z" />
    <glyph glyph-name="eight.dnom" horiz-adv-x="731" 
d="M367 424q69 0 112 34t43 89t-42 90t-113 35q-72 0 -114 -35t-42 -90q0 -56 42 -89.5t114 -33.5zM367 76q83 0 128.5 36t45.5 95t-45 96t-129 37t-130.5 -37t-46.5 -96q0 -58 47 -94.5t130 -36.5zM367 -14q-132 0 -207.5 60t-75.5 153q0 62 42 112t110 70q-58 21 -94 66
t-36 104q0 91 72 148t189 57t188.5 -57t71.5 -148q0 -59 -35 -104.5t-96 -65.5q69 -20 110 -69.5t41 -112.5q0 -94 -74.5 -153.5t-205.5 -59.5z" />
    <glyph glyph-name="nine.dnom" horiz-adv-x="741" 
d="M100 31l27 82q66 -37 149 -37q124 0 198.5 77.5t78.5 223.5q-23 -56 -82 -90.5t-131 -34.5q-113 0 -188.5 69t-75.5 183q0 108 82.5 181t201.5 73q128 0 212.5 -90.5t84.5 -249.5q0 -198 -97.5 -315t-278.5 -117q-109 0 -181 45zM532 504q0 73 -51 118.5t-125 45.5
t-124 -45.5t-50 -118.5t50 -118.5t124 -45.5t125 45.5t51 118.5z" />
    <glyph glyph-name="space.frac" horiz-adv-x="104" 
 />
    <glyph glyph-name="a.ordn" horiz-adv-x="759" 
d="M78 823q0 85 54.5 137t148.5 64l190 29q66 11 66 63q0 64 -44.5 105t-123.5 41q-77 0 -125.5 -42.5t-59.5 -115.5l-94 24q11 98 86.5 160t190.5 62q137 0 204.5 -69t67.5 -177v-346q0 -86 8 -117h-100q-8 31 -8 109q-28 -53 -88 -90t-142 -37q-108 0 -169.5 58t-61.5 142
zM324 709q104 0 158.5 63.5t54.5 179.5v47q-6 -7 -82 -24l-152 -25q-121 -23 -121 -123q0 -50 36.5 -84t105.5 -34z" />
    <glyph glyph-name="b.ordn" horiz-adv-x="866" 
d="M227 641h-100v1042h102v-475q27 58 89.5 100t152.5 42q147 0 231 -101.5t84 -259.5t-87 -262t-232 -104q-87 0 -147 42t-93 105v-129zM680 989q0 122 -61 195t-164 73q-102 0 -165 -74.5t-63 -193.5q0 -122 63 -198t165 -76t163.5 76t61.5 198z" />
    <glyph glyph-name="c.ordn" horiz-adv-x="794" 
d="M422 1255q-101 0 -169.5 -73.5t-68.5 -194.5q0 -125 68 -197.5t170 -72.5q86 0 142 48t73 112l90 -37q-27 -91 -106.5 -154t-198.5 -63q-148 0 -245 102.5t-97 261.5t97 261t245 102q121 0 197.5 -62.5t103.5 -157.5l-92 -38q-17 68 -69.5 115.5t-139.5 47.5z" />
    <glyph glyph-name="d.ordn" horiz-adv-x="862" 
d="M184 989q0 -120 62 -197t164 -77q103 0 164 76.5t61 197.5q0 119 -61 192.5t-164 73.5q-102 0 -164 -73.5t-62 -192.5zM735 1683v-911q0 -98 8 -131h-100q-8 31 -8 111v16q-30 -59 -88.5 -102t-145.5 -43q-145 0 -233 104.5t-88 261.5q0 155 88 257t231 102
q95 0 153.5 -42t80.5 -94v471h102z" />
    <glyph glyph-name="e.ordn" horiz-adv-x="804" 
d="M188 1044h433q0 94 -57 155t-158 61q-91 0 -151.5 -62.5t-66.5 -153.5zM635 868l90 -28q-31 -96 -111 -156.5t-194 -60.5q-144 0 -242 99t-98 267q0 160 95 260.5t228 100.5q153 0 239.5 -96.5t86.5 -254.5q0 -18 -4 -34h-541v-4q0 -109 69.5 -178.5t166.5 -69.5
q158 0 215 155z" />
    <glyph glyph-name="f.ordn" horiz-adv-x="501" 
d="M467 1239h-184v-600h-105v600h-137v92h137v127q0 110 58 169t157 59q53 0 80 -15v-88q-27 10 -65 10q-53 0 -89 -33.5t-36 -105.5v-123h184v-92z" />
    <glyph glyph-name="g.ordn" horiz-adv-x="845" 
d="M82 604l98 25q11 -83 67 -137t144 -54q225 0 225 256v113q-26 -56 -82.5 -92.5t-142.5 -36.5q-136 0 -222.5 94.5t-86.5 239.5q0 142 86.5 239t222.5 97q88 0 144.5 -37.5t82.5 -96.5v117h101v-635q0 -53 -9 -100t-32 -93.5t-58.5 -80t-93.5 -54t-133 -20.5
q-125 0 -212 73.5t-99 182.5zM406 766q98 0 157.5 68.5t59.5 177.5q0 107 -60 175t-157 68q-98 0 -159 -68.5t-61 -174.5q0 -110 61 -178t159 -68z" />
    <glyph glyph-name="h.ordn" horiz-adv-x="811" 
d="M229 1057v-416h-102v1042h102v-452q31 53 87 86t128 33q119 0 183.5 -74t64.5 -189v-446h-104v428q0 83 -44 134.5t-132 51.5q-81 0 -129.5 -57t-53.5 -141z" />
    <glyph glyph-name="i.ordn" horiz-adv-x="356" 
d="M229 641h-102v690h102v-690zM100 1608q0 35 21.5 57.5t56.5 22.5q33 0 55.5 -22.5t22.5 -57.5q0 -32 -23 -55t-55 -23q-35 0 -56.5 22.5t-21.5 55.5z" />
    <glyph glyph-name="j.ordn" horiz-adv-x="356" 
d="M127 559v772h102v-778q0 -96 -50.5 -150.5t-137.5 -54.5q-54 0 -82 12v89q24 -9 59 -9q109 0 109 119zM100 1610q0 35 21.5 56.5t56.5 21.5q33 0 55.5 -21.5t22.5 -56.5t-22.5 -56.5t-55.5 -21.5q-35 0 -56.5 21.5t-21.5 56.5z" />
    <glyph glyph-name="k.ordn" horiz-adv-x="741" 
d="M711 1331l-289 -287l301 -403h-129l-244 332l-121 -123v-209h-102v1042h102v-694l340 342h142z" />
    <glyph glyph-name="l.ordn" horiz-adv-x="356" 
d="M229 641h-102v1042h102v-1042z" />
    <glyph glyph-name="m.ordn" horiz-adv-x="1253" 
d="M127 641v565q0 17 -1 71l-1 54h96q0 -3 2 -47t2 -63q28 57 86 93t133 36q77 0 134 -41t81 -111q31 72 92.5 112t141.5 40q104 0 173 -67.5t69 -186.5v-455h-103v438q0 79 -43.5 128.5t-126.5 49.5q-78 0 -129 -58t-51 -138v-420h-102v438q0 79 -43 128.5t-125 49.5
q-80 0 -131.5 -57.5t-51.5 -140.5v-418h-102z" />
    <glyph glyph-name="n.ordn" horiz-adv-x="811" 
d="M229 1053v-412h-102v573q0 19 -2 65t-2 52h100q0 -1 2 -44t2 -66q30 58 88 93.5t131 35.5q118 0 182 -74.5t64 -188.5v-446h-102v430q0 82 -45 133t-133 51q-84 0 -132.5 -57t-50.5 -145z" />
    <glyph glyph-name="o.ordn" horiz-adv-x="849" 
d="M424 715q101 0 171.5 74t70.5 198t-70.5 197t-171.5 73t-171.5 -73t-70.5 -197t70.5 -198t171.5 -74zM424 1350q148 0 247 -102t99 -261q0 -161 -98.5 -262.5t-247.5 -101.5q-148 0 -246 101.5t-98 262.5q0 160 98 261.5t246 101.5z" />
    <glyph glyph-name="p.ordn" horiz-adv-x="864" 
d="M229 367h-102v964h100v-129q28 61 90.5 103.5t153.5 42.5q144 0 228.5 -102t84.5 -259q0 -158 -86.5 -261t-230.5 -103q-87 0 -148.5 40.5t-89.5 96.5v-393zM682 987q0 118 -62.5 193t-164.5 75t-165 -75t-63 -193q0 -119 63 -195.5t165 -76.5t164.5 77t62.5 195z" />
    <glyph glyph-name="q.ordn" horiz-adv-x="864" 
d="M737 367h-102v395q-30 -58 -90.5 -98.5t-147.5 -40.5q-142 0 -229.5 104.5t-87.5 261.5q0 154 85.5 256.5t229.5 102.5q93 0 154.5 -44t85.5 -102v129h102v-964zM182 989q0 -120 63 -197t165 -77t164.5 76t62.5 198q0 117 -62.5 191.5t-164.5 74.5t-165 -74t-63 -192z
" />
    <glyph glyph-name="r.ordn" horiz-adv-x="526" 
d="M492 1335v-110q-24 8 -62 8q-91 0 -145 -57.5t-54 -171.5v-363h-104v690h98q2 -23 2 -125q57 133 211 133q26 0 54 -4z" />
    <glyph glyph-name="s.ordn" horiz-adv-x="667" 
d="M72 827l92 29q8 -65 54.5 -106t123.5 -41q66 0 105.5 31t39.5 81q0 42 -29 71t-81 40l-113 22q-79 18 -125.5 67.5t-46.5 121.5q0 86 70 146.5t168 60.5q113 0 175.5 -56.5t76.5 -130.5l-90 -30q-8 55 -48.5 93t-113.5 38q-57 0 -97 -32.5t-40 -82.5q0 -81 100 -102
l110 -23q88 -19 136.5 -69.5t48.5 -125.5q0 -84 -66.5 -145t-179.5 -61q-121 0 -191.5 61.5t-78.5 142.5z" />
    <glyph glyph-name="t.ordn" horiz-adv-x="514" 
d="M283 1554v-223h174v-92h-174v-395q0 -119 112 -119q39 0 62 10v-88q-23 -14 -90 -14q-88 0 -137.5 50.5t-49.5 145.5v410h-141v92h49q100 0 100 103v120h95z" />
    <glyph glyph-name="u.ordn" horiz-adv-x="815" 
d="M592 743q-26 -53 -83 -86.5t-132 -33.5q-124 0 -191 79t-67 195v434h102v-418q0 -85 45 -141.5t133 -56.5q85 0 135 56t50 140v420h104v-561q0 -98 8 -129h-98q-6 25 -6 102z" />
    <glyph glyph-name="v.ordn" horiz-adv-x="704" 
d="M680 1331l-274 -690h-105l-278 690h114l217 -569l215 569h111z" />
    <glyph glyph-name="w.ordn" horiz-adv-x="1150" 
d="M522 1331h109l198 -561l172 561h109l-225 -690h-111l-199 567l-196 -567h-113l-227 690h111l176 -561z" />
    <glyph glyph-name="x.ordn" horiz-adv-x="710" 
d="M33 641l262 350l-252 340h123l190 -264l191 264h121l-250 -338q18 -27 132.5 -182t129.5 -170h-123l-203 277q0 -3 -99 -140t-101 -137h-121z" />
    <glyph glyph-name="y.ordn" horiz-adv-x="712" 
d="M252 360h-111l170 369l-295 602h117l236 -493l217 493h110z" />
    <glyph glyph-name="z.ordn" horiz-adv-x="704" 
d="M629 641h-553v90l416 508h-410v92h539v-90l-418 -510h426v-90z" />
    <glyph glyph-name="space.tf" 
 />
    <glyph glyph-name="numbersign.tf" 
d="M979 1327l-80 -369h219v-102h-239l-84 -381h223v-102h-246l-78 -373h-116l81 373h-305l-80 -373h-114l80 373h-203v102h225l82 381h-207v102h228l79 369h115l-78 -369h301l80 369h117zM459 856l-84 -381h305l84 381h-305z" />
    <glyph glyph-name="dollar.tf" 
d="M635 -219h-100v205q-94 7 -172.5 43t-131.5 90.5t-85 120.5t-40 137l119 37q13 -122 94 -211.5t216 -106.5v525l-76 16q-137 31 -218 117.5t-81 222.5q0 142 107 242t268 118v209h100v-211q83 -6 150.5 -34.5t113 -73t74 -97.5t41.5 -114l-113 -39q-19 98 -85 165
t-181 83v-504l63 -16q154 -40 241 -129.5t87 -225.5q0 -144 -107 -248t-284 -116v-205zM903 344q0 90 -59.5 153.5t-165.5 88.5l-43 10v-502q126 12 197 80.5t71 169.5zM285 983q0 -175 202 -227l48 -11v484q-108 -14 -179 -80t-71 -166z" />
    <glyph glyph-name="percent.tf" 
d="M1079 1071v-121l-987 -671v118zM143 1065q0 -75 50 -125.5t124 -50.5q75 0 126 50.5t51 125.5t-51 124.5t-126 49.5q-74 0 -124 -49.5t-50 -124.5zM43 1065q0 116 79 194t195 78t196.5 -78t80.5 -194q0 -115 -80.5 -194.5t-196.5 -79.5q-115 0 -194.5 79.5t-79.5 194.5z
M653 258q0 -75 50 -125.5t124 -50.5q75 0 124.5 50.5t49.5 125.5t-49.5 125.5t-124.5 50.5q-74 0 -124 -50.5t-50 -125.5zM553 258q0 116 79 194t195 78t195.5 -78t79.5 -194t-79.5 -194t-195.5 -78t-195 78t-79 194z" />
    <glyph glyph-name="plus.tf" 
d="M125 641h397v424h109v-424h399v-102h-399v-430h-109v430h-397v102z" />
    <glyph glyph-name="comma.tf" 
d="M465 98q0 42 31.5 72.5t78.5 30.5q50 0 85.5 -38.5t35.5 -107.5q0 -143 -72 -238.5t-171 -117.5v76q67 23 109 88t44 139q-10 -10 -39 -10q-43 0 -72.5 29.5t-29.5 76.5z" />
    <glyph glyph-name="period.tf" 
d="M471 98q0 44 31.5 76.5t75.5 32.5q46 0 77 -32t31 -77t-30.5 -75.5t-77.5 -30.5q-44 0 -75.5 31t-31.5 75z" />
    <glyph glyph-name="zero.tf" 
d="M578 88q73 0 131 25t96.5 70t65.5 99.5t41 122.5t20 130t6 129q0 54 -4 105.5t-14.5 110t-27 108.5t-45 97.5t-65 80.5t-89 53t-115.5 20q-73 0 -132 -26t-97.5 -72t-65.5 -101.5t-40.5 -123.5t-19.5 -128t-6 -124q0 -82 8.5 -156t32.5 -153.5t62.5 -136t104.5 -93.5
t153 -37zM578 -27q-130 0 -226.5 58.5t-156.5 161.5q-101 174 -101 471q0 304 103 473q126 217 381 217q254 0 380 -217q103 -169 103 -473q0 -299 -100 -471q-60 -103 -156.5 -161.5t-226.5 -58.5z" />
    <glyph glyph-name="one.tf" 
d="M227 948v103q130 12 221.5 89t116.5 187h117v-1212h336v-115h-813v115h352v993q-45 -62 -141 -111t-189 -49z" />
    <glyph glyph-name="two.tf" 
d="M274 856l-127 16q-6 18 -6 64q0 176 121.5 297t319.5 121q191 0 307.5 -113t116.5 -278q0 -251 -248 -406l-287 -182q-161 -101 -180 -258h731v-117h-887q3 298 277 475l258 166q207 133 207 320q0 116 -81 198t-218 82q-140 0 -225 -88t-85 -231q0 -31 6 -66z" />
    <glyph glyph-name="three.tf" 
d="M473 664l-61 106l440 440h-717v117h883v-115l-430 -430q28 4 49 4q80 0 153 -26t131 -74t92 -123.5t34 -167.5q0 -177 -129 -299.5t-338 -122.5q-202 0 -337 118t-143 292l125 29q3 -99 54 -174.5t130 -113.5t171 -38q147 0 242.5 86.5t95.5 218.5q0 136 -92 214.5
t-228 78.5q-66 0 -125 -20z" />
    <glyph glyph-name="four.tf" 
d="M63 326v145l609 856h180v-885h233v-116h-233v-326h-125v326h-664zM727 442v764l-543 -764h543z" />
    <glyph glyph-name="five.tf" 
d="M94 369l123 37q8 -136 106 -228t240 -92q147 0 244.5 93t97.5 233q0 147 -97.5 238t-242.5 91q-174 0 -295 -133l-123 49l168 670h668v-117h-580l-118 -477q57 60 138 90.5t165 30.5q194 0 320 -122.5t126 -315.5q0 -187 -132 -315t-339 -128q-193 0 -325 116t-144 280z
" />
    <glyph glyph-name="six.tf" 
d="M1034 1280l-39 -106q-108 65 -254 65q-126 0 -226.5 -51t-163.5 -137.5t-96.5 -196.5t-33.5 -233v-9q31 106 140.5 183t256.5 77q192 0 320.5 -124.5t128.5 -325.5q0 -132 -65 -236t-171.5 -158.5t-232.5 -54.5q-224 0 -363 162.5t-139 458.5q0 185 52 332t142.5 239.5
t207 140.5t250.5 48q178 0 286 -74zM258 424q0 -148 100 -243t240 -95q142 0 241 94.5t99 243.5q0 150 -99 243t-241 93t-241 -93t-99 -243z" />
    <glyph glyph-name="seven.tf" 
d="M1085 1327v-125q-84 -77 -154.5 -153.5t-148.5 -189.5t-136 -234t-104 -283.5t-65 -341.5h-131q71 713 598 1210h-848v117h989z" />
    <glyph glyph-name="eight.tf" 
d="M578 735q134 0 219.5 72.5t85.5 183.5q0 110 -83.5 182t-221.5 72t-222 -72t-84 -182q0 -111 86 -183.5t220 -72.5zM578 86q153 0 243 76t90 192q0 118 -88.5 195.5t-244.5 77.5q-155 0 -244.5 -77.5t-89.5 -195.5q0 -116 90.5 -192t243.5 -76zM578 -27
q-212 0 -336.5 106t-124.5 265q0 124 75.5 212.5t196.5 123.5q-103 30 -173.5 118t-70.5 199q0 153 122 255t311 102t310.5 -102t121.5 -255q0 -112 -70 -200.5t-174 -116.5q120 -34 197 -123.5t77 -212.5q0 -159 -125.5 -265t-336.5 -106z" />
    <glyph glyph-name="nine.tf" 
d="M117 57l43 109q51 -35 124.5 -56.5t145.5 -21.5q241 0 367.5 153.5t128.5 432.5v39q-38 -109 -141.5 -177.5t-245.5 -68.5q-86 0 -166 30.5t-142 86t-99.5 139.5t-37.5 184q0 127 64.5 230.5t170 160t228.5 56.5q220 0 359 -164.5t139 -448.5q0 -135 -22 -249.5
t-70 -211.5t-120 -164.5t-177 -105t-236 -37.5q-80 0 -169 23.5t-144 60.5zM895 909q0 145 -100 237.5t-238 92.5q-137 0 -236.5 -92.5t-99.5 -237.5q0 -148 97.5 -239.5t238.5 -91.5q140 0 239 91.5t99 239.5z" />
    <glyph glyph-name="colon.tf" 
d="M471 877q0 44 31.5 76t75.5 32q47 0 77.5 -31.5t30.5 -76.5t-30.5 -76t-77.5 -31q-44 0 -75.5 31.5t-31.5 75.5zM471 98q0 44 31.5 76.5t75.5 32.5q46 0 77 -32t31 -77t-30.5 -75.5t-77.5 -30.5q-44 0 -75.5 31t-31.5 75z" />
    <glyph glyph-name="semicolon.tf" 
d="M467 877q0 44 31 76t75 32q47 0 78 -31.5t31 -76.5t-31 -76t-78 -31q-44 0 -75 31.5t-31 75.5zM469 98q0 42 32 72.5t79 30.5q50 0 85 -38.5t35 -107.5q0 -143 -72 -238.5t-171 -117.5v76q67 23 109 88t44 139q-10 -10 -39 -10q-43 0 -72.5 29.5t-29.5 76.5z" />
    <glyph glyph-name="less.tf" 
d="M141 535v110l824 424v-125l-701 -354l701 -354v-125z" />
    <glyph glyph-name="equal.tf" 
d="M1036 735h-915v105h915v-105zM1036 338h-915v106h915v-106z" />
    <glyph glyph-name="greater.tf" 
d="M1016 645v-110l-823 -424v125l700 354l-700 354v125z" />
    <glyph glyph-name="cent.tf" 
d="M651 0h-102v195q-176 20 -287.5 152.5t-111.5 324.5q0 193 112 324t287 151v180h102v-178q142 -7 236 -87.5t129 -199.5l-109 -43q-23 83 -88 147.5t-168 75.5v-743q105 11 170 74.5t94 148.5l107 -43q-37 -114 -132.5 -194.5t-238.5 -91.5v-193zM272 672
q0 -150 77 -247.5t200 -121.5v735q-123 -21 -200 -118t-77 -248z" />
    <glyph glyph-name="sterling.tf" 
d="M129 705h154q-3 7 -14.5 32t-15.5 34t-13 32t-13 35t-10 32.5t-9 36.5t-5 35.5t-2 38.5q0 161 111.5 267t279.5 106q100 0 178 -30.5t126 -83t73.5 -115.5t29.5 -134l-127 -24q-7 129 -81 200.5t-197 71.5q-113 0 -188.5 -71.5t-75.5 -186.5q0 -34 9.5 -74.5t16 -59.5
t30.5 -76t28 -66h409v-115h-372q14 -58 14 -98q0 -110 -58.5 -211.5t-148.5 -165.5h438q117 0 179.5 72t70.5 192l123 -19q-8 -164 -98 -262t-246 -98h-614v123q96 62 163.5 158.5t67.5 189.5q0 60 -20 119h-193v115z" />
    <glyph glyph-name="currency.tf" 
d="M145 465q0 153 95 272l-148 154l80 78l145 -156q117 90 267 90q138 0 254 -82l145 148l78 -78l-141 -146q102 -123 102 -280q0 -159 -98 -277l139 -141l-78 -78l-141 144q-116 -86 -260 -86q-153 0 -271 94l-145 -152l-78 78l148 150q-93 121 -93 268zM256 465
q0 -136 95.5 -232t232.5 -96t232 96t95 232t-95 232t-232 96t-232.5 -96t-95.5 -232z" />
    <glyph glyph-name="yen.tf" 
d="M1018 334h-375v-334h-127v334h-377v102h377v168h-377v103h312l-383 620h151l361 -610l360 610h150l-383 -620h311v-103h-375v-168h375v-102z" />
    <glyph glyph-name="section.tf" 
d="M207 582q0 88 51.5 156.5t126.5 99.5q-182 111 -182 299q0 150 111 246t266 96q173 0 274.5 -101.5t106.5 -263.5l-119 -27q-2 132 -71.5 209.5t-192.5 77.5q-104 0 -179 -63t-75 -164q0 -139 155 -221l215 -117q61 -32 102 -59.5t79 -65.5t56.5 -85t18.5 -105
q0 -88 -52 -154.5t-132 -101.5q192 -113 192 -299q0 -150 -113 -246t-272 -96q-173 0 -275.5 100.5t-107.5 265.5l115 25q5 -130 76.5 -208.5t196.5 -78.5q112 0 185 62t73 163q0 76 -39.5 130.5t-118.5 97.5l-215 114q-129 66 -192.5 135t-63.5 179zM485 393l201 -110
q60 21 101.5 73.5t41.5 118.5q0 70 -38 119t-119 92l-203 107q-60 -25 -100.5 -76.5t-40.5 -116.5q0 -67 38.5 -115.5t118.5 -91.5z" />
    <glyph glyph-name="logicalnot.tf" 
d="M1020 322h-111v411h-790v111h901v-522z" />
    <glyph glyph-name="plusminus.tf" 
d="M137 764h385v299h109v-299h387v-102h-387v-300h-109v300h-385v102zM137 236h881v-103h-881v103z" />
    <glyph glyph-name="multiply.tf" 
d="M1018 969l-367 -381l367 -381l-74 -76l-366 381l-365 -377l-74 74l365 379l-363 379l74 75l363 -378l364 378z" />
    <glyph glyph-name="divide.tf" 
d="M129 535v108h901v-108h-901zM481 952q0 41 29 70t70 29t69.5 -29t28.5 -70t-28.5 -69.5t-69.5 -28.5t-70 28.5t-29 69.5zM481 225q0 41 29 70t70 29t69.5 -29t28.5 -70t-28.5 -69.5t-69.5 -28.5t-70 28.5t-29 69.5z" />
    <glyph glyph-name="florin.tf" 
d="M317 23l168 843h-239v111h262l47 231q28 141 114 213t201 72q75 0 131 -18v-111q-54 14 -106 14q-176 0 -221 -211l-39 -190h272v-111h-293l-176 -884q-28 -141 -114 -213t-201 -72q-77 0 -133 18v111q42 -14 108 -14q78 0 137 48.5t82 162.5z" />
    <glyph glyph-name="uni2007.tf" 
 />
    <glyph glyph-name="uni2008.tf" 
 />
    <glyph glyph-name="perthousand.tf" 
d="M1077 1262v-123l-987 -760v119zM131 1104q0 -63 41.5 -104.5t103.5 -41.5t103 41.5t41 104.5t-41 104t-103 41t-103.5 -41t-41.5 -104zM41 1104q0 98 68.5 166.5t166.5 68.5q97 0 167.5 -68.5t70.5 -166.5t-70.5 -167t-167.5 -69q-98 0 -166.5 69t-68.5 167zM248 213
q0 98 69 167t166 69q122 0 191 -101q66 101 190 101q97 0 166.5 -69t69.5 -167t-69.5 -165.5t-166.5 -67.5q-125 0 -190 100q-68 -100 -191 -100q-97 0 -166 67.5t-69 165.5zM483 358q-62 0 -102.5 -41t-40.5 -104q0 -61 41 -102t102 -41q62 0 103 41t41 102q0 63 -41 104
t-103 41zM864 358q-62 0 -103.5 -41t-41.5 -104q0 -61 41.5 -102t103.5 -41t103 41t41 102q0 63 -41 104t-103 41z" />
    <glyph glyph-name="Euro.tf" 
d="M188 758h-131v102h150q29 121 100 218.5t162.5 156t189.5 89t193 30.5q128 0 231 -35l-30 -109q-92 29 -201 29q-74 0 -150.5 -23t-149 -67.5t-129.5 -119.5t-83 -169h612l-30 -102h-607q-6 -38 -6 -96q0 -60 6 -97h555l-30 -102h-498q26 -93 80.5 -166t124 -118
t146.5 -68t155 -23q113 0 203 33l30 -107q-112 -41 -233 -41q-101 0 -199.5 30.5t-185.5 89t-154.5 154t-99.5 216.5h-152v102h131q-6 27 -6 97q0 69 6 96z" />
    <glyph glyph-name="minus.tf" 
d="M1010 539h-863v102h863v-102z" />
    <glyph glyph-name="approxequal.tf" 
d="M995 856l70 -59q-113 -150 -270 -150q-86 0 -197 60l-96 53q-80 41 -144 41q-112 0 -194 -101l-72 62q56 77 119.5 115t146.5 38q84 0 197 -61l94 -51q82 -45 158 -45q59 0 102.5 23t85.5 75zM995 461l70 -60q-109 -149 -270 -149q-88 0 -197 59l-96 51q-80 44 -144 44
q-111 0 -194 -103l-72 64q56 76 119 113.5t147 37.5t197 -61l94 -49q73 -46 158 -46q59 0 102.5 23.5t85.5 75.5z" />
    <glyph glyph-name="notequal.tf" 
d="M1036 338h-575l-166 -223h-127l166 223h-213v106h291l215 291h-506v105h584l161 219h127l-162 -219h205v-105h-282l-215 -291h497v-106z" />
    <glyph glyph-name="lessequal.tf" 
d="M160 236h829v-103h-829v103zM160 655v111l829 301v-113l-688 -243l688 -242v-115z" />
    <glyph glyph-name="greaterequal.tf" 
d="M168 236h829v-103h-829v103zM997 766v-111l-829 -301v115l688 242l-688 243v113z" />
    <glyph glyph-name="parenleft.case" horiz-adv-x="612" 
d="M111 721q0 515 366 899l74 -66q-163 -179 -248.5 -382t-85.5 -451q0 -251 85.5 -452t248.5 -382l-74 -65q-366 384 -366 899z" />
    <glyph glyph-name="parenright.case" horiz-adv-x="612" 
d="M502 721q0 -514 -367 -899l-74 65q164 181 248 381.5t84 452.5q0 249 -85 452t-247 381l74 66q367 -385 367 -899z" />
    <glyph glyph-name="hyphen.case" horiz-adv-x="837" 
d="M688 635h-538v110h538v-110z" />
    <glyph glyph-name="bracketleft.case" horiz-adv-x="565" 
d="M477 -127h-315v1753h315v-102h-205v-1551h205v-100z" />
    <glyph glyph-name="bracketright.case" horiz-adv-x="565" 
d="M403 -127h-315v100h205v1551h-205v102h315v-1753z" />
    <glyph glyph-name="braceleft.case" horiz-adv-x="686" 
d="M63 690v115q97 8 159.5 65t62.5 156v281q0 317 301 317h18v-98h-18q-108 0 -151.5 -49t-43.5 -162v-316q0 -98 -55.5 -162.5t-151.5 -88.5q95 -21 151 -87.5t56 -164.5v-314q0 -111 43.5 -160t151.5 -49h18v-100h-18q-301 0 -301 317v281q0 99 -62.5 155t-159.5 64z" />
    <glyph glyph-name="braceright.case" horiz-adv-x="686" 
d="M623 805v-115q-97 -8 -159.5 -64t-62.5 -155v-281q0 -317 -301 -317h-18v100h18q108 0 151.5 49t43.5 160v314q0 98 56 164.5t151 87.5q-96 24 -151.5 88.5t-55.5 162.5v316q0 113 -43.5 162t-151.5 49h-18v98h18q301 0 301 -317v-281q0 -99 62.5 -156t159.5 -65z" />
    <glyph glyph-name="exclamdown.case" horiz-adv-x="485" 
d="M164 0l35 1065h84l36 -1065h-155zM246 1460q43 0 72.5 -29.5t29.5 -70.5q0 -43 -29.5 -73t-72.5 -30t-73 30t-30 73q0 41 30 70.5t73 29.5z" />
    <glyph glyph-name="guillemotleft.case" horiz-adv-x="983" 
d="M508 301h-123l-272 391l272 391h123l-270 -391zM848 301h-123l-272 391l272 391h123l-270 -391z" />
    <glyph glyph-name="uni00AD.case" horiz-adv-x="817" 
d="M678 649h-539v109h539v-109z" />
    <glyph glyph-name="guillemotright.case" horiz-adv-x="983" 
d="M598 301h-123l270 391l-270 391h123l272 -391zM258 301h-123l273 391l-273 391h123l272 -391z" />
    <glyph glyph-name="questiondown.case" horiz-adv-x="999" 
d="M465 1065h113q6 -23 6 -78q0 -97 -35 -169t-113 -132l-90 -70q-141 -106 -141 -251q0 -115 77 -196t212 -81q99 0 169.5 44t102 110.5t31.5 146.5q0 45 -17 111l125 -19q17 -53 17 -104q0 -75 -26.5 -145t-77 -129t-135 -94.5t-189.5 -35.5q-127 0 -224.5 56.5
t-145.5 144t-48 188.5q0 203 205 353l92 67q96 69 96 217q0 30 -4 66zM520 1460q43 0 73 -29.5t30 -70.5q0 -43 -30 -73t-73 -30t-72.5 30t-29.5 73q0 41 29.5 70.5t72.5 29.5z" />
    <glyph glyph-name="endash.case" horiz-adv-x="1323" 
d="M1174 635h-1024v110h1024v-110z" />
    <glyph glyph-name="emdash.case" horiz-adv-x="2177" 
d="M2030 635h-1883v110h1883v-110z" />
    <glyph glyph-name="guilsinglleft.case" horiz-adv-x="643" 
d="M508 301h-123l-272 391l272 391h123l-270 -391z" />
    <glyph glyph-name="guilsinglright.case" horiz-adv-x="643" 
d="M258 301h-123l271 391l-271 391h123l272 -391z" />
    <glyph glyph-name="G.ss01" horiz-adv-x="1566" 
d="M821 -27q-108 0 -211.5 31.5t-194.5 95.5t-160 153t-109 211.5t-40 262.5t40 262t109 210.5t160 152.5t194 95.5t210 31.5q231 0 400.5 -122.5t228.5 -326.5l-119 -43q-54 179 -186 276t-324 97q-90 0 -174.5 -25.5t-158.5 -78.5t-129 -127t-87 -177.5t-32 -224.5
q0 -150 48.5 -273t130.5 -201.5t186 -120.5t218 -42q214 0 354 127.5t166 323.5h-608v114h742v-45q-12 -181 -93 -324.5t-227 -228t-334 -84.5z" />
    <glyph glyph-name="Gcircumflex.ss01" horiz-adv-x="1566" 
d="M821 -27q-108 0 -211.5 31.5t-194.5 95.5t-160 153t-109 211.5t-40 262.5t40 262t109 210.5t160 152.5t194 95.5t210 31.5q231 0 400.5 -122.5t228.5 -326.5l-119 -43q-54 179 -186 276t-324 97q-90 0 -174.5 -25.5t-158.5 -78.5t-129 -127t-87 -177.5t-32 -224.5
q0 -150 48.5 -273t130.5 -201.5t186 -120.5t218 -42q214 0 354 127.5t166 323.5h-608v114h742v-45q-12 -181 -93 -324.5t-227 -228t-334 -84.5zM625 1554h-121l235 244h168l238 -244h-121l-201 172z" />
    <glyph glyph-name="Gbreve.ss01" horiz-adv-x="1566" 
d="M821 -27q-108 0 -211.5 31.5t-194.5 95.5t-160 153t-109 211.5t-40 262.5t40 262t109 210.5t160 152.5t194 95.5t210 31.5q231 0 400.5 -122.5t228.5 -326.5l-119 -43q-54 179 -186 276t-324 97q-90 0 -174.5 -25.5t-158.5 -78.5t-129 -127t-87 -177.5t-32 -224.5
q0 -150 48.5 -273t130.5 -201.5t186 -120.5t218 -42q214 0 354 127.5t166 323.5h-608v114h742v-45q-12 -181 -93 -324.5t-227 -228t-334 -84.5zM821 1544q-132 0 -210.5 76t-86.5 182h107q5 -64 54 -112t136 -48q86 0 135 48t54 112h106q-8 -106 -85.5 -182t-209.5 -76z" />
    <glyph glyph-name="Gdotaccent.ss01" horiz-adv-x="1566" 
d="M821 -27q-108 0 -211.5 31.5t-194.5 95.5t-160 153t-109 211.5t-40 262.5t40 262t109 210.5t160 152.5t194 95.5t210 31.5q231 0 400.5 -122.5t228.5 -326.5l-119 -43q-54 179 -186 276t-324 97q-90 0 -174.5 -25.5t-158.5 -78.5t-129 -127t-87 -177.5t-32 -224.5
q0 -150 48.5 -273t130.5 -201.5t186 -120.5t218 -42q214 0 354 127.5t166 323.5h-608v114h742v-45q-12 -181 -93 -324.5t-227 -228t-334 -84.5zM725 1675q0 41 27.5 69t68.5 28t69 -28t28 -69t-28 -68.5t-69 -27.5t-68.5 27.5t-27.5 68.5z" />
    <glyph glyph-name="Gcommaaccent.ss01" horiz-adv-x="1566" 
d="M821 -27q-108 0 -211.5 31.5t-194.5 95.5t-160 153t-109 211.5t-40 262.5t40 262t109 210.5t160 152.5t194 95.5t210 31.5q231 0 400.5 -122.5t228.5 -326.5l-119 -43q-54 179 -186 276t-324 97q-90 0 -174.5 -25.5t-158.5 -78.5t-129 -127t-87 -177.5t-32 -224.5
q0 -150 48.5 -273t130.5 -201.5t186 -120.5t218 -42q214 0 354 127.5t166 323.5h-608v114h742v-45q-12 -181 -93 -324.5t-227 -228t-334 -84.5zM739 -172q0 37 28 61.5t67 24.5q42 0 73 -30t31 -91q0 -97 -60 -155.5t-143 -63.5v61q53 4 88.5 37.5t40.5 81.5
q-12 -12 -39 -12q-38 0 -62 23t-24 63z" />
    <glyph glyph-name="a.ss02" horiz-adv-x="1175" 
d="M221 492q0 -176 92 -292t244 -116q150 0 241 115.5t91 292.5q0 174 -90.5 287.5t-239.5 113.5q-153 0 -245.5 -111.5t-92.5 -289.5zM889 154v39q-18 -41 -46 -77t-69 -69t-99.5 -52.5t-127.5 -19.5q-134 0 -237.5 69t-158.5 186.5t-55 261.5q0 218 125.5 363.5
t325.5 145.5q74 0 135.5 -20t101.5 -53t64.5 -66.5t38.5 -68.5v184h123v-791q0 -136 10 -186h-121q-10 42 -10 154z" />
    <glyph glyph-name="agrave.ss02" horiz-adv-x="1175" 
d="M221 492q0 -176 92 -292t244 -116q150 0 241 115.5t91 292.5q0 174 -90.5 287.5t-239.5 113.5q-153 0 -245.5 -111.5t-92.5 -289.5zM889 154v39q-18 -41 -46 -77t-69 -69t-99.5 -52.5t-127.5 -19.5q-134 0 -237.5 69t-158.5 186.5t-55 261.5q0 218 125.5 363.5
t325.5 145.5q74 0 135.5 -20t101.5 -53t64.5 -66.5t38.5 -68.5v184h123v-791q0 -136 10 -186h-121q-10 42 -10 154zM535 1100l-242 284h156l182 -284h-96z" />
    <glyph glyph-name="aacute.ss02" horiz-adv-x="1175" 
d="M825 1384l-241 -284h-101l183 284h159zM221 492q0 -176 92 -292t244 -116q150 0 241 115.5t91 292.5q0 174 -90.5 287.5t-239.5 113.5q-153 0 -245.5 -111.5t-92.5 -289.5zM889 154v39q-18 -41 -46 -77t-69 -69t-99.5 -52.5t-127.5 -19.5q-134 0 -237.5 69t-158.5 186.5
t-55 261.5q0 218 125.5 363.5t325.5 145.5q74 0 135.5 -20t101.5 -53t64.5 -66.5t38.5 -68.5v184h123v-791q0 -136 10 -186h-121q-10 42 -10 154z" />
    <glyph glyph-name="acircumflex.ss02" horiz-adv-x="1175" 
d="M383 1102h-111l226 280h147l225 -280h-110l-189 203zM221 492q0 -176 92 -292t244 -116q150 0 241 115.5t91 292.5q0 174 -90.5 287.5t-239.5 113.5q-153 0 -245.5 -111.5t-92.5 -289.5zM889 154v39q-18 -41 -46 -77t-69 -69t-99.5 -52.5t-127.5 -19.5q-134 0 -237.5 69
t-158.5 186.5t-55 261.5q0 218 125.5 363.5t325.5 145.5q74 0 135.5 -20t101.5 -53t64.5 -66.5t38.5 -68.5v184h123v-791q0 -136 10 -186h-121q-10 42 -10 154z" />
    <glyph glyph-name="atilde.ss02" horiz-adv-x="1175" 
d="M221 492q0 -176 92 -292t244 -116q150 0 241 115.5t91 292.5q0 174 -90.5 287.5t-239.5 113.5q-153 0 -245.5 -111.5t-92.5 -289.5zM889 154v39q-18 -41 -46 -77t-69 -69t-99.5 -52.5t-127.5 -19.5q-134 0 -237.5 69t-158.5 186.5t-55 261.5q0 218 125.5 363.5
t325.5 145.5q74 0 135.5 -20t101.5 -53t64.5 -66.5t38.5 -68.5v184h123v-791q0 -136 10 -186h-121q-10 42 -10 154zM877 1350v-23q0 -94 -48.5 -146.5t-121.5 -52.5q-65 0 -134 48l-43 30q-59 41 -100 41q-78 0 -78 -112h-96v24q0 91 49 143t125 52q71 0 145 -56l37 -26
q50 -37 90 -37q78 0 78 115h97z" />
    <glyph glyph-name="adieresis.ss02" horiz-adv-x="1175" 
d="M672 1251q0 35 25.5 60.5t60.5 25.5t60.5 -25.5t25.5 -60.5t-25.5 -60.5t-60.5 -25.5t-60.5 25.5t-25.5 60.5zM311 1251q0 35 25.5 60.5t60.5 25.5t60.5 -25.5t25.5 -60.5t-25.5 -60.5t-60.5 -25.5t-60.5 25.5t-25.5 60.5zM221 492q0 -176 92 -292t244 -116
q150 0 241 115.5t91 292.5q0 174 -90.5 287.5t-239.5 113.5q-153 0 -245.5 -111.5t-92.5 -289.5zM889 154v39q-18 -41 -46 -77t-69 -69t-99.5 -52.5t-127.5 -19.5q-134 0 -237.5 69t-158.5 186.5t-55 261.5q0 218 125.5 363.5t325.5 145.5q74 0 135.5 -20t101.5 -53
t64.5 -66.5t38.5 -68.5v184h123v-791q0 -136 10 -186h-121q-10 42 -10 154z" />
    <glyph glyph-name="aring.ss02" horiz-adv-x="1175" 
d="M778 1300q0 -90 -62.5 -152.5t-152.5 -62.5q-88 0 -151.5 62.5t-63.5 152.5q0 89 63.5 152.5t151.5 63.5q89 0 152 -63.5t63 -152.5zM688 1300q0 55 -35.5 92.5t-89.5 37.5t-89.5 -37.5t-35.5 -92.5q0 -54 35.5 -91.5t89.5 -37.5t89.5 37.5t35.5 91.5zM221 492
q0 -176 92 -292t244 -116q150 0 241 115.5t91 292.5q0 174 -90.5 287.5t-239.5 113.5q-153 0 -245.5 -111.5t-92.5 -289.5zM889 154v39q-18 -41 -46 -77t-69 -69t-99.5 -52.5t-127.5 -19.5q-134 0 -237.5 69t-158.5 186.5t-55 261.5q0 218 125.5 363.5t325.5 145.5
q74 0 135.5 -20t101.5 -53t64.5 -66.5t38.5 -68.5v184h123v-791q0 -136 10 -186h-121q-10 42 -10 154z" />
    <glyph glyph-name="amacron.ss02" horiz-adv-x="1175" 
d="M221 492q0 -176 92 -292t244 -116q150 0 241 115.5t91 292.5q0 174 -90.5 287.5t-239.5 113.5q-153 0 -245.5 -111.5t-92.5 -289.5zM889 154v39q-18 -41 -46 -77t-69 -69t-99.5 -52.5t-127.5 -19.5q-134 0 -237.5 69t-158.5 186.5t-55 261.5q0 218 125.5 363.5
t325.5 145.5q74 0 135.5 -20t101.5 -53t64.5 -66.5t38.5 -68.5v184h123v-791q0 -136 10 -186h-121q-10 42 -10 154zM813 1194h-520v102h520v-102z" />
    <glyph glyph-name="abreve.ss02" horiz-adv-x="1175" 
d="M221 492q0 -176 92 -292t244 -116q150 0 241 115.5t91 292.5q0 174 -90.5 287.5t-239.5 113.5q-153 0 -245.5 -111.5t-92.5 -289.5zM889 154v39q-18 -41 -46 -77t-69 -69t-99.5 -52.5t-127.5 -19.5q-134 0 -237.5 69t-158.5 186.5t-55 261.5q0 218 125.5 363.5
t325.5 145.5q74 0 135.5 -20t101.5 -53t64.5 -66.5t38.5 -68.5v184h123v-791q0 -136 10 -186h-121q-10 42 -10 154zM561 1102q-131 0 -209 85t-78 197h97q5 -75 52 -128.5t138 -53.5t138.5 53.5t52.5 128.5h96q0 -112 -78 -197t-209 -85z" />
    <glyph glyph-name="aogonek.ss02" horiz-adv-x="1175" 
d="M745 -240q0 144 152 242q-8 33 -8 152v39q-18 -41 -46 -77t-69 -69t-99.5 -52.5t-127.5 -19.5q-134 0 -237.5 69t-158.5 186.5t-55 261.5q0 218 125.5 363.5t325.5 145.5q74 0 135.5 -20t101.5 -53t64.5 -66.5t38.5 -68.5v184h123v-791q0 -136 10 -186
q-67 -33 -118.5 -90.5t-51.5 -126.5q0 -57 36 -87t93 -30q37 0 70 10v-90q-40 -16 -93 -16q-91 0 -151 50.5t-60 139.5zM221 492q0 -176 92 -292t244 -116q150 0 241 115.5t91 292.5q0 174 -90.5 287.5t-239.5 113.5q-153 0 -245.5 -111.5t-92.5 -289.5z" />
    <glyph glyph-name="aringacute.ss02" horiz-adv-x="1175" 
d="M852 1860l-242 -285h-100l182 285h160zM774 1292q0 -90 -62.5 -152.5t-152.5 -62.5q-88 0 -151.5 62.5t-63.5 152.5q0 89 63.5 152t151.5 63q89 0 152 -63t63 -152zM684 1292q0 54 -35.5 91.5t-89.5 37.5t-89.5 -37.5t-35.5 -91.5t35.5 -91.5t89.5 -37.5t89.5 37.5
t35.5 91.5zM221 492q0 -176 92 -292t244 -116q150 0 241 115.5t91 292.5q0 174 -90.5 287.5t-239.5 113.5q-153 0 -245.5 -111.5t-92.5 -289.5zM889 154v39q-18 -41 -46 -77t-69 -69t-99.5 -52.5t-127.5 -19.5q-134 0 -237.5 69t-158.5 186.5t-55 261.5q0 218 125.5 363.5
t325.5 145.5q74 0 135.5 -20t101.5 -53t64.5 -66.5t38.5 -68.5v184h123v-791q0 -136 10 -186h-121q-10 42 -10 154z" />
    <glyph glyph-name="r.ss03" horiz-adv-x="532" 
d="M287 0h-123v977h123v-78q4 41 32.5 65.5t69.5 24.5q43 0 73 -29t30 -73t-30 -73.5t-73 -29.5q-42 0 -70 23.5t-32 64.5v-872z" />
    <glyph glyph-name="racute.ss03" horiz-adv-x="532" 
d="M287 0h-123v977h123v-78q4 41 32.5 65.5t69.5 24.5q43 0 73 -29t30 -73t-30 -73.5t-73 -29.5q-42 0 -70 23.5t-32 64.5v-872zM547 1384l-242 -284h-100l182 284h160z" />
    <glyph glyph-name="rcommaaccent.ss03" horiz-adv-x="532" 
d="M287 0h-123v977h123v-78q4 41 32.5 65.5t69.5 24.5q43 0 73 -29t30 -73t-30 -73.5t-73 -29.5q-42 0 -70 23.5t-32 64.5v-872zM127 -172q0 38 27.5 62t66.5 24q42 0 73.5 -30t31.5 -91q0 -97 -60 -155.5t-143 -63.5v61q53 4 88.5 37.5t40.5 81.5q-12 -12 -39 -12
q-38 0 -62 23t-24 63z" />
    <glyph glyph-name="rcaron.ss03" horiz-adv-x="532" 
d="M287 0h-123v977h123v-78q4 41 32.5 65.5t69.5 24.5q43 0 73 -29t30 -73t-30 -73.5t-73 -29.5q-42 0 -70 23.5t-32 64.5v-872zM25 1382h110l189 -202l188 202h111l-226 -280h-147z" />
    <glyph glyph-name="ampersand.ss04" horiz-adv-x="1357" 
d="M774 528v119h518v-119h-172v-53q0 -215 -142 -358.5t-368 -143.5q-217 0 -358 121t-141 303q0 140 85 244.5t224 146.5q-115 35 -177.5 120.5t-62.5 203.5q0 149 118.5 258t283.5 109q206 0 316 -103.5t132 -279.5l-125 -25q-14 141 -92.5 218t-222.5 77
q-117 0 -200 -74.5t-83 -183.5q0 -116 81 -186t222 -74v-115q-159 -5 -264.5 -92.5t-105.5 -237.5q0 -133 103 -224t267 -91q167 0 275 109t108 278v53h-219z" />
    <glyph glyph-name="one.ss05" horiz-adv-x="956" 
d="M127 948v103q130 12 221.5 89t116.5 187h117v-1212h336v-115h-814v115h353v993q-45 -62 -141 -111t-189 -49z" />
    <glyph glyph-name="registered.ss06" horiz-adv-x="983" 
d="M113 1081q0 158 110.5 269.5t268.5 111.5t268 -111t110 -270t-110 -270t-268 -111t-268.5 111.5t-110.5 269.5zM434 1090h62q73 0 73 67q0 30 -19 48t-54 18h-62v-133zM561 883l-76 145h-51v-145h-74v401h148q60 0 98.5 -36.5t38.5 -90.5q0 -42 -23.5 -74.5t-64.5 -44.5
l86 -155h-82zM492 766q130 0 218.5 91t88.5 222t-88.5 223.5t-218.5 92.5t-219 -92.5t-89 -223.5t89 -222t219 -91z" />
    <glyph glyph-name="quotedbl.ss08" horiz-adv-x="677" 
d="M115 1378q0 40 25 65t63 25t63 -25t25 -65q0 -36 -8 -67l-58 -312h-47l-55 312q-8 24 -8 67zM387 1378q0 40 25 65t63 25q39 0 63.5 -24.5t24.5 -65.5q0 -44 -6 -67l-59 -312h-45l-58 312q-8 24 -8 67z" />
    <glyph glyph-name="numbersign.ss08" horiz-adv-x="1482" 
d="M870 526l80 394h-356l-78 -394h354zM768 0l84 424h-354l-84 -424h-113l84 424h-303v102h321l78 394h-299v100h318l86 432h112l-86 -432h355l86 432h112l-86 -432h322v-100h-340l-78 -394h315v-102h-333l-84 -424h-113z" />
    <glyph glyph-name="dollar.ss08" horiz-adv-x="1136" 
d="M467 819l61 -14v532q-119 -12 -198.5 -87t-79.5 -179q0 -200 217 -252zM674 647l-43 10v-548q136 13 213.5 90t77.5 184q0 203 -248 264zM631 -231h-103v233q-134 11 -234.5 72.5t-153 150.5t-64.5 197l110 35q13 -133 103 -232.5t239 -115.5v573l-86 20
q-145 32 -229 124t-84 235q0 158 114.5 267.5t284.5 121.5v236h103v-238q167 -16 266 -110t131 -234l-110 -37q-24 104 -95.5 178t-191.5 90v-553l65 -14q165 -38 256.5 -133t91.5 -244q0 -157 -113.5 -267t-299.5 -122v-233z" />
    <glyph glyph-name="percent.ss08" horiz-adv-x="1636" 
d="M393 0h-121l969 1452h121zM705 1155q0 -130 -94 -222.5t-222 -92.5q-131 0 -223 92t-92 223q0 130 92 221.5t223 91.5q128 0 222 -91.5t94 -221.5zM182 1155q0 -92 59.5 -152.5t147.5 -60.5q85 0 145 61.5t60 151.5q0 89 -60 150t-145 61q-88 0 -147.5 -60.5
t-59.5 -150.5zM932 299q0 130 92 221.5t223 91.5t223.5 -91.5t92.5 -221.5t-92.5 -222.5t-223.5 -92.5t-223 92t-92 223zM1452 299q0 91 -58.5 151t-146.5 60t-146.5 -61t-58.5 -150q0 -91 58.5 -152t146.5 -61t146.5 60.5t58.5 152.5z" />
    <glyph glyph-name="quotesingle.ss08" horiz-adv-x="405" 
d="M115 1378q0 40 25 65t63 25t63 -25t25 -65q0 -36 -8 -67l-58 -312h-47l-55 312q-8 24 -8 67z" />
    <glyph glyph-name="plus.ss08" horiz-adv-x="1099" 
d="M602 1188v-424h399v-102h-399v-431h-108v431h-398v102h398v424h108z" />
    <glyph glyph-name="zero.ss08" horiz-adv-x="1331" 
d="M244 725q0 -141 25 -255.5t75 -201t132 -134.5t190 -48q86 0 156 32t119 89t82 137.5t48.5 175.5t15.5 205q0 139 -25 253.5t-75 202t-132 136.5t-189 49q-108 0 -190 -48.5t-132 -136t-75 -202t-25 -254.5zM119 725q0 115 17 219t57.5 203.5t101.5 171.5t156.5 116
t214.5 44t214 -44t156 -116t101.5 -171t57.5 -204t17 -219q0 -95 -12.5 -183t-38 -174t-69 -156.5t-102.5 -124.5t-141.5 -84t-182.5 -30q-119 0 -214.5 43.5t-156.5 115.5t-101.5 171t-57.5 203t-17 219z" />
    <glyph glyph-name="one.ss08" horiz-adv-x="706" 
d="M545 1452v-1452h-125v1217q-49 -66 -156.5 -118t-206.5 -52v106q142 12 244 96t127 203h117z" />
    <glyph glyph-name="two.ss08" horiz-adv-x="1183" 
d="M1073 0h-960q4 167 91 296t271 255l215 145q236 163 236 355q0 134 -88 224.5t-240 90.5q-160 0 -256 -97.5t-96 -258.5q0 -53 4 -70l-127 18q-4 36 -4 66q0 193 136.5 324t342.5 131q213 0 335 -122.5t122 -303.5q0 -58 -15.5 -112.5t-39.5 -98t-64.5 -88.5t-78 -78
t-93 -72.5t-97 -66t-102 -64.5t-96.5 -63q-173 -119 -203 -291h807v-119z" />
    <glyph glyph-name="three.ss08" horiz-adv-x="1239" 
d="M686 856q86 0 164 -27.5t140 -79t99 -135t37 -186.5q0 -199 -145.5 -327t-362.5 -128q-222 0 -365 124.5t-155 316.5l123 28q5 -109 62.5 -191.5t145.5 -123.5t192 -41q163 0 270.5 96t107.5 242q0 154 -102.5 241t-255.5 87q-63 0 -137 -19l-62 107l488 493h-795v119
h961v-119l-480 -483q37 6 70 6z" />
    <glyph glyph-name="four.ss08" horiz-adv-x="1239" 
d="M63 358v150l668 944h184v-979h259v-115h-259v-358h-122v358h-730zM793 473v864l-611 -864h611z" />
    <glyph glyph-name="five.ss08" horiz-adv-x="1202" 
d="M78 399l123 37q12 -152 120.5 -251t268.5 -99q164 0 272.5 103.5t108.5 259.5q0 165 -108 267.5t-271 102.5q-194 0 -328 -147l-127 51l187 729h720v-117h-636l-138 -542q63 69 154.5 104t189.5 35q214 0 350 -133t136 -346q0 -98 -37 -186t-103 -153t-162 -103t-208 -38
q-210 0 -352 123t-160 303z" />
    <glyph glyph-name="six.ss08" horiz-adv-x="1273" 
d="M279 459q0 -164 112 -269.5t268 -105.5q160 0 270.5 105t110.5 270q0 172 -108 274.5t-268 102.5q-159 0 -272 -109t-113 -268zM682 948q213 0 350 -134t137 -357q0 -143 -72 -255t-188 -170.5t-252 -58.5q-115 0 -213.5 44t-172 127.5t-115 213t-41.5 291.5
q0 161 37 297.5t102.5 233.5t154.5 165t193 101t219 33q189 0 312 -80l-41 -109q-109 72 -277 72q-139 0 -250.5 -57t-181 -154t-107.5 -220t-40 -261q57 133 174 205.5t272 72.5z" />
    <glyph glyph-name="seven.ss08" horiz-adv-x="1112" 
d="M1087 1452v-129q-75 -71 -138.5 -141t-135.5 -164t-130.5 -199.5t-111 -229.5t-89.5 -274.5t-54 -314.5h-131q15 151 49.5 294.5t77.5 257.5t100 223t110.5 188.5t115.5 155.5t107.5 123t94.5 93h-899v117h1034z" />
    <glyph glyph-name="eight.ss08" horiz-adv-x="1241" 
d="M621 -27q-232 0 -368 115t-136 287q0 133 86.5 231.5t224.5 136.5q-120 33 -198 127.5t-78 219.5q0 167 132 278t337 111q203 0 336 -111t133 -278q0 -123 -79 -218.5t-200 -128.5q138 -38 224.5 -136.5t86.5 -231.5q0 -172 -135 -287t-366 -115zM621 797
q151 0 246.5 80.5t95.5 207.5q0 125 -93 206t-249 81q-157 0 -251 -81t-94 -206q0 -127 96.5 -207.5t248.5 -80.5zM621 86q171 0 271.5 84.5t100.5 214.5q0 132 -99.5 217.5t-272.5 85.5q-175 0 -275 -85.5t-100 -217.5q0 -130 101 -214.5t274 -84.5z" />
    <glyph glyph-name="nine.ss08" horiz-adv-x="1271" 
d="M1026 758v30q-32 -122 -154.5 -201t-279.5 -79q-95 0 -182.5 34t-155.5 95t-109 153t-41 201q0 105 42 197t111.5 155t162 99.5t192.5 36.5q242 0 391.5 -177.5t149.5 -498.5q0 -410 -171.5 -620t-502.5 -210q-89 0 -185 24t-157 64l47 109q57 -36 138.5 -59t158.5 -23
q269 0 406 171t139 499zM989 993q0 162 -113 266.5t-266 104.5q-154 0 -265.5 -104t-111.5 -267q0 -111 52 -196.5t137.5 -129.5t187.5 -44q157 0 268 103.5t111 266.5z" />
    <glyph glyph-name="less.ss08" horiz-adv-x="1075" 
d="M205 713l702 -357v-125l-823 424v113l823 424v-123z" />
    <glyph glyph-name="equal.ss08" horiz-adv-x="1210" 
d="M1063 860h-916v103h916v-103zM1063 463h-916v104h916v-104z" />
    <glyph glyph-name="greater.ss08" horiz-adv-x="1075" 
d="M168 356l704 357l-704 356v123l823 -424v-113l-823 -424v125z" />
    <glyph glyph-name="cent.ss08" horiz-adv-x="1103" 
d="M631 201v-201h-103v203q-186 17 -305 159t-119 351t119 350.5t305 161.5v227h103v-227q147 -12 244 -96t131 -211l-109 -44q-23 89 -88.5 155.5t-177.5 82.5v-797q108 11 177 79.5t99 156.5l105 -41q-35 -121 -136 -209.5t-245 -99.5zM225 713q0 -159 83.5 -270
t219.5 -128v795q-136 -20 -219.5 -129.5t-83.5 -267.5z" />
    <glyph glyph-name="sterling.ss08" horiz-adv-x="1214" 
d="M823 635h-370q16 -78 16 -121q0 -239 -201 -401h477q120 0 189.5 74t77.5 200l116 -16q-11 -170 -105.5 -270.5t-256.5 -100.5h-655v115q99 63 165 165.5t66 229.5q0 64 -18 125h-195v108h162q-2 6 -16.5 40t-18.5 44.5t-15 41t-15 47.5t-10.5 44t-8.5 52t-2 51
q0 180 116.5 297t307.5 117q183 0 292.5 -106t122.5 -263l-118 -27q-8 124 -88.5 203.5t-206.5 79.5q-131 0 -215 -83t-84 -222q0 -44 10 -89.5t20.5 -74.5t31.5 -78.5t30 -73.5h399v-108z" />
    <glyph glyph-name="currency.ss08" horiz-adv-x="1257" 
d="M1036 217l-143 145q-112 -86 -258 -86q-152 0 -268 95l-148 -154l-78 78l150 154q-92 112 -92 264q0 153 96 270l-152 158l78 76l152 -156q118 88 262 88q145 0 252 -82l147 150l76 -76l-141 -150q104 -122 104 -278q0 -161 -100 -275l141 -143zM309 713
q0 -139 95 -234.5t231 -95.5q137 0 230 95.5t93 234.5q0 141 -93 235t-230 94q-136 0 -231 -94.5t-95 -234.5z" />
    <glyph glyph-name="yen.ss08" horiz-adv-x="1265" 
d="M698 0h-129v358h-387v103h387v172h-387v102h328l-438 717h149l416 -692l414 692h143l-438 -717h331v-102h-389v-172h389v-103h-389v-358z" />
    <glyph glyph-name="ordfeminine.ss08" horiz-adv-x="829" 
d="M575 1077v47q-8 -11 -47 -18l-186 -31q-121 -23 -121 -123q0 -51 36.5 -84.5t104.5 -33.5q104 0 158.5 63.5t54.5 179.5zM117 948q0 85 54 137t148 64l191 29q65 11 65 63q0 65 -43.5 105t-123.5 40q-77 0 -125.5 -42t-59.5 -115l-94 24q11 98 86.5 160t190.5 62
q137 0 204.5 -69t67.5 -177v-346q0 -86 8 -117h-100q-8 31 -8 108q-27 -52 -87.5 -89t-142.5 -37q-108 0 -169.5 58t-61.5 142z" />
    <glyph glyph-name="logicalnot.ss08" horiz-adv-x="1183" 
d="M1024 446h-113v412h-788v109h901v-521z" />
    <glyph glyph-name="degree.ss08" horiz-adv-x="827" 
d="M414 946q88 0 146 60.5t58 152.5q0 91 -58 151t-146 60t-146.5 -61t-58.5 -150q0 -91 58.5 -152t146.5 -61zM98 1159q0 130 92.5 222t223.5 92t223 -92t92 -222q0 -131 -92.5 -223t-222.5 -92q-131 0 -223.5 92.5t-92.5 222.5z" />
    <glyph glyph-name="plusminus.ss08" horiz-adv-x="1236" 
d="M1059 786h-387v-297h-109v297h-385v103h385v297h109v-297h387v-103zM1059 256h-881v104h881v-104z" />
    <glyph glyph-name="ordmasculine.ss08" horiz-adv-x="888" 
d="M444 748q-148 0 -246 101.5t-98 262.5q0 160 98 261.5t246 101.5t247.5 -102t99.5 -261q0 -161 -98.5 -262.5t-248.5 -101.5zM203 1112q0 -124 70 -198t171 -74t171.5 74t70.5 198t-70.5 197t-171.5 73t-171 -73t-70 -197z" />
    <glyph glyph-name="onequarter.ss08" horiz-adv-x="1533" 
d="M293 0h-117l971 1452h113zM362 709h-104v585q-27 -30 -74.5 -50.5t-103.5 -24.5v79q75 10 123 53t59 101h100v-743zM821 168v104l369 471h125v-483h145v-92h-145v-168h-105v168h-389zM1210 260v367l-286 -367h286z" />
    <glyph glyph-name="onehalf.ss08" horiz-adv-x="1568" 
d="M289 0h-117l971 1452h112zM358 709h-104v585q-27 -30 -74.5 -50.5t-103.5 -24.5v79q75 10 123 53t59 101h100v-743zM1057 467l-103 6q-4 28 -4 49q0 98 72 166t190 68q115 0 185.5 -65.5t70.5 -160.5q0 -129 -147 -221l-152 -94q-84 -55 -94 -125h402v-90h-529v10
q0 177 160 277l141 86q113 70 113 159q0 57 -41.5 96.5t-110.5 39.5q-70 0 -113.5 -41.5t-43.5 -112.5q0 -15 4 -47z" />
    <glyph glyph-name="threequarters.ss08" horiz-adv-x="1695" 
d="M455 0h-117l971 1452h112zM983 168v104l369 471h125v-483h145v-92h-145v-168h-105v168h-389zM1372 260v367l-287 -367h287zM317 1069l-45 80l234 213h-400v90h537v-86l-237 -213q3 0 9 1t9 1q100 -5 167.5 -61.5t67.5 -157.5t-78.5 -171.5t-203.5 -70.5q-122 0 -200.5 61
t-90.5 156l94 35q6 -73 62.5 -118.5t132.5 -45.5q78 0 128 44t50 110q0 69 -49 106t-121 37q-33 0 -66 -10z" />
    <glyph glyph-name="multiply.ss08" horiz-adv-x="1165" 
d="M219 1165l365 -377l362 377l74 -73l-367 -379l369 -381l-74 -76l-366 381l-365 -379l-74 74l365 381l-363 377z" />
    <glyph glyph-name="divide.ss08" horiz-adv-x="1232" 
d="M516 348q0 40 29.5 68t68.5 28q42 0 70.5 -27.5t28.5 -68.5t-29 -69.5t-70 -28.5q-39 0 -68.5 28.5t-29.5 69.5zM1069 659h-905v109h905v-109zM516 1075q0 41 29.5 70t68.5 29q41 0 70 -29t29 -70q0 -39 -29 -68.5t-70 -29.5q-38 0 -68 30t-30 68z" />
    <glyph glyph-name="perthousand.ss08" horiz-adv-x="2162" 
d="M393 0h-121l969 1452h121zM389 942q85 0 145 61.5t60 151.5q0 89 -60 150t-145 61q-88 0 -147.5 -60.5t-59.5 -150.5q0 -92 59.5 -152.5t147.5 -60.5zM74 1155q0 130 92 221.5t223 91.5q128 0 222 -91.5t94 -221.5t-94 -222.5t-222 -92.5q-131 0 -223 92t-92 223z
M932 299q0 130 92 221.5t223 91.5q83 0 152.5 -39t111.5 -106q42 67 111 106t154 39q131 0 223 -91.5t92 -221.5q0 -131 -92.5 -223t-222.5 -92q-85 0 -154 39t-111 106q-42 -67 -111.5 -106t-152.5 -39q-131 0 -223 92t-92 223zM1042 299q0 -91 58.5 -152t146.5 -61
t146.5 61.5t58.5 157.5q0 85 -60 145t-145 60q-88 0 -146.5 -61t-58.5 -150zM1571 299q0 -91 58.5 -152t146.5 -61t146 61.5t58 157.5q0 85 -59.5 145t-144.5 60q-88 0 -146.5 -61t-58.5 -150z" />
    <glyph glyph-name="fraction.ss08" horiz-adv-x="268" 
d="M565 1452h113l-967 -1452h-117z" />
    <glyph glyph-name="Euro.ss08" horiz-adv-x="1521" 
d="M1372 225l68 -94q-79 -69 -193.5 -113.5t-247.5 -44.5q-253 0 -449.5 147t-256.5 408h-203v103h184q-6 33 -6 98q0 20 4 82h-182v100h199q30 134 102 242.5t169.5 178.5t214 107.5t239.5 37.5q224 0 368 -103l-51 -100q-124 88 -313 88q-133 0 -254 -49.5t-215 -154
t-129 -247.5h713l-48 -100h-684q-4 -31 -4 -86q0 -32 4 -94h600l-47 -103h-530q26 -106 85 -190.5t137 -137t167.5 -80.5t181.5 -28q114 0 214 37t163 96z" />
    <glyph glyph-name="uni2113.ss08" horiz-adv-x="774" 
d="M674 141v-106q-71 -45 -176 -45q-120 0 -190 71.5t-70 200.5v330q-58 -28 -144 -53v110q62 19 144 62v458q0 148 66 228t169 80q117 0 174.5 -73.5t57.5 -197.5q0 -175 -96.5 -318.5t-254.5 -240.5v-368q0 -88 41.5 -134.5t112.5 -46.5q88 0 166 43zM354 1171v-391
q106 78 170 186.5t64 241.5q0 75 -27 118.5t-82 43.5q-125 0 -125 -199z" />
    <glyph glyph-name="uni2160.ss08" horiz-adv-x="933" 
d="M864 1452v-115h-336v-1222h336v-115h-794v115h333v1222h-333v115h794z" />
    <glyph glyph-name="uni2161.ss08" horiz-adv-x="1486" 
d="M1417 1452v-115h-332v-1222h332v-115h-1347v115h329v1222h-329v115h1347zM526 1337v-1222h435v1222h-435z" />
    <glyph glyph-name="uni2162.ss08" horiz-adv-x="2035" 
d="M1966 1452v-115h-330v-1222h330v-115h-1896v115h329v1222h-329v115h1896zM526 1337v-1222h428v1222h-428zM1081 115h430v1222h-430v-1222z" />
    <glyph glyph-name="uni2163.ss08" horiz-adv-x="1988" 
d="M1917 115v-115h-1847v115h323v1222h-323v115h1847v-115h-231l-365 -1222h596zM721 1337h-201v-1222h565zM1204 156l348 1181h-698z" />
    <glyph glyph-name="uni2164.ss08" horiz-adv-x="1538" 
d="M1466 115v-115h-1394v115h579l-364 1222h-215v115h1394v-115h-215l-364 -1222h579zM768 156l350 1181h-698z" />
    <glyph glyph-name="uni2165.ss08" horiz-adv-x="1986" 
d="M1489 115v1222h-221l-365 -1222h586zM784 156l349 1181h-697zM72 0v115h594l-365 1222h-229v115h1843v-115h-299v-1222h299v-115h-1843z" />
    </font>
</defs>
</svg>
