<?xml version="1.0" standalone="no"?>
<!DOCTYPE svg PUBLIC "-//W3C//DTD SVG 1.1//EN" "http://www.w3.org/Graphics/SVG/1.1/DTD/svg11.dtd" >
<svg xmlns="http://www.w3.org/2000/svg" xmlns:xlink="http://www.w3.org/1999/xlink" version="1.1">
<metadata>
Created by FontForge 20170731 at Mon Nov 23 10:33:09 2020
 By Aleksey,,,
Copyright (c) 2012 by Matt Willey. All rights reserved.
</metadata>
<defs>
<font id="MFred" horiz-adv-x="522" >
  <font-face 
    font-family="MFred"
    font-weight="400"
    font-stretch="normal"
    units-per-em="2048"
    panose-1="2 0 0 0 0 0 0 0 0 0"
    ascent="1536"
    descent="-512"
    x-height="909"
    cap-height="1501"
    bbox="-25 -326 1399 1839"
    underline-thickness="102"
    underline-position="-307"
    unicode-range="U+0020-FB02"
  />
<missing-glyph horiz-adv-x="761" 
d="M106 0v1501h549v-1501h-549zM569 68v1366h-376v-1366h376z" />
    <glyph glyph-name=".notdef" horiz-adv-x="761" 
d="M106 0v1501h549v-1501h-549zM569 68v1366h-376v-1366h376z" />
    <glyph glyph-name=".null" horiz-adv-x="0" 
 />
    <glyph glyph-name="nonmarkingreturn" horiz-adv-x="682" 
 />
    <glyph glyph-name="space" unicode=" " horiz-adv-x="368" 
 />
    <glyph glyph-name="exclam" unicode="!" horiz-adv-x="407" 
d="M303 1501l-20 -1081h-158l-21 1081h199zM301 256v-256h-195v256h195z" />
    <glyph glyph-name="quotedbl" unicode="&#x22;" horiz-adv-x="651" 
d="M369 1501h180l-41 -457h-137zM102 1501h181l-41 -457h-138z" />
    <glyph glyph-name="numbersign" unicode="#" horiz-adv-x="722" 
d="M61 1018h115v483h125v-483h121v483h125v-483h115v-98h-115v-312h115v-98h-115v-510h-125v510h-121v-510h-125v510h-115v98h115v312h-115v98zM301 920v-312h121v312h-121z" />
    <glyph glyph-name="dollar" unicode="$" horiz-adv-x="770" 
d="M426 647h-143q-74 0 -127.5 53.5t-53.5 126.5v381q0 74 54 127.5t127 53.5h22v112h166v-112h16q73 0 127 -53.5t54 -127.5v-270h-195v215q0 20 -13.5 33.5t-33.5 13.5h-82q-20 0 -33.5 -13.5t-13.5 -33.5v-266q0 -20 13.5 -33.5t33.5 -13.5h143q73 0 127 -54t54 -127
v-358q0 -73 -53.5 -126.5t-127.5 -53.5h-16v-121h-166v121h-22q-74 0 -127.5 53.5t-53.5 126.5v248h195v-193q0 -20 13.5 -33.5t33.5 -13.5h82q20 0 33.5 13.5t13.5 33.5v244q0 20 -13.5 33.5t-33.5 13.5z" />
    <glyph glyph-name="percent" unicode="%" horiz-adv-x="1013" 
d="M352 928h-141q-44 0 -76.5 31.5t-32.5 74.5v359q0 44 32.5 76t76.5 32h141q44 0 76.5 -32t32.5 -76v-359q0 -43 -32.5 -74.5t-76.5 -31.5zM219 1354v-279q0 -12 8.5 -20t20.5 -8h67q12 0 20.5 8t8.5 20v279q0 12 -8.5 20t-20.5 8h-67q-12 0 -20.5 -8t-8.5 -20zM803 0
h-141q-44 0 -76.5 31.5t-32.5 74.5v359q0 44 32.5 76t76.5 32h141q44 0 76 -32t32 -76v-359q0 -43 -32 -74.5t-76 -31.5zM670 426v-279q0 -12 8 -20t20 -8h68q12 0 20.5 8t8.5 20v279q0 12 -8.5 20.5t-20.5 8.5h-68q-12 0 -20 -8.5t-8 -20.5zM881 1501l-619 -1501h-131
l619 1501h131z" />
    <glyph glyph-name="ampersand" unicode="&#x26;" horiz-adv-x="890" 
d="M784 1032v-188h-45q-20 0 -33.5 -13.5t-13.5 -33.5v-457l144 -340h-207l-43 86q-7 -37 -42 -61.5t-77 -24.5h-180q-73 0 -127 53t-54 127v600q0 55 33 101t82 65l-69 164q-25 59 -25 107v104q0 73 53.5 126.5t126.5 53.5h201q74 0 127 -53.5t53 -126.5v-178h-190v123
q0 20 -13.5 33.5t-33.5 13.5h-82q-20 0 -33.5 -13.5t-13.5 -33.5v-25q0 -22 10 -47l186 -442v100q0 76 49.5 128t130.5 52h86zM301 776v-540q0 -20 13.5 -34t33.5 -14h82q20 0 33.5 14t13.5 34v124z" />
    <glyph glyph-name="quotesingle" unicode="'" horiz-adv-x="385" 
d="M102 1501h181l-41 -457h-138z" />
    <glyph glyph-name="parenleft" unicode="(" horiz-adv-x="534" 
d="M322 758v-15q0 -241 35 -443.5t116 -453.5h-141q-189 462 -189 895v19q0 433 189 895h141q-81 -251 -116 -453.5t-35 -443.5z" />
    <glyph glyph-name="parenright" unicode=")" horiz-adv-x="534" 
d="M213 743v15q0 240 -35.5 442.5t-116.5 454.5h142q188 -459 188 -895v-19q0 -436 -188 -895h-142q81 252 116.5 454.5t35.5 442.5z" />
    <glyph glyph-name="asterisk" unicode="*" horiz-adv-x="776" 
d="M340 1315l-35 207h164l-33 -207l187 94l51 -154l-219 -20l159 -162l-133 -94l-94 192l-92 -192l-135 94l157 162l-215 20l50 154z" />
    <glyph glyph-name="plus" unicode="+" horiz-adv-x="829" 
d="M102 680v143h236v240h154v-240h235v-143h-235v-240h-154v240h-236z" />
    <glyph glyph-name="comma" unicode="," horiz-adv-x="407" 
d="M106 256h195v-307q0 -42 -9.5 -71.5t-23 -45.5t-35.5 -24.5t-39.5 -10.5t-43.5 -2h-33v88h18q47 0 47 49v68h-76v256z" />
    <glyph glyph-name="hyphen" unicode="-" horiz-adv-x="569" 
d="M102 657v187h365v-187h-365z" />
    <glyph glyph-name="period" unicode="." horiz-adv-x="407" 
d="M301 256v-256h-195v256h195z" />
    <glyph glyph-name="slash" unicode="/" horiz-adv-x="538" 
d="M61 0l299 1501h117l-299 -1501h-117z" />
    <glyph glyph-name="zero" unicode="0" horiz-adv-x="778" 
d="M492 0h-205q-74 0 -127.5 53.5t-53.5 126.5v1141q0 73 53.5 126.5t127.5 53.5h205q74 0 127 -53.5t53 -126.5v-1141q0 -74 -53 -127t-127 -53zM301 1266v-1030q0 -20 13.5 -34t33.5 -14h82q20 0 33.5 14t13.5 34v1030q0 20 -13.5 33.5t-33.5 13.5h-82q-20 0 -33.5 -13.5
t-13.5 -33.5z" />
    <glyph glyph-name="one" unicode="1" horiz-adv-x="444" 
d="M31 1305v176l164 20h143v-1501h-195v1315z" />
    <glyph glyph-name="two" unicode="2" horiz-adv-x="661" 
d="M51 0v258q0 108 58 205l280 493q17 31 17 78v232q0 20 -14 33.5t-34 13.5h-65q-20 0 -33.5 -13.5t-13.5 -33.5v-211h-191v266q0 73 53.5 126.5t127.5 53.5h184q74 0 127 -53.5t53 -126.5v-293q0 -52 -11 -95t-21.5 -63.5t-39.5 -70.5l-256 -439q-26 -45 -26 -104v-68h354
v-188h-549z" />
    <glyph glyph-name="three" unicode="3" horiz-adv-x="718" 
d="M72 449h194v-213q0 -20 13.5 -34t33.5 -14h82q20 0 33.5 14t13.5 34v434q0 20 -13.5 33.5t-33.5 13.5h-82v188h82q20 0 33.5 13.5t13.5 33.5v314q0 20 -13.5 33.5t-33.5 13.5h-82q-20 0 -33.5 -13.5t-13.5 -33.5v-211h-194v266q0 73 53 126.5t127 53.5h205
q73 0 126.5 -53.5t53.5 -126.5v-344q0 -70 -32 -112t-75 -52q43 -10 75 -52t32 -112v-469q0 -74 -53.5 -127t-126.5 -53h-205q-74 0 -127 53t-53 127v269z" />
    <glyph glyph-name="four" unicode="4" horiz-adv-x="690" 
d="M51 256v172l264 1073h240v-1071h94v-174h-94v-256h-188v256h-316zM213 430h154l-2 258l8 408h-4z" />
    <glyph glyph-name="five" unicode="5" horiz-adv-x="704" 
d="M428 236v487q0 20 -13.5 33.5t-33.5 13.5h-80q-52 0 -55 -57h-174l30 788h519v-188h-347l-12 -369q23 14 68 14h112q74 0 127.5 -53.5t53.5 -126.5v-598q0 -73 -53.5 -126.5t-127.5 -53.5h-200q-74 0 -127.5 53.5t-53.5 126.5v269h191v-213q0 -20 13.5 -34t33.5 -14h82
q20 0 33.5 14t13.5 34z" />
    <glyph glyph-name="six" unicode="6" horiz-adv-x="778" 
d="M301 1266v-396q25 15 68 15h123q74 0 127 -53.5t53 -126.5v-525q0 -74 -53 -127t-127 -53h-205q-74 0 -127.5 53.5t-53.5 126.5v1141q0 73 53.5 126.5t127.5 53.5h200q74 0 127.5 -53.5t53.5 -126.5v-266h-191v211q0 20 -13.5 33.5t-33.5 13.5h-82q-20 0 -33.5 -13.5
t-13.5 -33.5zM301 651v-415q0 -20 13.5 -34t33.5 -14h82q20 0 33.5 14t13.5 34v415q0 20 -13.5 33.5t-33.5 13.5h-82q-20 0 -33.5 -13.5t-13.5 -33.5z" />
    <glyph glyph-name="seven" unicode="7" horiz-adv-x="544" 
d="M10 1313v188h514v-129l-190 -1372h-211l196 1313h-309z" />
    <glyph glyph-name="eight" unicode="8" horiz-adv-x="778" 
d="M430 717h-82q-20 0 -33.5 -13.5t-13.5 -33.5v-434q0 -20 13.5 -34t33.5 -14h82q20 0 33.5 14t13.5 34v434q0 20 -13.5 33.5t-33.5 13.5zM430 1313h-82q-20 0 -33.5 -13.5t-13.5 -33.5v-314q0 -20 13.5 -33.5t33.5 -13.5h82q20 0 33.5 13.5t13.5 33.5v314q0 20 -13.5 33.5
t-33.5 13.5zM106 977v344q0 73 53.5 126.5t127.5 53.5h205q74 0 127 -53.5t53 -126.5v-344q0 -70 -32 -112t-75 -52q43 -10 75 -52t32 -112v-469q0 -74 -53 -127t-127 -53h-205q-74 0 -127.5 53.5t-53.5 126.5v469q0 70 32 112t75 52q-43 10 -75 52t-32 112z" />
    <glyph glyph-name="nine" unicode="9" horiz-adv-x="778" 
d="M477 236v395q-25 -15 -67 -15h-123q-73 0 -127 54t-54 127v524q0 73 53.5 126.5t127.5 53.5h205q74 0 127 -53.5t53 -126.5v-1141q0 -74 -53 -127t-127 -53h-201q-73 0 -126.5 53t-53.5 127v266h190v-210q0 -20 13.5 -34t33.5 -14h82q20 0 33.5 14t13.5 34zM477 850v416
q0 20 -13.5 33.5t-33.5 13.5h-82q-20 0 -33.5 -13.5t-13.5 -33.5v-416q0 -20 13.5 -33.5t33.5 -13.5h82q20 0 33.5 13.5t13.5 33.5z" />
    <glyph glyph-name="colon" unicode=":" horiz-adv-x="407" 
d="M301 256v-256h-195v256h195zM301 1063v-256h-195v256h195z" />
    <glyph glyph-name="semicolon" unicode=";" horiz-adv-x="407" 
d="M301 1063v-256h-195v256h195zM106 256h195v-307q0 -42 -9.5 -71.5t-23 -45.5t-35.5 -24.5t-39.5 -10.5t-43.5 -2h-33v88h18q47 0 47 49v68h-76v256z" />
    <glyph glyph-name="less" unicode="&#x3c;" horiz-adv-x="608" 
d="M313 750l193 -416h-166l-238 416l238 415h166z" />
    <glyph glyph-name="equal" unicode="=" horiz-adv-x="829" 
d="M102 823v144h625v-144h-625zM102 537v143h625v-143h-625z" />
    <glyph glyph-name="greater" unicode="&#x3e;" horiz-adv-x="608" 
d="M102 334l193 416l-193 415h166l238 -415l-238 -416h-166z" />
    <glyph glyph-name="question" unicode="?" horiz-adv-x="688" 
d="M252 420v125q0 100 55 207l99 186q16 29 16 88v240q0 20 -13.5 33.5t-33.5 13.5h-66q-20 0 -33.5 -13.5t-13.5 -33.5v-211h-190v266q0 73 53 126.5t127 53.5h184q74 0 127 -53.5t53 -126.5v-297q0 -18 -0.5 -34t-4 -32t-4.5 -26t-7.5 -25.5t-8 -21.5t-10.5 -23t-10.5 -20
t-13 -23.5t-12.5 -23.5l-86 -160q-25 -46 -25 -92v-123h-182zM442 256v-256h-194v256h194z" />
    <glyph glyph-name="at" unicode="@" horiz-adv-x="1255" 
d="M561 983v-465q0 -19 12 -31t29 -12h53q17 0 28 12t11 31v508h-92q-17 0 -29 -12t-12 -31zM973 309h-60q-49 0 -81 21.5t-41 56.5q-9 -35 -41.5 -56.5t-81.5 -21.5h-111q-77 0 -123.5 44.5t-46.5 129.5v535q0 85 46.5 129.5t123.5 44.5h311v-670q0 -20 13.5 -33.5
t33.5 -13.5h17q20 0 33.5 13.5t13.5 33.5v770q0 20 -13.5 33.5t-33.5 13.5h-608q-20 0 -34 -13.5t-14 -33.5v-1079q0 -20 14 -33.5t34 -13.5h655v-166h-696q-74 0 -127.5 53.5t-53.5 126.5v1141q0 73 53.5 126.5t127.5 53.5h690q73 0 126.5 -53.5t53.5 -126.5v-823
q0 -85 -52 -137t-128 -52z" />
    <glyph glyph-name="A" unicode="A" horiz-adv-x="673" 
d="M25 0l192 1501h240l192 -1501h-198l-39 332h-156l-37 -332h-194zM332 1010l-56 -498h115l-55 498h-4z" />
    <glyph glyph-name="B" unicode="B" horiz-adv-x="757" 
d="M424 1313h-123v-469h123q20 0 33.5 13.5t13.5 33.5v375q0 20 -13.5 33.5t-33.5 13.5zM424 657h-123v-469h123q20 0 33.5 14t13.5 34v374q0 20 -13.5 33.5t-33.5 13.5zM666 588v-408q0 -73 -53.5 -126.5t-127.5 -53.5h-379v1501h379q74 0 127.5 -53.5t53.5 -126.5v-406
q0 -70 -32 -111t-75 -52q43 -10 75 -52t32 -112z" />
    <glyph glyph-name="C" unicode="C" horiz-adv-x="770" 
d="M301 1266v-1030q0 -20 13.5 -34t33.5 -14h82q20 0 33.5 14t13.5 34v378h191v-434q0 -73 -53.5 -126.5t-127.5 -53.5h-200q-74 0 -127.5 53.5t-53.5 126.5v1141q0 73 53.5 126.5t127.5 53.5h200q74 0 127.5 -53.5t53.5 -126.5v-434h-191v379q0 20 -13.5 33.5t-33.5 13.5
h-82q-20 0 -33.5 -13.5t-13.5 -33.5z" />
    <glyph glyph-name="D" unicode="D" horiz-adv-x="778" 
d="M492 0h-386v1501h386q74 0 127 -53.5t53 -126.5v-1141q0 -74 -53 -127t-127 -53zM430 1313h-129v-1125h129q20 0 33.5 14t13.5 34v1030q0 20 -13.5 33.5t-33.5 13.5z" />
    <glyph glyph-name="E" unicode="E" horiz-adv-x="659" 
d="M106 0v1501h492v-188h-297v-469h277v-189h-277v-467h297v-188h-492z" />
    <glyph glyph-name="F" unicode="F" horiz-adv-x="638" 
d="M106 0v1501h482v-188h-287v-469h266v-189h-266v-655h-195z" />
    <glyph glyph-name="G" unicode="G" horiz-adv-x="770" 
d="M385 598v186h287v-604q0 -74 -53 -127t-127 -53h-205q-74 0 -127.5 53.5t-53.5 126.5v1141q0 73 53.5 126.5t127.5 53.5h200q74 0 127.5 -53.5t53.5 -126.5v-373h-191v318q0 20 -13.5 33.5t-33.5 13.5h-82q-20 0 -33.5 -13.5t-13.5 -33.5v-1030q0 -20 13.5 -34t33.5 -14
h82q20 0 33.5 14t13.5 34v362h-92z" />
    <glyph glyph-name="H" unicode="H" horiz-adv-x="761" 
d="M461 0v655h-160v-655h-195v1501h195v-657h160v657h194v-1501h-194z" />
    <glyph glyph-name="I" unicode="I" horiz-adv-x="407" 
d="M301 1501v-1501h-195v1501h195z" />
    <glyph glyph-name="J" unicode="J" horiz-adv-x="743" 
d="M457 0h-185q-74 0 -127 53t-53 127v350h195v-294q0 -20 13.5 -34t33.5 -14h61q20 0 33.5 14t13.5 34v1265h195v-1321q0 -74 -53.5 -127t-126.5 -53z" />
    <glyph glyph-name="K" unicode="K" horiz-adv-x="745" 
d="M690 1501l-172 -586l201 -915h-199l-147 684l-72 -205v-479h-195v1501h195v-655l201 655h188z" />
    <glyph glyph-name="L" unicode="L" horiz-adv-x="628" 
d="M106 0v1501h195v-1313h277v-188h-472z" />
    <glyph glyph-name="M" unicode="M" horiz-adv-x="942" 
d="M532 346h-129l-120 635h-2l8 -287v-694h-183v1501h226l139 -696h4l135 696h226v-1501h-189v694l8 287h-2z" />
    <glyph glyph-name="N" unicode="N" horiz-adv-x="768" 
d="M281 1501l202 -844h2l-8 310v534h185v-1501h-175l-202 844h-2l8 -309v-535h-185v1501h175z" />
    <glyph glyph-name="O" unicode="O" horiz-adv-x="778" 
d="M492 0h-205q-74 0 -127.5 53.5t-53.5 126.5v1141q0 73 53.5 126.5t127.5 53.5h205q74 0 127 -53.5t53 -126.5v-1141q0 -74 -53 -127t-127 -53zM301 1266v-1030q0 -20 13.5 -34t33.5 -14h82q20 0 33.5 14t13.5 34v1030q0 20 -13.5 33.5t-33.5 13.5h-82q-20 0 -33.5 -13.5
t-13.5 -33.5z" />
    <glyph glyph-name="P" unicode="P" horiz-adv-x="753" 
d="M492 664h-191v-664h-195v1501h386q74 0 127 -53.5t53 -126.5v-477q0 -74 -53 -127t-127 -53zM430 1313h-129v-461h129q20 0 33.5 13.5t13.5 33.5v367q0 20 -13.5 33.5t-33.5 13.5z" />
    <glyph glyph-name="Q" unicode="Q" horiz-adv-x="778" 
d="M672 180q0 -92 -78 -147l92 -215h-199l-73 182h-127q-74 0 -127.5 53.5t-53.5 126.5v1141q0 73 53.5 126.5t127.5 53.5h205q74 0 127 -53.5t53 -126.5v-1141zM301 1266v-1030q0 -20 13.5 -34t33.5 -14h82q20 0 33.5 14t13.5 34v1030q0 20 -13.5 33.5t-33.5 13.5h-82
q-20 0 -33.5 -13.5t-13.5 -33.5z" />
    <glyph glyph-name="R" unicode="R" horiz-adv-x="778" 
d="M106 1501h386q74 0 127 -53.5t53 -126.5v-467q0 -62 -27.5 -108t-79.5 -64l207 -682h-207l-194 664h-70v-664h-195v1501zM430 1313h-129v-461h129q20 0 33.5 13.5t13.5 33.5v367q0 20 -13.5 33.5t-33.5 13.5z" />
    <glyph glyph-name="S" unicode="S" horiz-adv-x="778" 
d="M430 653h-143q-73 0 -127 53.5t-54 127.5v487q0 73 53.5 126.5t127.5 53.5h205q74 0 127 -53.5t53 -126.5v-350h-195v295q0 20 -13.5 33.5t-33.5 13.5h-82q-20 0 -33.5 -13.5t-13.5 -33.5v-371q0 -20 13.5 -33.5t33.5 -13.5h144q74 0 127 -53t53 -127v-488
q0 -74 -53 -127t-127 -53h-205q-74 0 -127.5 53.5t-53.5 126.5v355h195v-299q0 -20 13.5 -34t33.5 -14h82q20 0 33.5 14t13.5 34v370q0 20 -13.5 33.5t-33.5 13.5z" />
    <glyph glyph-name="T" unicode="T" horiz-adv-x="604" 
d="M31 1313v188h542v-188h-174v-1313h-194v1313h-174z" />
    <glyph glyph-name="U" unicode="U" horiz-adv-x="770" 
d="M483 0h-196q-74 0 -127.5 53.5t-53.5 126.5v1321h195v-1265q0 -20 13.5 -34t33.5 -14h74q20 0 33.5 14t13.5 34v1265h195v-1321q0 -73 -53.5 -126.5t-127.5 -53.5z" />
    <glyph glyph-name="V" unicode="V" horiz-adv-x="673" 
d="M649 1501l-192 -1501h-240l-192 1501h198l115 -1009h4l113 1009h194z" />
    <glyph glyph-name="W" unicode="W" horiz-adv-x="1079" 
d="M459 1401h184l121 -858h4l84 958h190l-149 -1501h-236l-108 883h-4l-113 -883h-227l-150 1501h193l88 -958h4z" />
    <glyph glyph-name="X" unicode="X" horiz-adv-x="655" 
d="M434 803l211 -803h-190l-127 506l-119 -506h-199l211 803l-180 698h188l101 -432l96 432h188z" />
    <glyph glyph-name="Y" unicode="Y" horiz-adv-x="673" 
d="M338 932h4l115 569h192l-215 -897v-604h-194v604l-215 897h198z" />
    <glyph glyph-name="Z" unicode="Z" horiz-adv-x="686" 
d="M639 1491l-344 -1301h340v-190h-594v10l344 1301h-293v190h547v-10z" />
    <glyph glyph-name="bracketleft" unicode="[" horiz-adv-x="520" 
d="M102 -154v1809h316v-113h-152v-1583h152v-113h-316z" />
    <glyph glyph-name="backslash" unicode="\" horiz-adv-x="538" 
d="M178 1501l299 -1501h-117l-299 1501h117z" />
    <glyph glyph-name="bracketright" unicode="]" horiz-adv-x="520" 
d="M418 1655v-1809h-316v113h152v1583h-152v113h316z" />
    <glyph glyph-name="asciicircum" unicode="^" horiz-adv-x="706" 
d="M446 780l-94 445l-92 -445h-158l158 721h186l158 -721h-158z" />
    <glyph glyph-name="underscore" unicode="_" horiz-adv-x="624" 
d="M61 -326v144h502v-144h-502z" />
    <glyph glyph-name="grave" unicode="`" horiz-adv-x="444" 
d="M205 1589l-103 250h217l23 -250h-137z" />
    <glyph glyph-name="a" unicode="a" 
d="M102 750q0 66 46 112.5t112 46.5t113 -46.5t47 -112.5t-47 -112t-113 -46t-112 46t-46 112z" />
    <glyph glyph-name="b" unicode="b" 
d="M102 750q0 66 46 112.5t112 46.5t113 -46.5t47 -112.5t-47 -112t-113 -46t-112 46t-46 112z" />
    <glyph glyph-name="c" unicode="c" 
d="M102 750q0 66 46 112.5t112 46.5t113 -46.5t47 -112.5t-47 -112t-113 -46t-112 46t-46 112z" />
    <glyph glyph-name="d" unicode="d" 
d="M102 750q0 66 46 112.5t112 46.5t113 -46.5t47 -112.5t-47 -112t-113 -46t-112 46t-46 112z" />
    <glyph glyph-name="e" unicode="e" 
d="M102 750q0 66 46 112.5t112 46.5t113 -46.5t47 -112.5t-47 -112t-113 -46t-112 46t-46 112z" />
    <glyph glyph-name="f" unicode="f" 
d="M102 750q0 66 46 112.5t112 46.5t113 -46.5t47 -112.5t-47 -112t-113 -46t-112 46t-46 112z" />
    <glyph glyph-name="g" unicode="g" horiz-adv-x="778" 
d="M524 0v63h-4q-47 -63 -133 -63h-100q-74 0 -127.5 53.5t-53.5 126.5v1141q0 73 53.5 126.5t127.5 53.5h200q74 0 127.5 -53.5t53.5 -126.5v-373h-191v318q0 20 -13.5 33.5t-33.5 13.5h-82q-20 0 -33.5 -13.5t-13.5 -33.5v-1030q0 -20 13.5 -34t33.5 -14h82q20 0 33.5 14
t13.5 34v360h-92v188h287v-784h-148z" />
    <glyph glyph-name="h" unicode="h" 
d="M102 750q0 66 46 112.5t112 46.5t113 -46.5t47 -112.5t-47 -112t-113 -46t-112 46t-46 112z" />
    <glyph glyph-name="i" unicode="i" 
d="M41 0v188h123v1125h-123v188h440v-188h-123v-1125h123v-188h-440z" />
    <glyph glyph-name="j" unicode="j" 
d="M102 750q0 66 46 112.5t112 46.5t113 -46.5t47 -112.5t-47 -112t-113 -46t-112 46t-46 112z" />
    <glyph glyph-name="k" unicode="k" horiz-adv-x="757" 
d="M498 1501h194l-172 -684q59 0 102.5 -46t43.5 -122v-413q0 -20 13.5 -34t33.5 -14h8v-188h-70q-73 0 -126.5 53t-53.5 127v430q0 20 -13.5 33.5t-33.5 13.5h-123v-657h-195v1501h195v-657h39z" />
    <glyph glyph-name="l" unicode="l" 
d="M102 750q0 66 46 112.5t112 46.5t113 -46.5t47 -112.5t-47 -112t-113 -46t-112 46t-46 112z" />
    <glyph glyph-name="m" unicode="m" horiz-adv-x="1064" 
d="M352 1501l180 -1024h5l176 1024h245v-1501h-188v694l8 287h-2l-176 -981h-145l-176 981h-3l9 -287v-694h-179v1501h246z" />
    <glyph glyph-name="n" unicode="n" 
d="M102 750q0 66 46 112.5t112 46.5t113 -46.5t47 -112.5t-47 -112t-113 -46t-112 46t-46 112z" />
    <glyph glyph-name="o" unicode="o" 
d="M102 750q0 66 46 112.5t112 46.5t113 -46.5t47 -112.5t-47 -112t-113 -46t-112 46t-46 112z" />
    <glyph glyph-name="p" unicode="p" 
d="M102 750q0 66 46 112.5t112 46.5t113 -46.5t47 -112.5t-47 -112t-113 -46t-112 46t-46 112z" />
    <glyph glyph-name="q" unicode="q" 
d="M102 750q0 66 46 112.5t112 46.5t113 -46.5t47 -112.5t-47 -112t-113 -46t-112 46t-46 112z" />
    <glyph glyph-name="r" unicode="r" horiz-adv-x="757" 
d="M424 1313h-123v-469h123q20 0 33.5 13.5t13.5 33.5v375q0 20 -13.5 33.5t-33.5 13.5zM471 180v430q0 20 -13.5 33.5t-33.5 13.5h-123v-657h-195v1501h379q74 0 127.5 -53.5t53.5 -126.5v-406q0 -70 -32 -111t-75 -52q43 -10 75 -52t32 -112v-352q0 -20 13.5 -34t33.5 -14
h8v-188h-70q-73 0 -126.5 53t-53.5 127z" />
    <glyph glyph-name="s" unicode="s" 
d="M102 750q0 66 46 112.5t112 46.5t113 -46.5t47 -112.5t-47 -112t-113 -46t-112 46t-46 112z" />
    <glyph glyph-name="t" unicode="t" 
d="M102 750q0 66 46 112.5t112 46.5t113 -46.5t47 -112.5t-47 -112t-113 -46t-112 46t-46 112z" />
    <glyph glyph-name="u" unicode="u" 
d="M102 750q0 66 46 112.5t112 46.5t113 -46.5t47 -112.5t-47 -112t-113 -46t-112 46t-46 112z" />
    <glyph glyph-name="v" unicode="v" 
d="M102 750q0 66 46 112.5t112 46.5t113 -46.5t47 -112.5t-47 -112t-113 -46t-112 46t-46 112z" />
    <glyph glyph-name="w" unicode="w" horiz-adv-x="1079" 
d="M459 1501h184l121 -958h4l84 958h190l-149 -1501h-236l-108 948h-4l-113 -948h-227l-150 1501h193l88 -958h4z" />
    <glyph glyph-name="x" unicode="x" 
d="M102 750q0 66 46 112.5t112 46.5t113 -46.5t47 -112.5t-47 -112t-113 -46t-112 46t-46 112z" />
    <glyph glyph-name="y" unicode="y" 
d="M102 750q0 66 46 112.5t112 46.5t113 -46.5t47 -112.5t-47 -112t-113 -46t-112 46t-46 112z" />
    <glyph glyph-name="z" unicode="z" 
d="M102 750q0 66 46 112.5t112 46.5t113 -46.5t47 -112.5t-47 -112t-113 -46t-112 46t-46 112z" />
    <glyph glyph-name="braceleft" unicode="{" horiz-adv-x="569" 
d="M365 588v-541q0 -20 13.5 -33.5t33.5 -13.5h55v-154h-125q-66 0 -114 47t-48 113v623q0 17 -12 28t-29 11h-37v166h37q18 0 29.5 10.5t11.5 27.5v623q0 66 48 113t114 47h125v-154h-55q-20 0 -33.5 -13.5t-13.5 -33.5v-543q0 -43 -9.5 -74t-26.5 -48t-31.5 -25t-33.5 -14
q19 -6 33.5 -14t31.5 -25.5t26.5 -48.5t9.5 -74z" />
    <glyph glyph-name="bar" unicode="|" horiz-adv-x="452" 
d="M289 1655v-1809h-125v1809h125z" />
    <glyph glyph-name="braceright" unicode="}" horiz-adv-x="569" 
d="M205 47v541q0 133 100 162q-19 6 -33.5 14t-31 25t-26 48t-9.5 74v543q0 20 -13.5 33.5t-33.5 13.5h-56v154h125q66 0 114 -47t48 -113v-623q0 -17 11.5 -27.5t29.5 -10.5h37v-166h-37q-17 0 -29 -11t-12 -28v-623q0 -66 -48 -113t-114 -47h-125v154h56q20 0 33.5 13.5
t13.5 33.5z" />
    <glyph glyph-name="asciitilde" unicode="~" horiz-adv-x="829" 
d="M727 870v-108q0 -55 -30 -93t-91 -38q-45 0 -193.5 39t-170.5 39q-25 0 -25 -29v-49h-115v108q0 55 30 93t91 38q45 0 194 -38.5t171 -38.5q24 0 24 28v49h115z" />
    <glyph glyph-name="exclamdown" unicode="&#xa1;" horiz-adv-x="407" 
d="M283 1081l20 -1081h-199l21 1081h158zM301 1501v-256h-195v256h195z" />
    <glyph glyph-name="cent" unicode="&#xa2;" horiz-adv-x="765" 
d="M297 1153v-797q0 -20 13.5 -33.5t33.5 -13.5h82q20 0 33.5 13.5t13.5 33.5v279h191v-334q0 -73 -53.5 -126.5t-127.5 -53.5h-12v-121h-166v121h-22q-74 0 -127.5 53.5t-53.5 126.5v907q0 74 54 127.5t127 53.5h22v112h166v-112h12q73 0 127 -53.5t54 -127.5v-342h-191
v287q0 20 -13.5 33.5t-33.5 13.5h-82q-20 0 -33.5 -13.5t-13.5 -33.5z" />
    <glyph glyph-name="sterling" unicode="&#xa3;" horiz-adv-x="747" 
d="M358 188h326v-188h-623v188h103v478h-103v153h103v504q0 73 53 126.5t127 53.5h158q74 0 127 -53.5t53 -126.5v-266h-190v211q0 20 -14 33.5t-34 13.5h-38q-20 0 -34 -13.5t-14 -33.5v-449h160v-153h-160v-478z" />
    <glyph glyph-name="yen" unicode="&#xa5;" horiz-adv-x="673" 
d="M338 932h4l115 569h192l-143 -596h112v-143h-147l-35 -144h182v-143h-184v-475h-194v475h-185v143h181l-35 144h-146v143h111l-141 596h198z" />
    <glyph glyph-name="brokenbar" unicode="&#xa6;" horiz-adv-x="452" 
d="M289 844h-125v811h125v-811zM289 -154h-125v811h125v-811z" />
    <glyph glyph-name="section" unicode="&#xa7;" horiz-adv-x="778" 
d="M672 848v-668q0 -74 -53 -127t-127 -53h-205q-74 0 -127.5 53.5t-53.5 126.5v146h195v-90q0 -20 13.5 -34t33.5 -14h82q20 0 33.5 14t13.5 34v122q0 54 -31 64l-200 57q-71 21 -105.5 62.5t-34.5 111.5v668q0 73 53.5 126.5t127.5 53.5h205q74 0 127 -53.5t53 -126.5
v-145h-195v90q0 20 -13.5 33.5t-33.5 13.5h-82q-20 0 -33.5 -13.5t-13.5 -33.5v-123q0 -54 31 -64l200 -57q72 -23 106 -63t34 -111zM301 874v-163q0 -38 33 -47l143 -39v163q0 39 -33 48z" />
    <glyph glyph-name="dieresis" unicode="&#xa8;" horiz-adv-x="602" 
d="M258 1839v-250h-156v250h156zM500 1839v-250h-156v250h156z" />
    <glyph glyph-name="copyright" unicode="&#xa9;" horiz-adv-x="1269" 
d="M680 1120h-94q-12 0 -21.5 -8t-9.5 -20v-668q0 -12 9.5 -20.5t21.5 -8.5h94q12 0 21.5 8.5t9.5 20.5v184h125v-219q0 -47 -35 -82t-82 -35h-172q-47 0 -82 35t-35 82v737q0 47 35 82t82 35h172q47 0 82 -35t35 -82v-219h-125v185q0 12 -9.5 20t-21.5 8zM635 1507
q85 0 155 -13t122 -33t92 -58t67 -73t45.5 -93t28.5 -103.5t15 -119.5t6 -125.5t1 -136.5t-1 -137t-6 -126.5t-15 -120t-28.5 -103.5t-45.5 -93t-67 -73t-92 -58.5t-122 -33.5t-155 -13t-155 13t-122 33.5t-92 58t-67 73t-46 93.5t-28.5 104t-15 120t-6.5 126t-1 137
q0 84 1 136t6.5 126t15 119.5t28.5 103.5t46 93t67 72.5t92 58t122 33.5t155 13zM635 115q84 0 147 16t105.5 37.5t70.5 71.5t43 87t22 116.5t8 128.5t1 153v9v7.5v8.5q0 243 -12 329q-23 170 -116 240q-90 67 -269 67q-59 0 -107.5 -6t-86.5 -22.5t-67 -32t-50.5 -48.5
t-36 -56t-24 -71t-15 -77.5t-7.5 -92t-2.5 -97t-0.5 -108.5v-25q0 -242 11 -328q23 -169 116 -239q90 -68 270 -68z" />
    <glyph glyph-name="ordfeminine" unicode="&#xaa;" 
d="M102 750q0 66 46 112.5t112 46.5t113 -46.5t47 -112.5t-47 -112t-113 -46t-112 46t-46 112z" />
    <glyph glyph-name="guillemotleft" unicode="&#xab;" horiz-adv-x="716" 
d="M61 752l125 399h164l-92 -399l92 -398h-164zM362 752l127 399h166l-92 -399l92 -398h-166z" />
    <glyph glyph-name="logicalnot" unicode="&#xac;" horiz-adv-x="829" 
d="M102 823v144h625v-430h-160v286h-465z" />
    <glyph glyph-name="registered" unicode="&#xae;" horiz-adv-x="1269" 
d="M426 1243h289q47 0 81.5 -35t34.5 -82v-309q0 -37 -22 -67.5t-57 -42.5l157 -435h-135l-149 430h-74v-430h-125v971zM676 1120h-125v-297h125q12 0 21.5 9t9.5 22v238q0 12 -9.5 20t-21.5 8zM635 1507q85 0 155 -13t122 -33t92 -58t67 -73t45.5 -93t28.5 -103.5
t15 -119.5t6 -125.5t1 -136.5t-1 -137t-6 -126.5t-15 -120t-28.5 -103.5t-45.5 -93t-67 -73t-92 -58.5t-122 -33.5t-155 -13t-155 13t-122 33.5t-92 58t-67 73t-46 93.5t-28.5 104t-15 120t-6.5 126t-1 137q0 84 1 136t6.5 126t15 119.5t28.5 103.5t46 93t67 72.5t92 58
t122 33.5t155 13zM635 115q84 0 147 16t105.5 37.5t70.5 71.5t43 87t22 116.5t8 128.5t1 153v9v7.5v8.5q0 243 -12 329q-23 170 -116 240q-90 67 -269 67q-59 0 -107.5 -6t-86.5 -22.5t-67 -32t-50.5 -48.5t-36 -56t-24 -71t-15 -77.5t-7.5 -92t-2.5 -97t-0.5 -108.5v-25
q0 -242 11 -328q23 -169 116 -239q90 -68 270 -68z" />
    <glyph glyph-name="macron" unicode="&#xaf;" horiz-adv-x="630" 
d="M528 1778v-148h-426v148h426z" />
    <glyph glyph-name="degree" unicode="&#xb0;" horiz-adv-x="573" 
d="M287 1501q77 0 130.5 -53.5t53.5 -130.5t-53.5 -130.5t-130.5 -53.5q-75 0 -130 54t-55 130t55 130t130 54zM287 1200q49 0 82.5 34.5t33.5 82.5t-33.5 82.5t-82.5 34.5q-47 0 -81 -35t-34 -82t34 -82t81 -35z" />
    <glyph glyph-name="plusminus" unicode="&#xb1;" horiz-adv-x="837" 
d="M106 840v143h236v240h154v-240h235v-143h-235v-240h-154v240h-236zM106 0v143h625v-143h-625z" />
    <glyph glyph-name="twosuperior" unicode="&#xb2;" horiz-adv-x="532" 
d="M102 602v158q0 62 33 123l170 297q8 13 8 47v133q0 12 -7.5 20.5t-18.5 8.5h-41q-11 0 -19 -8.5t-8 -20.5v-125h-115v160q0 43 32.5 74.5t76.5 31.5h111q43 0 74.5 -31.5t31.5 -74.5v-168q0 -46 -9.5 -73t-33.5 -67l-154 -262q-14 -25 -14 -63v-49h211v-111h-328z" />
    <glyph glyph-name="threesuperior" unicode="&#xb3;" horiz-adv-x="540" 
d="M244 1028v117h49q12 0 20.5 8.5t8.5 20.5v186q0 12 -8.5 20.5t-20.5 8.5h-49q-11 0 -19 -8.5t-8 -20.5v-125h-115v160q0 43 32.5 74.5t76.5 31.5h119q44 0 76 -31.5t32 -74.5v-209q0 -77 -55 -96q21 -8 38 -31.5t17 -65.5v-284q0 -43 -32 -75t-76 -32h-119
q-44 0 -76.5 32t-32.5 75v161h115v-127q0 -12 8 -20t19 -8h49q12 0 20.5 8t8.5 20v258q0 11 -8.5 19t-20.5 8h-49z" />
    <glyph glyph-name="acute" unicode="&#xb4;" horiz-adv-x="444" 
d="M342 1839l-102 -250h-138l23 250h217z" />
    <glyph glyph-name="mu" unicode="&#xb5;" horiz-adv-x="1433" 
d="M717 1507q109 0 197.5 -20.5t152 -56t110.5 -90t76 -116t47 -141.5t24.5 -158t6.5 -173q0 -96 -6.5 -174.5t-24.5 -158.5t-47 -141.5t-76 -116.5t-110.5 -90.5t-152 -56t-197.5 -20.5t-197.5 20.5t-152 56t-111 90.5t-76.5 116.5t-47 141.5t-24.5 159t-6.5 174t6.5 173
t24.5 158t47 141.5t76.5 116t111 90t152 56t197.5 20.5zM557 772l-80 383h-125v-825h107v383l-4 157h2l65 -360h66l65 360h2l-4 -157v-383h105v825h-123zM848 1155v-825h106v360h146v103h-146v260h160v102h-266z" />
    <glyph glyph-name="paragraph" unicode="&#xb6;" horiz-adv-x="620" 
d="M319 664h-67q-74 0 -127 53t-53 127v477q0 73 53 126.5t127 53.5h262v-1501h-195v664z" />
    <glyph glyph-name="periodcentered" unicode="&#xb7;" horiz-adv-x="407" 
d="M301 899v-256h-195v256h195z" />
    <glyph glyph-name="cedilla" unicode="&#xb8;" horiz-adv-x="444" 
d="M342 20l-123 -270h-137l63 270h197z" />
    <glyph glyph-name="onesuperior" unicode="&#xb9;" horiz-adv-x="389" 
d="M102 1378v111l99 12h86v-899h-117v782z" />
    <glyph glyph-name="ordmasculine" unicode="&#xba;" 
d="M102 750q0 66 46 112.5t112 46.5t113 -46.5t47 -112.5t-47 -112t-113 -46t-112 46t-46 112z" />
    <glyph glyph-name="guillemotright" unicode="&#xbb;" horiz-adv-x="716" 
d="M227 1151l127 -399l-127 -398h-166l93 398l-93 399h166zM530 1151l125 -399l-125 -398h-163l92 398l-92 399h163z" />
    <glyph glyph-name="onequarter" unicode="&#xbc;" horiz-adv-x="964" 
d="M197 0l421 1501h76l-422 -1501h-75zM102 1378v111l99 12h86v-899h-117v782zM504 154v108l160 637h143v-641h57v-104h-57v-154h-113v154h-190zM602 258h92l-2 154l6 245h-4z" />
    <glyph glyph-name="onehalf" unicode="&#xbd;" horiz-adv-x="1032" 
d="M602 0v158q0 62 33 123l170 297q8 13 8 47v133q0 12 -8 20t-19 8h-41q-11 0 -18.5 -8t-7.5 -20v-125h-115v160q0 43 32.5 74.5t76.5 31.5h110q43 0 75 -31.5t32 -74.5v-168q0 -46 -9.5 -73t-33.5 -67l-154 -262q-14 -25 -14 -63v-49h211v-111h-328zM197 0l421 1501h76
l-422 -1501h-75zM102 1378v111l99 12h86v-899h-117v782z" />
    <glyph glyph-name="threequarters" unicode="&#xbe;" horiz-adv-x="1105" 
d="M338 0l422 1501h76l-422 -1501h-76zM244 1028v117h49q12 0 20.5 8.5t8.5 20.5v186q0 12 -8.5 20.5t-20.5 8.5h-49q-11 0 -19 -8.5t-8 -20.5v-125h-115v160q0 43 32.5 74.5t76.5 31.5h119q44 0 76 -31.5t32 -74.5v-209q0 -77 -55 -96q21 -8 38 -31.5t17 -65.5v-284
q0 -43 -32 -75t-76 -32h-119q-44 0 -76.5 32t-32.5 75v161h115v-127q0 -12 8 -20t19 -8h49q12 0 20.5 8t8.5 20v258q0 11 -8.5 19t-20.5 8h-49zM645 154v108l160 637h143v-641h58v-104h-58v-154h-112v154h-191zM743 258h93l-2 154l6 245h-4z" />
    <glyph glyph-name="questiondown" unicode="&#xbf;" horiz-adv-x="688" 
d="M436 1081v-125q0 -99 -55 -206l-98 -187q-17 -31 -17 -88v-239q0 -20 13.5 -34t33.5 -14h66q20 0 33.5 14t13.5 34v210h190v-266q0 -74 -53 -127t-127 -53h-184q-74 0 -127 53t-53 127v297q0 52 11.5 96.5t20.5 62t39 71.5l86 159q25 46 25 92v123h182zM246 1245v256h194
v-256h-194z" />
    <glyph glyph-name="Agrave" unicode="&#xc0;" horiz-adv-x="673" 
d="M25 0l192 1501h240l192 -1501h-198l-39 332h-156l-37 -332h-194zM266 1563l-102 249h217l22 -249h-137zM332 1010l-56 -498h115l-55 498h-4z" />
    <glyph glyph-name="Aacute" unicode="&#xc1;" horiz-adv-x="673" 
d="M25 0l192 1501h240l192 -1501h-198l-39 332h-156l-37 -332h-194zM504 1812l-103 -249h-137l23 249h217zM332 1010l-56 -498h115l-55 498h-4z" />
    <glyph glyph-name="Acircumflex" unicode="&#xc2;" horiz-adv-x="673" 
d="M25 0l192 1501h240l192 -1501h-198l-39 332h-156l-37 -332h-194zM408 1563l-74 116l-72 -116h-158l123 249h215l123 -249h-157zM332 1010l-56 -498h115l-55 498h-4z" />
    <glyph glyph-name="Atilde" unicode="&#xc3;" horiz-adv-x="673" 
d="M25 0l192 1501h240l192 -1501h-198l-39 332h-156l-37 -332h-194zM240 1563h-115v98q0 70 29 99.5t71 29.5q34 0 95 -34t73 -34q23 0 23 29v39h114v-98q0 -70 -29 -99.5t-71 -29.5q-34 0 -95 33.5t-73 33.5q-22 0 -22 -28v-39zM332 1010l-56 -498h115l-55 498h-4z" />
    <glyph glyph-name="Adieresis" unicode="&#xc4;" horiz-adv-x="673" 
d="M25 0l192 1501h240l192 -1501h-198l-39 332h-156l-37 -332h-194zM291 1812v-249h-156v249h156zM532 1812v-249h-155v249h155zM332 1010l-56 -498h115l-55 498h-4z" />
    <glyph glyph-name="Aring" unicode="&#xc5;" horiz-adv-x="673" 
d="M334 1819q76 0 130 -54t54 -131q0 -83 -61 -137l192 -1497h-198l-39 332h-156l-37 -332h-194l190 1493q-65 52 -65 141q0 76 54.5 130.5t129.5 54.5zM334 1530q44 0 74 30.5t30 73.5t-30 74t-74 31q-43 0 -73 -31t-30 -74t30 -73.5t73 -30.5zM332 1010l-56 -498h115
l-55 498h-4z" />
    <glyph glyph-name="AE" unicode="&#xc6;" horiz-adv-x="907" 
d="M25 0l192 1501h629v-188h-365l60 -469h284v-189h-260l60 -467h221v-188h-395l-39 332h-156l-37 -332h-194zM332 1010l-56 -498h115l-55 498h-4z" />
    <glyph glyph-name="Ccedilla" unicode="&#xc7;" horiz-adv-x="770" 
d="M301 1266v-1030q0 -20 13.5 -34t33.5 -14h82q20 0 33.5 14t13.5 34v378h191v-434q0 -73 -53.5 -126.5t-127.5 -53.5h-6l-112 -250h-138l58 250h-2q-74 0 -127.5 53.5t-53.5 126.5v1141q0 73 53.5 126.5t127.5 53.5h200q74 0 127.5 -53.5t53.5 -126.5v-434h-191v379
q0 20 -13.5 33.5t-33.5 13.5h-82q-20 0 -33.5 -13.5t-13.5 -33.5z" />
    <glyph glyph-name="Egrave" unicode="&#xc8;" horiz-adv-x="638" 
d="M106 0v1501h492v-188h-297v-469h277v-189h-277v-467h297v-188h-492zM289 1563l-103 249h217l23 -249h-137z" />
    <glyph glyph-name="Eacute" unicode="&#xc9;" horiz-adv-x="638" 
d="M106 0v1501h492v-188h-297v-469h277v-189h-277v-467h297v-188h-492zM526 1812l-102 -249h-137l22 249h217z" />
    <glyph glyph-name="Ecircumflex" unicode="&#xca;" horiz-adv-x="638" 
d="M106 0v1501h492v-188h-297v-469h277v-189h-277v-467h297v-188h-492zM424 1563l-74 116l-71 -116h-158l123 249h215l123 -249h-158z" />
    <glyph glyph-name="Edieresis" unicode="&#xcb;" horiz-adv-x="638" 
d="M106 0v1501h492v-188h-297v-469h277v-189h-277v-467h297v-188h-492zM305 1812v-249h-155v249h155zM547 1812v-249h-156v249h156z" />
    <glyph glyph-name="Igrave" unicode="&#xcc;" horiz-adv-x="407" 
d="M301 1501v-1501h-195v1501h195zM137 1563l-102 249h217l22 -249h-137z" />
    <glyph glyph-name="Iacute" unicode="&#xcd;" horiz-adv-x="407" 
d="M301 1501v-1501h-195v1501h195zM375 1812l-103 -249h-137l23 249h217z" />
    <glyph glyph-name="Icircumflex" unicode="&#xce;" horiz-adv-x="407" 
d="M301 1501v-1501h-195v1501h195zM279 1563l-74 116l-72 -116h-158l123 249h215l123 -249h-157z" />
    <glyph glyph-name="Idieresis" unicode="&#xcf;" horiz-adv-x="407" 
d="M301 1501v-1501h-195v1501h195zM162 1812v-249h-156v249h156zM403 1812v-249h-155v249h155z" />
    <glyph glyph-name="Eth" unicode="&#xd0;" horiz-adv-x="778" 
d="M43 678v166h63v657h386q74 0 127 -53.5t53 -126.5v-1141q0 -74 -53 -127t-127 -53h-386v678h-63zM430 1313h-129v-469h107v-166h-107v-490h129q20 0 33.5 14t13.5 34v1030q0 20 -13.5 33.5t-33.5 13.5z" />
    <glyph glyph-name="Ntilde" unicode="&#xd1;" horiz-adv-x="768" 
d="M281 1501l202 -844h2l-8 310v534h185v-1501h-175l-202 844h-2l8 -309v-535h-185v1501h175zM283 1563h-115v98q0 70 29 99.5t71 29.5q34 0 95 -34t73 -34q23 0 23 29v39h114v-98q0 -70 -29 -99.5t-71 -29.5q-34 0 -95 33.5t-73 33.5q-22 0 -22 -28v-39z" />
    <glyph glyph-name="Ograve" unicode="&#xd2;" horiz-adv-x="778" 
d="M492 0h-205q-74 0 -127.5 53.5t-53.5 126.5v1141q0 73 53.5 126.5t127.5 53.5h205q74 0 127 -53.5t53 -126.5v-1141q0 -74 -53 -127t-127 -53zM301 1266v-1030q0 -20 13.5 -34t33.5 -14h82q20 0 33.5 14t13.5 34v1030q0 20 -13.5 33.5t-33.5 13.5h-82q-20 0 -33.5 -13.5
t-13.5 -33.5zM322 1563l-103 249h217l23 -249h-137z" />
    <glyph glyph-name="Oacute" unicode="&#xd3;" horiz-adv-x="778" 
d="M492 0h-205q-74 0 -127.5 53.5t-53.5 126.5v1141q0 73 53.5 126.5t127.5 53.5h205q74 0 127 -53.5t53 -126.5v-1141q0 -74 -53 -127t-127 -53zM301 1266v-1030q0 -20 13.5 -34t33.5 -14h82q20 0 33.5 14t13.5 34v1030q0 20 -13.5 33.5t-33.5 13.5h-82q-20 0 -33.5 -13.5
t-13.5 -33.5zM559 1812l-102 -249h-138l23 249h217z" />
    <glyph glyph-name="Ocircumflex" unicode="&#xd4;" horiz-adv-x="778" 
d="M492 0h-205q-74 0 -127.5 53.5t-53.5 126.5v1141q0 73 53.5 126.5t127.5 53.5h205q74 0 127 -53.5t53 -126.5v-1141q0 -74 -53 -127t-127 -53zM301 1266v-1030q0 -20 13.5 -34t33.5 -14h82q20 0 33.5 14t13.5 34v1030q0 20 -13.5 33.5t-33.5 13.5h-82q-20 0 -33.5 -13.5
t-13.5 -33.5zM463 1563l-74 116l-72 -116h-157l123 249h215l123 -249h-158z" />
    <glyph glyph-name="Otilde" unicode="&#xd5;" horiz-adv-x="778" 
d="M492 0h-205q-74 0 -127.5 53.5t-53.5 126.5v1141q0 73 53.5 126.5t127.5 53.5h205q74 0 127 -53.5t53 -126.5v-1141q0 -74 -53 -127t-127 -53zM301 1266v-1030q0 -20 13.5 -34t33.5 -14h82q20 0 33.5 14t13.5 34v1030q0 20 -13.5 33.5t-33.5 13.5h-82q-20 0 -33.5 -13.5
t-13.5 -33.5zM295 1563h-115v98q0 70 29.5 99.5t71.5 29.5q34 0 95 -34t73 -34q22 0 22 29v39h115v-98q0 -70 -29.5 -99.5t-71.5 -29.5q-34 0 -95 33.5t-73 33.5q-22 0 -22 -28v-39z" />
    <glyph glyph-name="Odieresis" unicode="&#xd6;" horiz-adv-x="778" 
d="M492 0h-205q-74 0 -127.5 53.5t-53.5 126.5v1141q0 73 53.5 126.5t127.5 53.5h205q74 0 127 -53.5t53 -126.5v-1141q0 -74 -53 -127t-127 -53zM301 1266v-1030q0 -20 13.5 -34t33.5 -14h82q20 0 33.5 14t13.5 34v1030q0 20 -13.5 33.5t-33.5 13.5h-82q-20 0 -33.5 -13.5
t-13.5 -33.5zM346 1812v-249h-156v249h156zM588 1812v-249h-156v249h156z" />
    <glyph glyph-name="multiply" unicode="&#xd7;" horiz-adv-x="892" 
d="M205 408l-103 100l242 242l-242 243l103 101l241 -242l244 244l101 -103l-244 -243l244 -242l-101 -102l-244 243z" />
    <glyph glyph-name="Oslash" unicode="&#xd8;" horiz-adv-x="778" 
d="M492 0h-205q-74 0 -127.5 53.5t-53.5 126.5v1141q0 73 53.5 126.5t127.5 53.5h205q74 0 127 -53.5t53 -126.5v-1141q0 -74 -53 -127t-127 -53zM430 188q20 0 33.5 14t13.5 34v593l-166 -626q12 -15 37 -15h82zM301 1266v-586l162 618q-15 15 -33 15h-82
q-20 0 -33.5 -13.5t-13.5 -33.5z" />
    <glyph glyph-name="Ugrave" unicode="&#xd9;" horiz-adv-x="770" 
d="M483 0h-196q-74 0 -127.5 53.5t-53.5 126.5v1321h195v-1265q0 -20 13.5 -34t33.5 -14h74q20 0 33.5 14t13.5 34v1265h195v-1321q0 -73 -53.5 -126.5t-127.5 -53.5zM322 1563l-103 249h217l23 -249h-137z" />
    <glyph glyph-name="Uacute" unicode="&#xda;" horiz-adv-x="770" 
d="M483 0h-196q-74 0 -127.5 53.5t-53.5 126.5v1321h195v-1265q0 -20 13.5 -34t33.5 -14h74q20 0 33.5 14t13.5 34v1265h195v-1321q0 -73 -53.5 -126.5t-127.5 -53.5zM559 1812l-102 -249h-138l23 249h217z" />
    <glyph glyph-name="Ucircumflex" unicode="&#xdb;" horiz-adv-x="770" 
d="M483 0h-196q-74 0 -127.5 53.5t-53.5 126.5v1321h195v-1265q0 -20 13.5 -34t33.5 -14h74q20 0 33.5 14t13.5 34v1265h195v-1321q0 -73 -53.5 -126.5t-127.5 -53.5zM463 1563l-74 116l-72 -116h-157l123 249h215l123 -249h-158z" />
    <glyph glyph-name="Udieresis" unicode="&#xdc;" horiz-adv-x="770" 
d="M483 0h-196q-74 0 -127.5 53.5t-53.5 126.5v1321h195v-1265q0 -20 13.5 -34t33.5 -14h74q20 0 33.5 14t13.5 34v1265h195v-1321q0 -73 -53.5 -126.5t-127.5 -53.5zM346 1812v-249h-156v249h156zM588 1812v-249h-156v249h156z" />
    <glyph glyph-name="Yacute" unicode="&#xdd;" horiz-adv-x="673" 
d="M338 932h4l115 569h192l-215 -897v-604h-194v604l-215 897h198zM510 1812l-102 -249h-138l23 249h217z" />
    <glyph glyph-name="Thorn" unicode="&#xde;" horiz-adv-x="753" 
d="M492 344h-191v-344h-195v1501h195v-319h191q73 0 126.5 -53.5t53.5 -127.5v-477q0 -74 -53 -127t-127 -53zM430 993h-129v-461h129q20 0 33.5 14t13.5 34v366q0 20 -13.5 33.5t-33.5 13.5z" />
    <glyph glyph-name="germandbls" unicode="&#xdf;" horiz-adv-x="757" 
d="M666 588v-408q0 -73 -53.5 -126.5t-127.5 -53.5h-102v188h41q20 0 33.5 14t13.5 34v374q0 20 -13.5 33.5t-33.5 13.5h-41v187h41q20 0 33.5 13.5t13.5 33.5v375q0 20 -13.5 33.5t-33.5 13.5h-76q-20 0 -33.5 -13.5t-13.5 -33.5v-1266h-195v1321q0 73 53.5 126.5
t127.5 53.5h198q74 0 127.5 -53.5t53.5 -126.5v-406q0 -70 -32 -111t-75 -52q43 -10 75 -52t32 -112z" />
    <glyph glyph-name="agrave" unicode="&#xe0;" 
d="M102 750q0 66 46 112.5t112 46.5t113 -46.5t47 -112.5t-47 -112t-113 -46t-112 46t-46 112z" />
    <glyph glyph-name="aacute" unicode="&#xe1;" 
d="M102 750q0 66 46 112.5t112 46.5t113 -46.5t47 -112.5t-47 -112t-113 -46t-112 46t-46 112z" />
    <glyph glyph-name="acircumflex" unicode="&#xe2;" 
d="M102 750q0 66 46 112.5t112 46.5t113 -46.5t47 -112.5t-47 -112t-113 -46t-112 46t-46 112z" />
    <glyph glyph-name="atilde" unicode="&#xe3;" 
d="M102 750q0 66 46 112.5t112 46.5t113 -46.5t47 -112.5t-47 -112t-113 -46t-112 46t-46 112z" />
    <glyph glyph-name="adieresis" unicode="&#xe4;" 
d="M102 750q0 66 46 112.5t112 46.5t113 -46.5t47 -112.5t-47 -112t-113 -46t-112 46t-46 112z" />
    <glyph glyph-name="aring" unicode="&#xe5;" 
d="M102 750q0 66 46 112.5t112 46.5t113 -46.5t47 -112.5t-47 -112t-113 -46t-112 46t-46 112z" />
    <glyph glyph-name="ae" unicode="&#xe6;" horiz-adv-x="976" 
d="M424 0v332h-160l-59 -332h-195l283 1501h622v-188h-297v-469h277v-189h-277v-467h297v-188h-491zM420 1194l-123 -682h127v682h-4z" />
    <glyph glyph-name="ccedilla" unicode="&#xe7;" 
d="M102 750q0 66 46 112.5t112 46.5t113 -46.5t47 -112.5t-47 -112t-113 -46t-112 46t-46 112z" />
    <glyph glyph-name="egrave" unicode="&#xe8;" 
d="M102 750q0 66 46 112.5t112 46.5t113 -46.5t47 -112.5t-47 -112t-113 -46t-112 46t-46 112z" />
    <glyph glyph-name="eacute" unicode="&#xe9;" 
d="M102 750q0 66 46 112.5t112 46.5t113 -46.5t47 -112.5t-47 -112t-113 -46t-112 46t-46 112z" />
    <glyph glyph-name="ecircumflex" unicode="&#xea;" 
d="M102 750q0 66 46 112.5t112 46.5t113 -46.5t47 -112.5t-47 -112t-113 -46t-112 46t-46 112z" />
    <glyph glyph-name="edieresis" unicode="&#xeb;" 
d="M102 750q0 66 46 112.5t112 46.5t113 -46.5t47 -112.5t-47 -112t-113 -46t-112 46t-46 112z" />
    <glyph glyph-name="igrave" unicode="&#xec;" 
d="M102 750q0 66 46 112.5t112 46.5t113 -46.5t47 -112.5t-47 -112t-113 -46t-112 46t-46 112z" />
    <glyph glyph-name="iacute" unicode="&#xed;" 
d="M102 750q0 66 46 112.5t112 46.5t113 -46.5t47 -112.5t-47 -112t-113 -46t-112 46t-46 112z" />
    <glyph glyph-name="icircumflex" unicode="&#xee;" 
d="M102 750q0 66 46 112.5t112 46.5t113 -46.5t47 -112.5t-47 -112t-113 -46t-112 46t-46 112z" />
    <glyph glyph-name="idieresis" unicode="&#xef;" 
d="M102 750q0 66 46 112.5t112 46.5t113 -46.5t47 -112.5t-47 -112t-113 -46t-112 46t-46 112z" />
    <glyph glyph-name="eth" unicode="&#xf0;" 
d="M102 750q0 66 46 112.5t112 46.5t113 -46.5t47 -112.5t-47 -112t-113 -46t-112 46t-46 112z" />
    <glyph glyph-name="ntilde" unicode="&#xf1;" 
d="M102 750q0 66 46 112.5t112 46.5t113 -46.5t47 -112.5t-47 -112t-113 -46t-112 46t-46 112z" />
    <glyph glyph-name="ograve" unicode="&#xf2;" 
d="M102 750q0 66 46 112.5t112 46.5t113 -46.5t47 -112.5t-47 -112t-113 -46t-112 46t-46 112z" />
    <glyph glyph-name="oacute" unicode="&#xf3;" 
d="M102 750q0 66 46 112.5t112 46.5t113 -46.5t47 -112.5t-47 -112t-113 -46t-112 46t-46 112z" />
    <glyph glyph-name="ocircumflex" unicode="&#xf4;" 
d="M102 750q0 66 46 112.5t112 46.5t113 -46.5t47 -112.5t-47 -112t-113 -46t-112 46t-46 112z" />
    <glyph glyph-name="otilde" unicode="&#xf5;" 
d="M102 750q0 66 46 112.5t112 46.5t113 -46.5t47 -112.5t-47 -112t-113 -46t-112 46t-46 112z" />
    <glyph glyph-name="odieresis" unicode="&#xf6;" 
d="M102 750q0 66 46 112.5t112 46.5t113 -46.5t47 -112.5t-47 -112t-113 -46t-112 46t-46 112z" />
    <glyph glyph-name="divide" unicode="&#xf7;" horiz-adv-x="829" 
d="M512 506v-256h-195v256h195zM512 1251v-256h-195v256h195zM102 680v143h625v-143h-625z" />
    <glyph glyph-name="oslash" unicode="&#xf8;" 
d="M102 750q0 66 46 112.5t112 46.5t113 -46.5t47 -112.5t-47 -112t-113 -46t-112 46t-46 112z" />
    <glyph glyph-name="ugrave" unicode="&#xf9;" 
d="M102 750q0 66 46 112.5t112 46.5t113 -46.5t47 -112.5t-47 -112t-113 -46t-112 46t-46 112z" />
    <glyph glyph-name="uacute" unicode="&#xfa;" 
d="M102 750q0 66 46 112.5t112 46.5t113 -46.5t47 -112.5t-47 -112t-113 -46t-112 46t-46 112z" />
    <glyph glyph-name="ucircumflex" unicode="&#xfb;" 
d="M102 750q0 66 46 112.5t112 46.5t113 -46.5t47 -112.5t-47 -112t-113 -46t-112 46t-46 112z" />
    <glyph glyph-name="udieresis" unicode="&#xfc;" 
d="M102 750q0 66 46 112.5t112 46.5t113 -46.5t47 -112.5t-47 -112t-113 -46t-112 46t-46 112z" />
    <glyph glyph-name="yacute" unicode="&#xfd;" 
d="M102 750q0 66 46 112.5t112 46.5t113 -46.5t47 -112.5t-47 -112t-113 -46t-112 46t-46 112z" />
    <glyph glyph-name="thorn" unicode="&#xfe;" 
d="M102 750q0 66 46 112.5t112 46.5t113 -46.5t47 -112.5t-47 -112t-113 -46t-112 46t-46 112z" />
    <glyph glyph-name="ydieresis" unicode="&#xff;" 
d="M102 750q0 66 46 112.5t112 46.5t113 -46.5t47 -112.5t-47 -112t-113 -46t-112 46t-46 112z" />
    <glyph glyph-name="dotlessi" unicode="&#x131;" 
d="M102 750q0 66 46 112.5t112 46.5t113 -46.5t47 -112.5t-47 -112t-113 -46t-112 46t-46 112z" />
    <glyph glyph-name="Lslash" unicode="&#x141;" horiz-adv-x="628" 
d="M35 514v172l71 39v776h195v-670l180 101v-172l-180 -101v-471h277v-188h-472v553z" />
    <glyph glyph-name="lslash" unicode="&#x142;" 
d="M102 750q0 66 46 112.5t112 46.5t113 -46.5t47 -112.5t-47 -112t-113 -46t-112 46t-46 112z" />
    <glyph glyph-name="OE" unicode="&#x152;" horiz-adv-x="989" 
d="M287 0q-74 0 -127.5 53.5t-53.5 126.5v1141q0 73 53.5 126.5t127.5 53.5h682v-188h-297v-469h276v-189h-276v-467h297v-188h-471h-6h-205zM301 1266v-1030q0 -20 13.5 -34t33.5 -14h82q20 0 33.5 14t13.5 34v1036q-7 41 -47 41h-82q-20 0 -33.5 -13.5t-13.5 -33.5z" />
    <glyph glyph-name="oe" unicode="&#x153;" 
d="M102 750q0 66 46 112.5t112 46.5t113 -46.5t47 -112.5t-47 -112t-113 -46t-112 46t-46 112z" />
    <glyph glyph-name="Scaron" unicode="&#x160;" horiz-adv-x="778" 
d="M430 653h-143q-73 0 -127 53.5t-54 127.5v487q0 73 53.5 126.5t127.5 53.5h205q74 0 127 -53.5t53 -126.5v-350h-195v295q0 20 -13.5 33.5t-33.5 13.5h-82q-20 0 -33.5 -13.5t-13.5 -33.5v-371q0 -20 13.5 -33.5t33.5 -13.5h144q74 0 127 -53t53 -127v-488
q0 -74 -53 -127t-127 -53h-205q-74 0 -127.5 53.5t-53.5 126.5v355h195v-299q0 -20 13.5 -34t33.5 -14h82q20 0 33.5 14t13.5 34v370q0 20 -13.5 33.5t-33.5 13.5zM389 1696l74 116h158l-123 -249h-215l-123 249h157z" />
    <glyph glyph-name="scaron" unicode="&#x161;" 
d="M102 750q0 66 46 112.5t112 46.5t113 -46.5t47 -112.5t-47 -112t-113 -46t-112 46t-46 112z" />
    <glyph glyph-name="Ydieresis" unicode="&#x178;" horiz-adv-x="673" 
d="M338 932h4l115 569h192l-215 -897v-604h-194v604l-215 897h198zM297 1812v-249h-156v249h156zM539 1812v-249h-156v249h156z" />
    <glyph glyph-name="Zcaron" unicode="&#x17d;" horiz-adv-x="686" 
d="M639 1491l-344 -1301h340v-190h-594v10l344 1301h-293v190h547v-10zM358 1696l74 116h158l-123 -249h-215l-123 249h158z" />
    <glyph glyph-name="zcaron" unicode="&#x17e;" 
d="M102 750q0 66 46 112.5t112 46.5t113 -46.5t47 -112.5t-47 -112t-113 -46t-112 46t-46 112z" />
    <glyph glyph-name="florin" unicode="&#x192;" 
d="M102 750q0 66 46 112.5t112 46.5t113 -46.5t47 -112.5t-47 -112t-113 -46t-112 46t-46 112z" />
    <glyph glyph-name="circumflex" unicode="&#x2c6;" horiz-adv-x="624" 
d="M385 1589l-74 117l-71 -117h-158l123 250h215l123 -250h-158z" />
    <glyph glyph-name="caron" unicode="&#x2c7;" horiz-adv-x="624" 
d="M311 1722l74 117h158l-123 -250h-215l-123 250h158z" />
    <glyph glyph-name="breve" unicode="&#x2d8;" horiz-adv-x="606" 
d="M324 1589h-45q-69 0 -123 41.5t-54 110.5v98h129v-53q0 -70 70 -70t70 70v53h133v-98q0 -70 -54.5 -111t-125.5 -41z" />
    <glyph glyph-name="dotaccent" unicode="&#x2d9;" horiz-adv-x="401" 
d="M299 1839v-250h-197v250h197z" />
    <glyph glyph-name="ring" unicode="&#x2da;" horiz-adv-x="573" 
d="M287 1501q77 0 130.5 -53.5t53.5 -130.5t-53.5 -130.5t-130.5 -53.5q-75 0 -130 54t-55 130t55 130t130 54zM287 1212q44 0 74 31t30 74t-30 73.5t-74 30.5q-43 0 -73 -30.5t-30 -73.5t30 -74t73 -31z" />
    <glyph glyph-name="ogonek" unicode="&#x2db;" horiz-adv-x="452" 
d="M223 37l84 -10q-41 -113 -41 -154q0 -10 0.5 -15.5t4.5 -15.5t14.5 -15t27.5 -5h37l-2 -109q-37 -6 -110 -6q-71 0 -103.5 31.5t-32.5 79.5q0 39 33 99.5t88 119.5z" />
    <glyph glyph-name="tilde" unicode="&#x2dc;" horiz-adv-x="610" 
d="M217 1589h-115v99q0 70 29.5 99.5t71.5 29.5q34 0 95 -34t73 -34q22 0 22 29v39h115v-99q0 -70 -29 -99.5t-71 -29.5q-34 0 -95 34t-73 34q-23 0 -23 -29v-39z" />
    <glyph glyph-name="hungarumlaut" unicode="&#x2dd;" horiz-adv-x="690" 
d="M342 1839l-102 -250h-138l23 250h217zM588 1839l-103 -250h-137l23 250h217z" />
    <glyph glyph-name="pi" unicode="&#x3c0;" 
d="M102 750q0 66 46 112.5t112 46.5t113 -46.5t47 -112.5t-47 -112t-113 -46t-112 46t-46 112z" />
    <glyph glyph-name="endash" unicode="&#x2013;" horiz-adv-x="733" 
d="M102 657v187h529v-187h-529z" />
    <glyph glyph-name="emdash" unicode="&#x2014;" horiz-adv-x="917" 
d="M102 657v187h713v-187h-713z" />
    <glyph glyph-name="quoteleft" unicode="&#x2018;" horiz-adv-x="407" 
d="M301 1040h-195v308q0 52 13 85t38 46.5t46.5 17.5t54.5 4h33v-88h-19q-47 0 -47 -49v-68h76v-256z" />
    <glyph glyph-name="quoteright" unicode="&#x2019;" horiz-adv-x="407" 
d="M106 1501h195v-307q0 -42 -9.5 -71.5t-23 -45.5t-35.5 -24.5t-39.5 -10.5t-43.5 -2h-33v88h18q47 0 47 50v67h-76v256z" />
    <glyph glyph-name="quotesinglbase" unicode="&#x201a;" horiz-adv-x="407" 
d="M106 256h195v-307q0 -42 -9.5 -71.5t-23 -45.5t-35.5 -24.5t-39.5 -10.5t-43.5 -2h-33v88h18q47 0 47 49v68h-76v256z" />
    <glyph glyph-name="quotedblleft" unicode="&#x201c;" horiz-adv-x="663" 
d="M301 1040h-195v308q0 52 13 85t38 46.5t46.5 17.5t54.5 4h33v-88h-19q-47 0 -47 -49v-68h76v-256zM557 1040h-195v308q0 52 13 85t38 46.5t46.5 17.5t54.5 4h33v-88h-19q-47 0 -47 -49v-68h76v-256z" />
    <glyph glyph-name="quotedblright" unicode="&#x201d;" horiz-adv-x="663" 
d="M106 1501h195v-307q0 -42 -9.5 -71.5t-23 -45.5t-35.5 -24.5t-39.5 -10.5t-43.5 -2h-33v88h18q47 0 47 50v67h-76v256zM362 1501h195v-307q0 -42 -9.5 -71.5t-23 -45.5t-35.5 -24.5t-39.5 -10.5t-43.5 -2h-33v88h18q47 0 47 50v67h-76v256z" />
    <glyph glyph-name="quotedblbase" unicode="&#x201e;" horiz-adv-x="663" 
d="M106 256h195v-307q0 -42 -9.5 -71.5t-23 -45.5t-35.5 -24.5t-39.5 -10.5t-43.5 -2h-33v88h18q47 0 47 49v68h-76v256zM362 256h195v-307q0 -42 -9.5 -71.5t-23 -45.5t-35.5 -24.5t-39.5 -10.5t-43.5 -2h-33v88h18q47 0 47 49v68h-76v256z" />
    <glyph glyph-name="dagger" unicode="&#x2020;" horiz-adv-x="763" 
d="M102 1100h217v401h125v-401h218v-99h-218v-694h-125v694h-217v99z" />
    <glyph glyph-name="daggerdbl" unicode="&#x2021;" horiz-adv-x="763" 
d="M662 401h-218v-401h-125v401h-217v99h217v501h-217v99h217v401h125v-401h218v-99h-218v-501h218v-99z" />
    <glyph glyph-name="bullet" unicode="&#x2022;" 
d="M102 750q0 66 46 112.5t112 46.5t113 -46.5t47 -112.5t-47 -112t-113 -46t-112 46t-46 112z" />
    <glyph glyph-name="ellipsis" unicode="&#x2026;" horiz-adv-x="1411" 
d="M301 256v-256h-195v256h195zM803 256v-256h-195v256h195zM1305 256v-256h-195v256h195z" />
    <glyph glyph-name="perthousand" unicode="&#x2030;" horiz-adv-x="1501" 
d="M1290 0h-141q-44 0 -76.5 31.5t-32.5 74.5v359q0 44 32.5 76t76.5 32h141q44 0 76.5 -32t32.5 -76v-359q0 -43 -32.5 -74.5t-76.5 -31.5zM1157 426v-279q0 -12 8.5 -20t20.5 -8h67q12 0 20.5 8t8.5 20v279q0 12 -8.5 20.5t-20.5 8.5h-67q-12 0 -20.5 -8.5t-8.5 -20.5z
M352 928h-141q-44 0 -76.5 31.5t-32.5 74.5v359q0 44 32.5 76t76.5 32h141q44 0 76.5 -32t32.5 -76v-359q0 -43 -32.5 -74.5t-76.5 -31.5zM219 1354v-279q0 -12 8.5 -20t20.5 -8h67q12 0 20.5 8t8.5 20v279q0 12 -8.5 20t-20.5 8h-67q-12 0 -20.5 -8t-8.5 -20zM803 0h-141
q-44 0 -76.5 31.5t-32.5 74.5v359q0 44 32.5 76t76.5 32h141q44 0 76 -32t32 -76v-359q0 -43 -32 -74.5t-76 -31.5zM670 426v-279q0 -12 8 -20t20 -8h68q12 0 20.5 8t8.5 20v279q0 12 -8.5 20.5t-20.5 8.5h-68q-12 0 -20 -8.5t-8 -20.5zM881 1501l-619 -1501h-131l619 1501
h131z" />
    <glyph glyph-name="guilsinglleft" unicode="&#x2039;" horiz-adv-x="391" 
d="M61 752l125 399h144l-70 -399l70 -398h-144z" />
    <glyph glyph-name="guilsinglright" unicode="&#x203a;" horiz-adv-x="391" 
d="M205 1151l125 -399l-125 -398h-144l70 398l-70 399h144z" />
    <glyph glyph-name="fraction" unicode="&#x2044;" horiz-adv-x="497" 
d="M0 0l422 1501h76l-422 -1501h-76z" />
    <glyph glyph-name="Euro" unicode="&#x20ac;" horiz-adv-x="770" 
d="M301 1266v-299h135v-144h-135v-143h135v-143h-135v-301q0 -20 13.5 -34t33.5 -14h82q20 0 33.5 14t13.5 34v256h191v-312q0 -73 -53.5 -126.5t-127.5 -53.5h-200q-74 0 -127.5 53.5t-53.5 126.5v357h-49v143h49v143h-49v144h49v354q0 73 53.5 126.5t127.5 53.5h200
q74 0 127.5 -53.5t53.5 -126.5v-311h-191v256q0 20 -13.5 33.5t-33.5 13.5h-82q-20 0 -33.5 -13.5t-13.5 -33.5z" />
    <glyph glyph-name="trademark" unicode="&#x2122;" horiz-adv-x="1144" 
d="M61 1393v108h383v-108h-120v-791h-134v791h-129zM666 1501l112 -416l111 416h153v-899h-133v408l4 172h-2l-104 -391h-62l-104 391h-2l6 -172v-408h-129v899h150z" />
    <glyph glyph-name="Omega" unicode="&#x2126;" horiz-adv-x="778" 
d="M106 508v813q0 73 53.5 126.5t127.5 53.5h205q74 0 127 -53.5t53 -126.5v-813q0 -52 -23.5 -91.5t-66.5 -51.5v-177h71v-188h-235v516h12q20 0 33.5 13.5t13.5 33.5v703q0 20 -13.5 33.5t-33.5 13.5h-82q-20 0 -33.5 -13.5t-13.5 -33.5v-703q0 -20 13.5 -33.5t33.5 -13.5
h12v-516h-235v188h72v177q-43 12 -67 52t-24 91z" />
    <glyph glyph-name="partialdiff" unicode="&#x2202;" 
d="M102 750q0 66 46 112.5t112 46.5t113 -46.5t47 -112.5t-47 -112t-113 -46t-112 46t-46 112z" />
    <glyph glyph-name="Delta" unicode="&#x2206;" 
d="M102 750q0 66 46 112.5t112 46.5t113 -46.5t47 -112.5t-47 -112t-113 -46t-112 46t-46 112z" />
    <glyph glyph-name="product" unicode="&#x220f;" horiz-adv-x="761" 
d="M461 0v1315h-160v-1315h-195v1501h549v-1501h-194z" />
    <glyph glyph-name="summation" unicode="&#x2211;" 
d="M102 750q0 66 46 112.5t112 46.5t113 -46.5t47 -112.5t-47 -112t-113 -46t-112 46t-46 112z" />
    <glyph glyph-name="minus" unicode="&#x2212;" horiz-adv-x="829" 
d="M102 680v143h625v-143h-625z" />
    <glyph glyph-name="radical" unicode="&#x221a;" horiz-adv-x="673" 
d="M86 905h168l72 -827l159 1423h172l-213 -1683h-235z" />
    <glyph glyph-name="infinity" unicode="&#x221e;" 
d="M102 750q0 66 46 112.5t112 46.5t113 -46.5t47 -112.5t-47 -112t-113 -46t-112 46t-46 112z" />
    <glyph glyph-name="integral" unicode="&#x222b;" 
d="M102 750q0 66 46 112.5t112 46.5t113 -46.5t47 -112.5t-47 -112t-113 -46t-112 46t-46 112z" />
    <glyph glyph-name="approxequal" unicode="&#x2248;" horiz-adv-x="829" 
d="M727 721v-109q0 -55 -30 -93t-91 -38q-45 0 -193.5 39t-170.5 39q-25 0 -25 -29v-49h-115v109q0 55 30 93t91 38q45 0 194 -39t171 -39q24 0 24 29v49h115zM727 1022v-109q0 -55 -30 -93t-91 -38q-45 0 -193.5 39t-170.5 39q-25 0 -25 -29v-49h-115v109q0 55 30 93t91 38
q45 0 194 -39t171 -39q24 0 24 29v49h115z" />
    <glyph glyph-name="notequal" unicode="&#x2260;" horiz-adv-x="829" 
d="M102 823v144h293l78 227h137l-78 -227h195v-144h-242l-49 -143h291v-143h-338l-78 -230h-137l78 230h-150v143h197l49 143h-246z" />
    <glyph glyph-name="lessequal" unicode="&#x2264;" horiz-adv-x="706" 
d="M330 750l192 -416h-166l-237 416l237 415h166zM102 0v143h502v-143h-502z" />
    <glyph glyph-name="greaterequal" unicode="&#x2265;" horiz-adv-x="706" 
d="M604 143v-143h-502v143h502zM184 334l193 416l-193 415h166l238 -415l-238 -416h-166z" />
    <glyph glyph-name="lozenge" unicode="&#x25ca;" 
d="M102 750q0 66 46 112.5t112 46.5t113 -46.5t47 -112.5t-47 -112t-113 -46t-112 46t-46 112z" />
    <glyph glyph-name="fi" unicode="&#xfb01;" 
d="M102 750q0 66 46 112.5t112 46.5t113 -46.5t47 -112.5t-47 -112t-113 -46t-112 46t-46 112z" />
    <glyph glyph-name="fl" unicode="&#xfb02;" 
d="M102 750q0 66 46 112.5t112 46.5t113 -46.5t47 -112.5t-47 -112t-113 -46t-112 46t-46 112z" />
    <glyph glyph-name="apple" horiz-adv-x="1210" 
d="M1040 934h-135q-53 0 -91 38t-38 91v309q0 52 38 90.5t91 38.5h135q52 0 90.5 -38.5t38.5 -90.5v-309q0 -53 -38.5 -91t-90.5 -38zM909 1333v-231q0 -14 10 -23.5t25 -9.5h57q14 0 24.5 10t10.5 23v231q0 13 -10.5 23t-24.5 10h-57q-15 0 -25 -9.5t-10 -23.5zM776 672
v147h393v-147h-393zM281 1501l202 -844h2l-8 310v534h185v-1501h-175l-202 844h-2l8 -309v-535h-185v1501h175z" />
    </font>
</defs>
</svg>
