<svg xmlns="http://www.w3.org/2000/svg" width="26.464" height="26.464" viewBox="0 0 26.464 26.464">
  <g id="_04" data-name="04" transform="translate(0.277 0.277)">
    <g id="Group_488" data-name="Group 488" transform="translate(0 0)">
      <path id="Path_507" data-name="Path 507" d="M32.282,6.293a10.192,10.192,0,0,1,1.225.366" transform="translate(-17.007 -3.315)" fill="none" stroke="#231f20" stroke-miterlimit="10" stroke-width="1.5"/>
      <path id="Path_508" data-name="Path 508" d="M6.249,14.049A10.257,10.257,0,0,1,13.908,6.3" transform="translate(-3.292 -3.321)" fill="none" stroke="#231f20" stroke-miterlimit="10" stroke-width="1.5"/>
      <path id="Path_509" data-name="Path 509" d="M14.338,39.938a10.254,10.254,0,0,1-8.082-7.822" transform="translate(-3.296 -16.92)" fill="none" stroke="#231f20" stroke-miterlimit="10" stroke-width="1.5"/>
      <path id="Path_510" data-name="Path 510" d="M39.959,32.114a10.258,10.258,0,0,1-7.676,7.738" transform="translate(-17.008 -16.919)" fill="none" stroke="#231f20" stroke-miterlimit="10" stroke-width="1.5"/>
      <path id="Path_511" data-name="Path 511" d="M34.871,7.067a10.262,10.262,0,0,1,6.454,7.384" transform="translate(-18.371 -3.723)" fill="none" stroke="#231f20" stroke-miterlimit="10" stroke-width="1.5"/>
      <path id="Path_512" data-name="Path 512" d="M5.481,24.885a2.241,2.241,0,1,1-2.24-2.24A2.241,2.241,0,0,1,5.481,24.885Z" transform="translate(-0.526 -11.93)" fill="none" stroke="#231f20" stroke-miterlimit="10" stroke-width="1.5"/>
      <path id="Path_513" data-name="Path 513" d="M48.77,24.885a2.241,2.241,0,1,1-2.241-2.24A2.241,2.241,0,0,1,48.77,24.885Z" transform="translate(-23.333 -11.93)" fill="none" stroke="#231f20" stroke-miterlimit="10" stroke-width="1.5"/>
      <path id="Path_514" data-name="Path 514" d="M27.126,3.24A2.241,2.241,0,1,1,24.885,1,2.241,2.241,0,0,1,27.126,3.24Z" transform="translate(-11.93 -0.527)" fill="none" stroke="#231f20" stroke-miterlimit="10" stroke-width="1.5"/>
      <path id="Path_515" data-name="Path 515" d="M27.126,46.529a2.241,2.241,0,1,1-2.241-2.241A2.241,2.241,0,0,1,27.126,46.529Z" transform="translate(-11.93 -23.333)" fill="none" stroke="#231f20" stroke-miterlimit="10" stroke-width="1.5"/>
    </g>
  </g>
</svg>
