<svg xmlns="http://www.w3.org/2000/svg" width="19.024" height="25.662" viewBox="0 0 19.024 25.662">
  <g id="_09" data-name="09" transform="translate(0.276 0.276)">
    <g id="Group_490" data-name="Group 490" transform="translate(0 0)">
      <path id="Rectangle_174" data-name="Rectangle 174" d="M8.762,0h0a8.762,8.762,0,0,1,8.762,8.762V15.4a8.761,8.761,0,0,1-8.761,8.761h0A8.762,8.762,0,0,1,0,15.4V8.762A8.762,8.762,0,0,1,8.762,0Z" transform="translate(0.473 0.474)" fill="none" stroke="#211e1f" stroke-miterlimit="10" stroke-width="1.5"/>
      <path id="Path_519" data-name="Path 519" d="M18.864,13.106v6.638a5.759,5.759,0,0,1-11.517,0V13.106a5.765,5.765,0,0,1,5.758-5.759" transform="translate(-3.871 -3.871)" fill="none" stroke="#211e1f" stroke-miterlimit="10" stroke-width="1.5"/>
      <path id="Path_520" data-name="Path 520" d="M13.695,23.088V16.45a2.755,2.755,0,1,1,5.51,0v6.638a2.759,2.759,0,0,1-2.756,2.755" transform="translate(-7.215 -7.214)" fill="none" stroke="#211e1f" stroke-miterlimit="10" stroke-width="1.5"/>
    </g>
  </g>
</svg>
